{
.appVersion = "3133";
.formatVersion = 3;
DisplayStrings = (
"ꦩꦏ꧀ꦲꦿꦏ꧀ꦏꦿ ꦏ꧀ꦩꦿꦤ",
"ꦩꦏ꧀ꦲꦿꦏ꧀ꦏꦿ ꦏ꧀ꦩꦿꦤ"
);
axes = (
{
name = Weight;
tag = wght;
}
);
classes = (
{
code = "aPas-java aiPas-java ePas-java iKawiPas-java iPas-java iiPas-java kaPas-java kaPas-java.base kaSasakPas-java kaSasakPas-java.base kaMurdaPas-java gaPas-java gaMurdaPas-java ngaPas-java caPas-java caPas-java.short caPas_pengkal-java caPas_suku-java caMurdaPas-java jaPas-java jaPas_suku-java nyaMurdaPas-java ttaPas-java ttaPas_pengkal-java ttaPas_suku-java ttaMahapranaPas-java ttaMahapranaPas_suku-java ddaPas-java ddaPas_suku-java ddaMahapranaPas-java naMurdaPas-java taPas-java taMurdaPas-java taPas-java.base daPas-java daMahapranaPas-java naPas-java naPas_suku-java baPas-java baMurdaPas-java maPas-java maPas_suku-java yaPas-java raPas-java raAgungPas-java laPas-java laPas-java.base waPas-java waPas_suku-java saMurdaPas-java ngaLeletPas-java ngaLeletRaswadiPas-java oPas-java uPas-java nyaMurdaPas-java.alt baPas-java.alt pengkal-java.below laPas-java.below nyaPas-java.alt paPas-java.alt paMurdaPas-java.alt saMahapranaPas-java.alt saPas-java.alt haPas-java.alt paCerekPas-java.alt nyaMurdaPas-java.alt baPas-java.alt ";
name = belowForm;
},
{

glyphs = (
{
glyphname = "jaMahaprana_suku-java";
lastChange = "2022-07-24 07:10:29 +0000";
layers = (
{
anchors = (
{
name = back;
pos = (966,0);
},
{
name = top;
pos = (1070,940);
},
{
name = topright;
pos = (1728,940);
}
);
background = {
shapes = (
{
ref = _cmpnga1;
},
{
ref = _cmpjha;
}
);
};
layerId = m01;
shapes = (
{
closed = 1;
nodes = (
(280,98,o),
(260,161,o),
(260,280,cs),
(260,690,ls),
(260,813,o),
(316,860,o),
(380,860,cs),
(419,860,o),
(440,843,o),
(440,760,cs),
(440,220,ls),
(440,69,o),
(508,0,o),
(640,0,cs),
(1300,0,l),
(1300,80,l),
(1026,80,o),
(984,240,o),
(740,240,c),
(740,160,l),
(857,160,o),
(914,114,o),
(1011,80,c),
(740,80,ls),
(664,80,o),
(620,116,o),
(620,220,cs),
(620,760,ls),
(620,889,o),
(572,940,o),
(459,940,cs),
(393,940,ls),
(282,940,o),
(180,854,o),
(180,690,cs),
(180,280,ls),
(180,123,o),
(214,51,o),
(329,-18,c),
(369,49,l)
);
},
{
closed = 1;
nodes = (
(1029,-2000,o),
(1140,-1900,o),
(1325,-1900,cs),
(1510,-1900,o),
(1661,-2000,o),
(1861,-2000,cs),
(2133,-2000,o),
(2294,-1816,o),
(2294,-1470,cs),
(2294,750,ls),
(2294,1034,o),
(2152,1120,o),
(2022,1120,cs),
(1909,1120,o),
(1854,1056,o),
(1854,969,cs),
(1854,668,o),
(2514,639,o),
(2514,167,c),
(2694,167,l),
(2694,668,o),
(1954,773,o),
(1954,977,cs),
(1954,1011,o),
(1975,1040,o),
(2033,1040,cs),
(2167,1040,o),
(2214,887,o),
(2214,736,cs),
(2214,-1470,ls),
(2214,-1752,o),
(2108,-1920,o),
(1860,-1920,cs),
(1668,-1920,o),
(1513,-1820,o),
(1328,-1820,cs),
(1142,-1820,o),
(1038,-1920,o),
(820,-1920,cs),
(553,-1920,o),
(394,-1771,o),
(394,-1510,cs),
(394,-743,o),
(1774,-865,o),
(1774,-180,cs),
(1774,640,ls),
(1774,826,o),
(1704,940,o),
(1514,940,cs),
(1394,940,ls),
(1308,940,o),
(1245,917,o),
(1203,845,c),
(1162,912,o),
(1090,940,o),
(990,940,cs),
(866,940,o),
(804,897,o),
(804,819,cs),
(804,759,o),
(840,711,o),
(940,676,c),
(966,746,l),
(928,759,o),
(894,783,o),
(894,815,cs),
(894,845,o),
(923,860,o),
(977,860,cs),
(1089,860,o),
(1154,797,o),
(1154,680,c),
(1234,680,l),
(1234,795,o),
(1284,860,o),
(1384,860,cs),
(1444,860,ls),
(1547,860,o),
(1594,805,o),
(1594,640,cs),
(1594,-180,ls),
(1594,-851,o),
(214,-723,o),
(214,-1495,cs),
(214,-1825,o),
(467,-2000,o),
(787,-2000,cs)
);
},
{
closed = 1;
nodes = (
(2335,-1978,ls),
(2874,-1738,o),
(2874,-1443,o),
(2874,-1020,cs),
(2874,-360,l),
(2794,-360,l),
(2794,-1020,ls),
(2794,-1342,o),
(2781,-1611,o),
(2517,-1795,c),
(2685,-1571,o),
(2694,-1239,o),
(2694,-960,cs),
(2694,167,l),
(2514,167,l),
(2514,-960,ls),
(2514,-1366,o),
(2513,-1816,o),
(2121,-1994,c),
(2151,-2060,l)
);
}
);
width = 2834;
}
);
note = uniA999;
},
{
glyphname = "jaMahaprana_sukuMendut-java";
lastChange = "2022-07-24 07:10:29 +0000";
layers = (
{
anchors = (
{
name = back;
pos = (966,0);
},
{
name = top;
pos = (1070,940);
},
{
name = topright;
pos = (1728,940);
}
);
background = {
shapes = (
{
closed = 1;
nodes = (
(280,98,o),
(260,161,o),
(260,280,cs),
(260,690,ls),
(260,813,o),
(316,860,o),
(380,860,cs),
(419,860,o),
(440,843,o),
(440,760,cs),
(440,220,ls),
(440,69,o),
(508,0,o),
(640,0,cs),
(1300,0,l),
(1300,80,l),
(1026,80,o),
(984,240,o),
(740,240,c),
(740,160,l),
(857,160,o),
(914,114,o),
(1011,80,c),
(740,80,ls),
(664,80,o),
(620,116,o),
(620,220,cs),
(620,760,ls),
(620,889,o),
(572,940,o),
(459,940,cs),
(393,940,ls),
(282,940,o),
(180,854,o),
(180,690,cs),
(180,280,ls),
(180,123,o),
(214,51,o),
(329,-18,c),
(369,49,l)
);
},
{
closed = 1;
nodes = (
(1035,-2000,o),
(1153,-1900,o),
(1347,-1900,cs),
(1541,-1900,o),
(1710,-2000,o),
(1918,-2000,cs),
(2156,-2000,o),
(2294,-1868,o),
(2294,-1620,cs),
(2294,750,ls),
(2294,1034,o),
(2152,1120,o),
(2022,1120,cs),
(1907,1120,o),
(1854,1052,o),
(1854,976,cs),
(1854,660,o),
(2514,642,o),
(2514,167,c),
(2695,167,l),
(2695,670,o),
(1954,767,o),
(1954,982,cs),
(1954,1010,o),
(1975,1040,o),
(2034,1040,cs),
(2166,1040,o),
(2214,888,o),
(2214,736,cs),
(2214,-1620,ls),
(2214,-1808,o),
(2127,-1920,o),
(1917,-1920,cs),
(1718,-1920,o),
(1544,-1820,o),
(1349,-1820,cs),
(1154,-1820,o),
(1044,-1920,o),
(822,-1920,cs),
(552,-1920,o),
(394,-1771,o),
(394,-1511,cs),
(394,-742,o),
(1774,-865,o),
(1774,-180,cs),
(1774,640,ls),
(1774,826,o),
(1704,940,o),
(1514,940,cs),
(1394,940,ls),
(1308,940,o),
(1245,917,o),
(1203,845,c),
(1162,912,o),
(1090,940,o),
(990,940,cs),
(866,940,o),
(804,897,o),
(804,819,cs),
(804,759,o),
(840,711,o),
(940,676,c),
(966,746,l),
(928,759,o),
(894,783,o),
(894,815,cs),
(894,845,o),
(923,860,o),
(977,860,cs),
(1089,860,o),
(1154,797,o),
(1154,680,c),
(1234,680,l),
(1234,795,o),
(1284,860,o),
(1384,860,cs),
(1444,860,ls),
(1547,860,o),
(1594,805,o),
(1594,640,cs),
(1594,-180,ls),
(1594,-851,o),
(214,-722,o),
(214,-1495,cs),
(214,-1825,o),
(466,-2000,o),
(790,-2000,cs)
);
},
{
closed = 1;
nodes = (
(2515,-713,o),
(2482,-780,o),
(2415,-780,c),
(2415,-860,l),
(2730,-860,o),
(2915,-1038,o),
(2915,-1337,cs),
(2915,-1537,o),
(2832,-1700,o),
(2661,-1700,cs),
(2545,-1700,o),
(2455,-1624,o),
(2455,-1545,cs),
(2455,-1520,o),
(2464,-1504,o),
(2480,-1504,cs),
(2496,-1504,o),
(2515,-1520,o),
(2515,-1565,cs),
(2515,-1678,o),
(2395,-1766,o),
(2395,-1886,cs),
(2395,-1977,o),
(2463,-2020,o),
(2554,-2020,cs),
(2648,-2020,o),
(2735,-1974,o),
(2735,-1880,cs),
(2735,-1866,o),
(2733,-1849,o),
(2728,-1830,c),
(2651,-1850,l),
(2654,-1860,o),
(2655,-1874,o),
(2655,-1881,cs),
(2655,-1922,o),
(2623,-1940,o),
(2581,-1940,cs),
(2537,-1940,o),
(2515,-1918,o),
(2515,-1871,cs),
(2515,-1771,o),
(2615,-1699,o),
(2615,-1563,cs),
(2615,-1468,o),
(2566,-1420,o),
(2491,-1420,cs),
(2413,-1420,o),
(2379,-1476,o),
(2379,-1548,cs),
(2379,-1689,o),
(2514,-1780,o),
(2686,-1780,cs),
(2939,-1780,o),
(3095,-1589,o),
(3095,-1328,cs),
(3095,-1018,o),
(2878,-830,o),
(2560,-788,c),
(2561,-813,l),
(2670,-779,o),
(2695,-691,o),
(2695,-580,cs),
(2695,167,l),
(2514,167,l),
(2515,-580,ls)
);
}
);
};
layerId = m01;
shapes = (
{
closed = 1;
nodes = (
(280,98,o),
(260,161,o),
(260,280,cs),
(260,690,ls),
(260,813,o),
(316,860,o),
(380,860,cs),
(419,860,o),
(440,843,o),
(440,760,cs),
(440,220,ls),
(440,69,o),
(508,0,o),
(640,0,cs),
(1300,0,l),
(1300,80,l),
(1026,80,o),
(984,240,o),
(740,240,c),
(740,160,l),
(857,160,o),
(914,114,o),
(1011,80,c),
(740,80,ls),
(664,80,o),
(620,116,o),
(620,220,cs),
(620,760,ls),
(620,889,o),
(572,940,o),
(459,940,cs),
(393,940,ls),
(282,940,o),
(180,854,o),
(180,690,cs),
(180,280,ls),
(180,123,o),
(214,51,o),
(329,-18,c),
(369,49,l)
);
},
{
closed = 1;
nodes = (
(1029,-2000,o),
(1140,-1900,o),
(1325,-1900,cs),
(1510,-1900,o),
(1661,-2000,o),
(1861,-2000,cs),
(2133,-2000,o),
(2294,-1816,o),
(2294,-1470,cs),
(2294,750,ls),
(2294,1034,o),
(2152,1120,o),
(2022,1120,cs),
(1909,1120,o),
(1854,1056,o),
(1854,969,cs),
(1854,668,o),
(2514,639,o),
(2514,167,c),
(2694,167,l),
(2694,668,o),
(1954,773,o),
(1954,977,cs),
(1954,1011,o),
(1975,1040,o),
(2033,1040,cs),
(2167,1040,o),
(2214,887,o),
(2214,736,cs),
(2214,-1470,ls),
(2214,-1752,o),
(2108,-1920,o),
(1860,-1920,cs),
(1668,-1920,o),
(1513,-1820,o),
(1328,-1820,cs),
(1142,-1820,o),
(1038,-1920,o),
(820,-1920,cs),
(553,-1920,o),
(394,-1771,o),
(394,-1510,cs),
(394,-743,o),
(1774,-865,o),
(1774,-180,cs),
(1774,640,ls),
(1774,826,o),
(1704,940,o),
(1514,940,cs),
(1394,940,ls),
(1308,940,o),
(1245,917,o),
(1203,845,c),
(1162,912,o),
(1090,940,o),
(990,940,cs),
(866,940,o),
(804,897,o),
(804,819,cs),
(804,759,o),
(840,711,o),
(940,676,c),
(966,746,l),
(928,759,o),
(894,783,o),
(894,815,cs),
(894,845,o),
(923,860,o),
(977,860,cs),
(1089,860,o),
(1154,797,o),
(1154,680,c),
(1234,680,l),
(1234,795,o),
(1284,860,o),
(1384,860,cs),
(1444,860,ls),
(1547,860,o),
(1594,805,o),
(1594,640,cs),
(1594,-180,ls),
(1594,-851,o),
(214,-723,o),
(214,-1495,cs),
(214,-1825,o),
(467,-2000,o),
(787,-2000,cs)
);
},
{
closed = 1;
nodes = (
(2335,-1978,ls),
(2874,-1738,o),
(2874,-1443,o),
(2874,-1020,cs),
(2874,-360,l),
(2794,-360,l),
(2794,-1020,ls),
(2794,-1342,o),
(2781,-1611,o),
(2517,-1795,c),
(2685,-1571,o),
(2694,-1239,o),
(2694,-960,cs),
(2694,167,l),
(2514,167,l),
(2514,-960,ls),
(2514,-1366,o),
(2513,-1816,o),
(2121,-1994,c),
(2151,-2060,l)
);
}
);
width = 2834;
}
);
note = uniA999;
},
{
glyphname = "jaMahapranaPas_suku-java";
lastChange = "2022-07-24 07:10:29 +0000";
layers = (
{
layerId = m01;
shapes = (
{
closed = 1;
nodes = (
(-1435,-1186,o),
(-1228,-1043,o),
(-967,-918,c),
(-1005,-836,l),
(-1337,-989,o),
(-1615,-1138,o),
(-1615,-1505,cs),
(-1615,-1827,o),
(-1402,-2000,o),
(-1122,-2000,cs),
(-909,-2000,o),
(-792,-1900,o),
(-609,-1900,cs),
(-426,-1900,o),
(-278,-2000,o),
(-61,-2000,cs),
(263,-2000,o),
(465,-1778,o),
(465,-1360,c),
(385,-1360,l),
(385,-1711,o),
(245,-1920,o),
(-61,-1920,cs),
(-272,-1920,o),
(-424,-1820,o),
(-607,-1820,cs),
(-789,-1820,o),
(-903,-1920,o),
(-1085,-1920,cs),
(-1310,-1920,o),
(-1435,-1767,o),
(-1435,-1513,cs)
);
},
{
closed = 1;
nodes = (
(464,-1360,l),
(464,750,ls),
(464,1034,o),
(322,1120,o),
(192,1120,cs),
(79,1120,o),
(24,1056,o),
(24,969,cs),
(24,668,o),
(681,639,o),
(684,167,cs),
(685,0,l),
(865,0,l),
(865,167,ls),
(865,668,o),
(124,773,o),
(124,977,cs),
(124,1011,o),
(145,1040,o),
(203,1040,cs),
(337,1040,o),
(384,887,o),
(384,736,cs),
(384,-1360,l)
);
},
{
closed = 1;
nodes = (
(506,-1978,ls),
(1045,-1738,o),
(1045,-1443,o),
(1045,-1020,cs),
(1045,-360,l),
(965,-360,l),
(965,-1020,ls),
(965,-1342,o),
(952,-1611,o),
(688,-1795,c),
(856,-1571,o),
(865,-1239,o),
(865,-960,cs),
(865,10,l),
(685,10,l),
(685,-960,ls),
(685,-1366,o),
(684,-1816,o),
(292,-1994,c),
(322,-2060,l)
);
}
);
width = 970;
}
);
},
{
glyphname = "jaMahapranaPas_sukuMendut-java";
lastChange = "2022-07-24 07:10:29 +0000";
layers = (
{
anchors = (
{
name = _bottom;
pos = (1626,0);
}
);
background = {
shapes = (
{
ref = "jaMahapranaPas-java";
},
{
ref = "sukuMendut-java";
}
);
};
layerId = m01;
shapes = (
{
closed = 1;
nodes = (
(-1435,-1186,o),
(-1228,-1043,o),
(-967,-918,c),
(-1005,-836,l),
(-1337,-989,o),
(-1615,-1138,o),
(-1615,-1505,cs),
(-1615,-1827,o),
(-1402,-2000,o),
(-1122,-2000,cs),
(-909,-2000,o),
(-792,-1900,o),
(-609,-1900,cs),
(-426,-1900,o),
(-278,-2000,o),
(-61,-2000,cs),
(263,-2000,o),
(465,-1778,o),
(465,-1360,c),
(385,-1360,l),
(385,-1711,o),
(245,-1920,o),
(-61,-1920,cs),
(-272,-1920,o),
(-424,-1820,o),
(-607,-1820,cs),
(-789,-1820,o),
(-903,-1920,o),
(-1085,-1920,cs),
(-1310,-1920,o),
(-1435,-1767,o),
(-1435,-1513,cs)
);
},
{
closed = 1;
nodes = (
(464,-1360,l),
(464,750,ls),
(464,1034,o),
(322,1120,o),
(192,1120,cs),
(79,1120,o),
(24,1056,o),
(24,969,cs),
(24,668,o),
(681,639,o),
(684,167,cs),
(685,0,l),
(865,0,l),
(865,167,ls),
(865,668,o),
(124,773,o),
(124,977,cs),
(124,1011,o),
(145,1040,o),
(203,1040,cs),
(337,1040,o),
(384,887,o),
(384,736,cs),
(384,-1360,l)
);
},
{
closed = 1;
nodes = (
(506,-1978,ls),
(1045,-1738,o),
(1045,-1443,o),
(1045,-1020,cs),
(1045,-760,l),
(965,-760,l),
(965,-1020,ls),
(965,-1342,o),
(952,-1611,o),
(688,-1795,c),
(856,-1571,o),
(865,-1239,o),
(865,-960,cs),
(865,10,l),
(685,10,l),
(685,-960,ls),
(685,-1366,o),
(684,-1816,o),
(292,-1994,c),
(322,-2060,l)
);
},
{
closed = 1;
nodes = (
(1045,-761,l),
(1045,-670,ls),
(1045,-556,o),
(992,-500,o),
(869,-500,cs),
(665,-500,ls),
(577,-500,o),
(545,-468,o),
(545,-413,cs),
(545,-358,o),
(577,-320,o),
(665,-320,cs),
(862,-320,ls),
(952,-320,o),
(1011,-346,o),
(1055,-392,c),
(1113,-333,l),
(1066,-275,o),
(980,-240,o),
(862,-240,cs),
(665,-240,ls),
(541,-240,o),
(465,-299,o),
(465,-413,cs),
(465,-527,o),
(541,-580,o),
(665,-580,cs),
(869,-580,ls),
(944,-580,o),
(965,-615,o),
(965,-670,cs),
(965,-761,l)
);
}
);
width = 970;
}
);
},
{
glyphname = "nyaPas_suku-java";
lastChange = "2022-07-24 07:10:29 +0000";
layers = (
{
background = {
shapes = (
{
closed = 1;
nodes = (
(-443,-990,o),
(-613,-1014,o),
(-780,-1043,o),
(-936,-1084,o),
(-1075,-1145,o),
(-1191,-1232,o),
(-1274,-1354,o),
(-1320,-1515,o),
(-1320,-1620,qs),
(-1320,-1718,o),
(-1277,-1861,o),
(-1202,-1955,o),
(-1100,-2000,o),
(-1040,-2000,qs),
(-1004,-2000,o),
(-949,-1981,o),
(-896,-1959,o),
(-839,-1940,o),
(-800,-1940,qs),
(-753,-1940,o),
(-683,-1959,o),
(-614,-1981,o),
(-536,-2000,o),
(-480,-2000,qs),
(-412,-2000,o),
(-301,-1951,o),
(-223,-1852,o),
(-180,-1701,o),
(-180,-1600,qs),
(-180,-1062,l),
(-72,-1033,o),
(117,-944,o),
(258,-804,o),
(340,-603,o),
(340,-460,qs),
(340,780,ls),
(340,860,o),
(420,860,qs),
(469,860,o),
(520,788,o),
(520,700,qs),
(520,-1740,ls),
(520,-1856,o),
(629,-1987,o),
(749,-2008,q),
(778,-1928,l),
(761,-1922,o),
(732,-1900,o),
(711,-1858,o),
(700,-1791,o),
(700,-1740,qs),
(700,700,ls),
(700,760,o),
(672,850,o),
(623,910,o),
(557,940,o),
(520,940,qs),
(420,940,ls),
(343,940,o),
(260,858,o),
(260,780,qs),
(260,-460,ls),
(260,-575,o),
(193,-737,o),
(74,-848,o),
(-87,-918,o),
(-180,-941,q),
(-180,0,l),
(-360,0,l),
(-360,-977,l)
);
},
{
closed = 1;
nodes = (
(-360,-1770,o),
(-441,-1920,o),
(-520,-1920,qs),
(-552,-1920,o),
(-608,-1901,o),
(-671,-1879,o),
(-748,-1860,o),
(-800,-1860,qs),
(-839,-1860,o),
(-897,-1879,o),
(-950,-1901,o),
(-1005,-1920,o),
(-1040,-1920,qs),
(-1085,-1920,o),
(-1159,-1888,o),
(-1212,-1819,o),
(-1240,-1714,o),
(-1240,-1640,qs),
(-1240,-1532,o),
(-1168,-1379,o),
(-1043,-1273,o),
(-873,-1205,o),
(-678,-1158,o),
(-466,-1123,o),
(-360,-1102,q),
(-360,-1600,ls)
);
}
);
};
layerId = m01;
shapes = (
{
closed = 1;
nodes = (
(670,-10,l),
(670,763,ls),
(670,872,o),
(628,940,o),
(478,940,cs),
(396,940,ls),
(287,940,o),
(230,890,o),
(230,763,cs),
(230,-430,ls),
(230,-1343,o),
(-1320,-659,o),
(-1320,-1616,cs),
(-1320,-1884,o),
(-1199,-2000,o),
(-1045,-2000,cs),
(-935,-2000,o),
(-910,-1940,o),
(-797,-1940,cs),
(-683,-1940,o),
(-620,-2000,o),
(-483,-2000,cs),
(-262,-2000,o),
(-180,-1844,o),
(-180,-1650,cs),
(-180,0,l),
(-360,0,l),
(-360,-1650,ls),
(-360,-1769,o),
(-378,-1920,o),
(-518,-1920,cs),
(-607,-1920,o),
(-670,-1860,o),
(-791,-1860,cs),
(-912,-1860,o),
(-942,-1920,o),
(-1041,-1920,cs),
(-1159,-1920,o),
(-1240,-1834,o),
(-1240,-1644,cs),
(-1240,-812,o),
(310,-1517,o),
(310,-430,cs),
(310,763,ls),
(310,838,o),
(341,860,o),
(399,860,cs),
(465,860,o),
(490,832,o),
(490,763,cs),
(490,-10,l)
);
},
{
pos = (52,0);
ref = "suku-java.straight";
}
);
width = 858;
}
);
note = uniA99A.conj;
},
{
glyphname = "nyaPas_sukuMendut-java";
lastChange = "2022-07-24 07:10:29 +0000";
layers = (
{
anchors = (
{
name = _bottom;
pos = (670,0);
}
);
background = {
shapes = (
{
closed = 1;
nodes = (
(748,-1928,l),
(702,-1912,o),
(670,-1877,o),
(670,-1740,cs),
(670,763,ls),
(670,872,o),
(628,940,o),
(478,940,cs),
(396,940,ls),
(287,940,o),
(230,890,o),
(230,763,cs),
(230,-430,ls),
(230,-1343,o),
(-1320,-659,o),
(-1320,-1616,cs),
(-1320,-1884,o),
(-1199,-2000,o),
(-1045,-2000,cs),
(-935,-2000,o),
(-910,-1940,o),
(-797,-1940,cs),
(-683,-1940,o),
(-620,-2000,o),
(-483,-2000,cs),
(-262,-2000,o),
(-180,-1844,o),
(-180,-1650,cs),
(-180,0,l),
(-360,0,l),
(-360,-1650,ls),
(-360,-1769,o),
(-378,-1920,o),
(-518,-1920,cs),
(-607,-1920,o),
(-670,-1860,o),
(-791,-1860,cs),
(-912,-1860,o),
(-942,-1920,o),
(-1041,-1920,cs),
(-1159,-1920,o),
(-1240,-1834,o),
(-1240,-1644,cs),
(-1240,-812,o),
(310,-1517,o),
(310,-430,cs),
(310,763,ls),
(310,838,o),
(341,860,o),
(399,860,cs),
(465,860,o),
(490,832,o),
(490,763,cs),
(490,-1740,ls),
(490,-1895,o),
(559,-1980,o),
(719,-2008,c)
);
}
);
};
layerId = m01;
shapes = (
{
closed = 1;
nodes = (
(670,-10,l),
(670,763,ls),
(670,872,o),
(628,940,o),
(478,940,cs),
(396,940,ls),
(287,940,o),
(230,890,o),
(230,763,cs),
(230,-430,ls),
(230,-1343,o),
(-1320,-659,o),
(-1320,-1616,cs),
(-1320,-1884,o),
(-1199,-2000,o),
(-1045,-2000,cs),
(-935,-2000,o),
(-910,-1940,o),
(-797,-1940,cs),
(-683,-1940,o),
(-620,-2000,o),
(-483,-2000,cs),
(-262,-2000,o),
(-180,-1844,o),
(-180,-1650,cs),
(-180,0,l),
(-360,0,l),
(-360,-1650,ls),
(-360,-1769,o),
(-378,-1920,o),
(-518,-1920,cs),
(-607,-1920,o),
(-670,-1860,o),
(-791,-1860,cs),
(-912,-1860,o),
(-942,-1920,o),
(-1041,-1920,cs),
(-1159,-1920,o),
(-1240,-1834,o),
(-1240,-1644,cs),
(-1240,-812,o),
(310,-1517,o),
(310,-430,cs),
(310,763,ls),
(310,838,o),
(341,860,o),
(399,860,cs),
(465,860,o),
(490,832,o),
(490,763,cs),
(490,-10,l)
);
},
{
closed = 1;
nodes = (
(311,-1978,ls),
(842,-1741,o),
(850,-1458,o),
(850,-1020,cs),
(850,-760,l),
(770,-760,l),
(770,-1020,ls),
(770,-1342,o),
(757,-1611,o),
(493,-1795,c),
(661,-1571,o),
(670,-1239,o),
(670,-960,cs),
(670,10,l),
(490,10,l),
(490,-960,ls),
(490,-1366,o),
(489,-1816,o),
(97,-1994,c),
(127,-2060,l)
);
},
{
closed = 1;
nodes = (
(850,-761,l),
(850,-670,ls),
(850,-556,o),
(797,-500,o),
(674,-500,cs),
(470,-500,ls),
(382,-500,o),
(350,-468,o),
(350,-413,cs),
(350,-358,o),
(382,-320,o),
(470,-320,cs),
(667,-320,ls),
(757,-320,o),
(816,-346,o),
(860,-392,c),
(918,-333,l),
(871,-275,o),
(785,-240,o),
(667,-240,cs),
(470,-240,ls),
(346,-240,o),
(270,-299,o),
(270,-413,cs),
(270,-527,o),
(346,-580,o),
(470,-580,cs),
(674,-580,ls),
(749,-580,o),
(770,-615,o),
(770,-670,cs),
(770,-761,l)
);
}
);
width = 858;
}
);
note = uniA99A.conj;
},
{
glyphname = "ka-java";
lastChange = "2022-07-24 14:58:02 +0000";
layers = (
{
anchors = (
{
name = bottom;
pos = (2260,0);
},
{
name = cerek;
pos = (1146,0);
},
{
name = top;
pos = (1220,940);
},
{
name = topright;
pos = (2260,940);
}
);
background = {
shapes = (
{
closed = 0;
nodes = (
(1050,730,ls),
(1050,826,o),
(1082,860,o),
(1172,860,cs),
(1300,860,ls),
(1400,860,o),
(1430,811,o),
(1430,730,cs)
);
},
{
closed = 0;
nodes = (
(1610,730,ls),
(1610,840,o),
(1578,940,o),
(1390,940,cs),
(1172,940,ls),
(1038,940,o),
(970,873,o),
(970,730,cs)
);
}
);
};
layerId = m01;
shapes = (
{
closed = 1;
nodes = (
(823,400,o),
(1080,287,o),
(1080,125,cs),
(1080,95,o),
(1071,80,o),
(1042,80,cs),
(1002,80,o),
(980,107,o),
(980,160,cs),
(980,670,ls),
(980,814,o),
(1051,860,o),
(1160,860,cs),
(1320,860,ls),
(1438,860,o),
(1500,811,o),
(1500,670,cs),
(1500,140,ls),
(1500,44,o),
(1547,0,o),
(1630,0,cs),
(1730,0,ls),
(1796,0,o),
(1860,29,o),
(1860,140,cs),
(1860,640,ls),
(1860,749,o),
(1852,815,o),
(1834,860,c),
(1940,860,ls),
(2036,860,o),
(2080,816,o),
(2080,685,cs),
(2080,0,l),
(2260,0,l),
(2260,685,ls),
(2260,869,o),
(2187,940,o),
(2010,940,cs),
(1681,940,l),
(1753,877,o),
(1780,809,o),
(1780,640,cs),
(1780,140,ls),
(1780,103,o),
(1769,80,o),
(1727,80,cs),
(1690,80,o),
(1680,98,o),
(1680,140,cs),
(1680,670,ls),
(1680,828,o),
(1628,940,o),
(1420,940,cs),
(1160,940,ls),
(1012,940,o),
(900,872,o),
(900,670,cs),
(900,160,ls),
(900,28,o),
(955,-20,o),
(1059,-20,cs),
(1156,-20,o),
(1220,22,o),
(1220,119,cs),
(1220,337,o),
(894,480,o),
(620,480,c),
(620,740,ls),
(620,862,o),
(576,940,o),
(427,940,cs),
(241,940,o),
(180,819,o),
(180,678,cs),
(180,310,ls),
(180,139,o),
(203,53,o),
(329,-18,c),
(369,49,l),
(274,102,o),
(260,164,o),
(260,310,cs),
(260,678,ls),
(260,804,o),
(302,860,o),
(373,860,cs),
(420,860,o),
(440,836,o),
(440,740,cs),
(440,0,l),
(620,0,l),
(620,400,l)
);
}
);
width = 2440;
}
);
note = uniA98F;
unicode = 43407;
},
{
glyphname = "kaMurda-java";
lastChange = "2022-07-24 07:10:29 +0000";
layers = (
{
anchors = (
{
name = bottom;
pos = (1680,0);
},
{
name = top;
pos = (1100,940);
},
{
name = topright;
pos = (1682,940);
}
);
background = {
shapes = (
{
closed = 1;
nodes = (
(1156,-20,o),
(1220,22,o),
(1220,119,cs),
(1220,337,o),
(894,480,o),
(620,480,c),
(620,760,ls),
(620,871,o),
(583,940,o),
(470,940,cs),
(400,940,ls),
(241,940,o),
(180,811,o),
(180,660,cs),
(180,310,ls),
(180,139,o),
(203,53,o),
(329,-18,c),
(369,49,l),
(274,102,o),
(260,164,o),
(260,310,cs),
(260,660,ls),
(260,799,o),
(301,860,o),
(376,860,cs),
(420,860,o),
(440,838,o),
(440,760,cs),
(440,0,l),
(620,0,l),
(620,400,l),
(823,400,o),
(1080,287,o),
(1080,125,cs),
(1080,95,o),
(1071,80,o),
(1042,80,cs),
(1002,80,o),
(980,107,o),
(980,160,cs),
(980,660,ls),
(980,807,o),
(1051,860,o),
(1160,860,cs),
(1320,860,ls),
(1418,860,o),
(1500,803,o),
(1500,620,cs),
(1500,160,ls),
(1500,47,o),
(1557,-20,o),
(1660,-20,cs),
(1952,-20,o),
(1790,522,o),
(2176,816,c),
(2131,868,l),
(1757,577,o),
(1830,80,o),
(1707,80,cs),
(1685,80,o),
(1680,96,o),
(1680,140,cs),
(1680,620,ls),
(1680,816,o),
(1608,940,o),
(1420,940,cs),
(1160,940,ls),
(1012,940,o),
(900,864,o),
(900,660,cs),
(900,160,ls),
(900,28,o),
(955,-20,o),
(1059,-20,cs)
);
}
);
};
layerId = m01;
shapes = (
{
closed = 1;
nodes = (
(1156,-20,o),
(1220,22,o),
(1220,119,cs),
(1220,337,o),
(894,480,o),
(620,480,c),
(620,740,ls),
(620,863,o),
(583,940,o),
(470,940,cs),
(400,940,ls),
(241,940,o),
(180,819,o),
(180,678,cs),
(180,310,ls),
(180,139,o),
(203,53,o),
(329,-18,c),
(369,49,l),
(274,102,o),
(260,164,o),
(260,310,cs),
(260,678,ls),
(260,804,o),
(302,860,o),
(373,860,cs),
(420,860,o),
(440,836,o),
(440,740,cs),
(440,0,l),
(620,0,l),
(620,400,l),
(823,400,o),
(1080,287,o),
(1080,125,cs),
(1080,95,o),
(1071,80,o),
(1042,80,cs),
(1002,80,o),
(980,107,o),
(980,160,cs),
(980,670,ls),
(980,814,o),
(1051,860,o),
(1160,860,cs),
(1320,860,ls),
(1418,860,o),
(1500,811,o),
(1500,670,cs),
(1500,140,ls),
(1500,40,o),
(1557,-20,o),
(1660,-20,cs),
(1952,-20,o),
(1790,522,o),
(2176,816,c),
(2131,868,l),
(1757,577,o),
(1830,80,o),
(1707,80,cs),
(1685,80,o),
(1680,96,o),
(1680,140,cs),
(1680,670,ls),
(1680,828,o),
(1608,940,o),
(1420,940,cs),
(1160,940,ls),
(1012,940,o),
(900,872,o),
(900,670,cs),
(900,160,ls),
(900,28,o),
(955,-20,o),
(1059,-20,cs)
);
}
);
width = 2200;
}
);
note = uniA991;
unicode = 43409;
},
{
glyphname = "ga-java";
lastChange = "2022-07-24 07:10:29 +0000";
layers = (
{
anchors = (
{
name = bottom;
pos = (2260,0);
},
{
name = top;
pos = (1220,940);
},
{
name = topright;
pos = (2260,940);
}
);
background = {
shapes = (
{
closed = 1;
nodes = (
(375,125,o),
(307,164,o),
(262,237,o),
(240,353,o),
(240,440,qs),
(240,533,o),
(271,662,o),
(325,743,o),
(398,780,o),
(440,780,qs),
(521,780,o),
(600,689,o),
(600,580,qs),
(600,140,ls),
(600,68,o),
(668,0,o),
(730,0,qs),
(830,0,ls),
(854,0,o),
(901,12,o),
(937,43,o),
(960,98,o),
(960,140,qs),
(960,720,ls),
(960,796,o),
(1013,860,o),
(1080,860,qs),
(1200,860,ls),
(1265,860,o),
(1340,778,o),
(1340,700,qs),
(1340,140,ls),
(1340,68,o),
(1408,0,o),
(1470,0,qs),
(1570,0,ls),
(1594,0,o),
(1641,12,o),
(1677,43,o),
(1700,98,o),
(1700,140,qs),
(1700,720,ls),
(1700,796,o),
(1753,860,o),
(1820,860,qs),
(1940,860,ls),
(2005,860,o),
(2080,778,o),
(2080,700,qs),
(2080,0,l),
(2260,0,l),
(2260,700,ls),
(2260,745,o),
(2238,831,o),
(2187,898,o),
(2102,940,o),
(2040,940,qs),
(1820,940,ls),
(1713,940,o),
(1620,832,o),
(1620,720,qs),
(1620,140,ls),
(1620,113,o),
(1599,80,o),
(1570,80,qs),
(1540,80,o),
(1520,108,o),
(1520,140,qs),
(1520,700,ls),
(1520,745,o),
(1498,831,o),
(1447,898,o),
(1362,940,o),
(1300,940,qs),
(1080,940,ls),
(973,940,o),
(880,832,o),
(880,720,qs),
(880,140,ls),
(880,113,o),
(859,80,o),
(830,80,qs),
(800,80,o),
(780,108,o),
(780,140,qs),
(780,580,ls),
(780,655,o),
(750,767,o),
(682,842,o),
(571,880,o),
(490,880,qs),
(403,880,o),
(279,817,o),
(198,702,o),
(160,539,o),
(160,440,qs),
(160,348,o),
(186,208,o),
(244,109,o),
(338,49,o),
(406,37,q),
(420,115,l)
);
}
);
};
layerId = m01;
shapes = (
{
closed = 1;
nodes = (
(820,0,ls),
(891,0,o),
(960,29,o),
(960,140,cs),
(960,730,ls),
(960,826,o),
(992,860,o),
(1082,860,cs),
(1210,860,ls),
(1310,860,o),
(1340,811,o),
(1340,730,cs),
(1340,140,ls),
(1340,44,o),
(1394,0,o),
(1490,0,cs),
(1570,0,ls),
(1636,0,o),
(1700,29,o),
(1700,140,cs),
(1700,730,ls),
(1700,826,o),
(1732,860,o),
(1822,860,cs),
(1950,860,ls),
(2050,860,o),
(2080,811,o),
(2080,730,cs),
(2080,0,l),
(2260,0,l),
(2260,730,ls),
(2260,840,o),
(2228,940,o),
(2040,940,cs),
(1822,940,ls),
(1688,940,o),
(1620,873,o),
(1620,730,cs),
(1620,140,ls),
(1620,103,o),
(1609,80,o),
(1567,80,cs),
(1530,80,o),
(1520,98,o),
(1520,140,cs),
(1520,730,ls),
(1520,840,o),
(1488,940,o),
(1300,940,cs),
(1082,940,ls),
(948,940,o),
(880,873,o),
(880,730,cs),
(880,140,ls),
(880,103,o),
(869,80,o),
(827,80,cs),
(790,80,o),
(780,98,o),
(780,140,cs),
(780,580,ls),
(780,771,o),
(706,880,o),
(505,880,cs),
(246,880,o),
(160,703,o),
(160,432,cs),
(160,248,o),
(199,72,o),
(406,37,c),
(425,106,l),
(261,140,o),
(240,289,o),
(240,434,cs),
(240,695,o),
(310,780,o),
(447,780,cs),
(558,780,o),
(600,724,o),
(600,590,cs),
(600,140,ls),
(600,44,o),
(654,0,o),
(750,0,cs)
);
}
);
width = 2440;
}
);
note = uniA992;
unicode = 43410;
},
{
glyphname = "gaMurda-java";
lastChange = "2022-07-24 07:10:29 +0000";
layers = (
{
anchors = (
{
name = bottom;
pos = (2260,0);
},
{
name = top;
pos = (1217,940);
},
{
name = topright;
pos = (2260,940);
}
);
background = {
shapes = (
{
closed = 1;
nodes = (
(323,117,o),
(260,243,o),
(260,336,qs),
(260,520,ls),
(260,582,o),
(282,685,o),
(321,759,o),
(371,800,o),
(400,800,qs),
(427,800,o),
(460,747,o),
(460,680,qs),
(460,140,ls),
(460,71,o),
(531,0,o),
(600,0,qs),
(980,0,l),
(980,80,l),
(940,80,o),
(874,98,o),
(826,140,o),
(800,209,o),
(800,260,qs),
(800,620,ls),
(800,743,o),
(896,860,o),
(980,860,qs),
(1060,860,ls),
(1142,860,o),
(1220,786,o),
(1220,720,qs),
(1220,200,ls),
(1220,145,o),
(1243,62,o),
(1296,7,o),
(1380,-20,o),
(1440,-20,qs),
(1488,-20,o),
(1545,-1,o),
(1584,21,o),
(1617,40,o),
(1640,40,qs),
(1662,40,o),
(1695,21,o),
(1730,-1,o),
(1775,-20,o),
(1810,-20,qs),
(1894,-20,o),
(1960,104,o),
(1960,220,qs),
(1960,500,ls),
(1960,632,o),
(1923,808,o),
(1876,860,q),
(1920,860,ls),
(1957,860,o),
(2016,843,o),
(2058,805,o),
(2080,744,o),
(2080,700,qs),
(2080,0,l),
(2260,0,l),
(2260,700,ls),
(2260,762,o),
(2226,853,o),
(2164,912,o),
(2075,940,o),
(2020,940,qs),
(1640,940,l),
(1640,860,l),
(1712,860,o),
(1805,821,o),
(1859,734,o),
(1880,597,o),
(1880,500,qs),
(1880,220,ls),
(1880,158,o),
(1850,100,o),
(1820,100,qs),
(1800,100,o),
(1771,119,o),
(1739,141,o),
(1696,160,o),
(1660,160,qs),
(1629,160,o),
(1587,135,o),
(1549,105,o),
(1508,80,o),
(1480,80,qs),
(1439,80,o),
(1400,132,o),
(1400,200,qs),
(1400,720,ls),
(1400,781,o),
(1367,866,o),
(1306,917,o),
(1217,940,o),
(1160,940,qs),
(980,940,ls),
(915,940,o),
(818,893,o),
(753,808,o),
(720,690,o),
(720,620,qs),
(720,260,ls),
(720,199,o),
(746,111,o),
(770,80,q),
(700,80,ls),
(665,80,o),
(640,111,o),
(640,140,qs),
(640,680,ls),
(640,798,o),
(549,900,o),
(450,900,qs),
(390,900,o),
(290,846,o),
(219,747,o),
(180,607,o),
(180,520,qs),
(180,336,ls),
(180,271,o),
(203,170,o),
(248,92,o),
(317,30,o),
(363,4,q),
(402,72,l)
);
}
);
};
layerId = m01;
shapes = (
{
closed = 1;
nodes = (
(297,118,o),
(260,198,o),
(260,322,cs),
(260,630,ls),
(260,743,o),
(307,800,o),
(376,800,cs),
(445,800,o),
(460,744,o),
(460,680,cs),
(460,140,ls),
(460,48,o),
(508,0,o),
(600,0,cs),
(980,0,l),
(980,80,l),
(872,80,o),
(800,125,o),
(800,260,cs),
(800,710,ls),
(800,809,o),
(847,860,o),
(940,860,cs),
(1090,860,ls),
(1179,860,o),
(1220,813,o),
(1220,710,cs),
(1220,200,ls),
(1220,57,o),
(1283,-20,o),
(1425,-20,cs),
(1551,-20,o),
(1579,40,o),
(1639,40,cs),
(1699,40,o),
(1716,-20,o),
(1810,-20,cs),
(1922,-20,o),
(1960,65,o),
(1960,220,cs),
(1960,580,ls),
(1960,717,o),
(1950,813,o),
(1864,860,c),
(1920,860,ls),
(2020,860,o),
(2080,817,o),
(2080,700,cs),
(2080,0,l),
(2260,0,l),
(2260,700,ls),
(2260,860,o),
(2174,940,o),
(2020,940,cs),
(1640,940,l),
(1640,860,l),
(1831,860,o),
(1880,785,o),
(1880,580,cs),
(1880,220,ls),
(1880,137,o),
(1860,100,o),
(1820,100,cs),
(1770,100,o),
(1746,160,o),
(1666,160,cs),
(1573,160,o),
(1554,80,o),
(1475,80,cs),
(1425,80,o),
(1400,112,o),
(1400,200,cs),
(1400,710,ls),
(1400,883,o),
(1311,940,o),
(1160,940,cs),
(950,940,ls),
(788,940,o),
(720,842,o),
(720,710,cs),
(720,260,ls),
(720,180,o),
(734,120,o),
(790,80,c),
(700,80,ls),
(653,80,o),
(640,101,o),
(640,140,cs),
(640,680,ls),
(640,835,o),
(568,900,o),
(434,900,cs),
(244,900,o),
(180,770,o),
(180,630,cs),
(180,322,ls),
(180,151,o),
(239,60,o),
(363,-10,c),
(402,58,l)
);
}
);
width = 2440;
}
);
note = uniA993;
unicode = 43411;
},
{
glyphname = "ca-java";
lastChange = "2022-07-24 07:10:29 +0000";
layers = (
{
anchors = (
{
name = bottom;
pos = (1740,0);
},
{
name = top;
pos = (970,940);
},
{
name = topright;
pos = (1740,940);
}
);
background = {
shapes = (
{
closed = 1;
nodes = (
(333,70,o),
(290,118,o),
(267,182,o),
(260,265,o),
(260,320,qs),
(260,660,ls),
(260,715,o),
(283,791,o),
(322,839,o),
(373,860,o),
(400,860,qs),
(440,860,ls),
(494,860,o),
(560,792,o),
(560,720,qs),
(560,446,l),
(499,423,o),
(420,302,o),
(420,200,qs),
(420,90,o),
(514,-20,o),
(590,-20,qs),
(622,-20,o),
(677,1,o),
(717,52,o),
(740,137,o),
(740,200,qs),
(740,365,l),
(797,347,o),
(881,276,o),
(952,190,o),
(1016,100,o),
(1089,27,o),
(1179,-20,o),
(1240,-20,qs),
(1283,-20,o),
(1356,5,o),
(1410,72,o),
(1440,188,o),
(1440,280,qs),
(1440,500,ls),
(1440,635,o),
(1399,810,o),
(1346,860,q),
(1400,860,ls),
(1437,860,o),
(1496,843,o),
(1538,805,o),
(1560,744,o),
(1560,700,qs),
(1560,0,l),
(1740,0,l),
(1740,700,ls),
(1740,762,o),
(1706,853,o),
(1644,912,o),
(1555,940,o),
(1500,940,qs),
(1040,940,l),
(1040,860,l),
(1136,860,o),
(1260,829,o),
(1332,748,o),
(1360,609,o),
(1360,500,qs),
(1360,280,ls),
(1360,221,o),
(1345,144,o),
(1312,99,o),
(1258,80,o),
(1220,80,qs),
(1178,80,o),
(1113,126,o),
(1051,198,o),
(988,285,o),
(908,367,o),
(808,433,o),
(740,449,q),
(740,720,ls),
(740,831,o),
(639,940,o),
(540,940,qs),
(400,940,ls),
(355,940,o),
(275,905,o),
(215,834,o),
(180,729,o),
(180,660,qs),
(180,320,ls),
(180,254,o),
(191,153,o),
(223,73,o),
(281,10,o),
(329,-18,q),
(369,49,l)
);
},
{
closed = 1;
nodes = (
(560,154,o),
(551,120,o),
(540,120,qs),
(524,120,o),
(500,158,o),
(500,200,qs),
(500,260,o),
(531,338,o),
(560,358,q),
(560,200,ls)
);
}
);
};
layerId = m01;
shapes = (
{
closed = 1;
nodes = (
(666,-20,o),
(740,30,o),
(740,200,cs),
(740,740,ls),
(740,869,o),
(682,940,o),
(540,940,cs),
(420,940,ls),
(279,940,o),
(180,863,o),
(180,680,cs),
(180,320,ls),
(180,143,o),
(203,56,o),
(329,-18,c),
(369,49,l),
(274,104,o),
(260,170,o),
(260,320,cs),
(260,680,ls),
(260,814,o),
(319,860,o),
(400,860,cs),
(450,860,ls),
(523,860,o),
(560,822,o),
(560,740,cs),
(560,200,ls),
(560,133,o),
(550,120,o),
(535,120,cs),
(508,120,o),
(500,165,o),
(500,206,cs),
(500,288,o),
(533,373,o),
(662,373,cs),
(940,373,o),
(974,-20,o),
(1244,-20,cs),
(1407,-20,o),
(1440,118,o),
(1440,280,cs),
(1440,500,ls),
(1440,679,o),
(1427,803,o),
(1316,860,c),
(1400,860,ls),
(1500,860,o),
(1560,817,o),
(1560,700,cs),
(1560,0,l),
(1740,0,l),
(1740,700,ls),
(1740,860,o),
(1654,940,o),
(1500,940,cs),
(1040,940,l),
(1040,860,l),
(1295,860,o),
(1360,790,o),
(1360,500,cs),
(1360,280,ls),
(1360,166,o),
(1339,80,o),
(1238,80,cs),
(1033,80,o),
(960,449,o),
(661,449,cs),
(505,449,o),
(420,349,o),
(420,190,cs),
(420,57,o),
(480,-20,o),
(583,-20,cs)
);
}
);
width = 1920;
}
);
note = uniA995;
unicode = 43413;
},
{
glyphname = "caMurda-java";
lastChange = "2022-07-24 07:10:29 +0000";
layers = (
{
anchors = (
{
name = bottom;
pos = (2130,0);
},
{
name = top;
pos = (1247,940);
},
{
name = topright;
pos = (2250,940);
}
);
background = {
shapes = (
{
closed = 1;
nodes = (
(232,833,o),
(196,713,o),
(180,584,o),
(180,520,qs),
(180,260,ls),
(180,198,o),
(209,102,o),
(262,35,o),
(336,0,o),
(380,0,qs),
(480,0,ls),
(520,0,o),
(586,26,o),
(634,79,o),
(660,157,o),
(660,210,qs),
(660,780,ls),
(660,860,o),
(740,860,qs),
(789,860,o),
(840,788,o),
(840,700,qs),
(840,200,ls),
(840,101,o),
(930,0,o),
(1000,0,qs),
(1100,0,ls),
(1180,0,o),
(1270,104,o),
(1270,210,qs),
(1270,780,ls),
(1270,860,o),
(1350,860,qs),
(1399,860,o),
(1450,788,o),
(1450,700,qs),
(1450,200,ls),
(1450,101,o),
(1540,0,o),
(1610,0,qs),
(1710,0,ls),
(1790,0,o),
(1880,104,o),
(1880,210,qs),
(1880,780,ls),
(1880,860,o),
(1960,860,qs),
(2009,860,o),
(2060,788,o),
(2060,700,qs),
(2060,680,ls),
(2060,601,o),
(1994,520,o),
(1940,520,q),
(1940,440,l),
(2016,440,o),
(2100,366,o),
(2100,300,qs),
(2100,220,ls),
(2100,156,o),
(2026,90,o),
(1960,90,q),
(1960,0,l),
(2113,0,o),
(2280,112,o),
(2280,220,qs),
(2280,300,ls),
(2280,361,o),
(2211,458,o),
(2139,487,q),
(2190,519,o),
(2240,617,o),
(2240,680,qs),
(2240,700,ls),
(2240,760,o),
(2212,850,o),
(2163,910,o),
(2097,940,o),
(2060,940,qs),
(1960,940,ls),
(1883,940,o),
(1800,858,o),
(1800,780,qs),
(1800,210,ls),
(1800,146,o),
(1752,80,o),
(1710,80,qs),
(1674,80,o),
(1630,137,o),
(1630,200,qs),
(1630,700,ls),
(1630,760,o),
(1602,850,o),
(1553,910,o),
(1487,940,o),
(1450,940,qs),
(1350,940,ls),
(1273,940,o),
(1190,858,o),
(1190,780,qs),
(1190,210,ls),
(1190,146,o),
(1142,80,o),
(1100,80,qs),
(1064,80,o),
(1020,137,o),
(1020,200,qs),
(1020,700,ls),
(1020,760,o),
(992,850,o),
(943,910,o),
(877,940,o),
(840,940,qs),
(740,940,ls),
(663,940,o),
(580,858,o),
(580,780,qs),
(580,210,ls),
(580,80,o),
(480,80,qs),
(425,80,o),
(360,171,o),
(360,260,qs),
(360,520,ls),
(360,574,o),
(369,691,o),
(387,799,o),
(414,892,o),
(432,922,q),
(330,980,l),
(289,939,o)
);
}
);
};
layerId = m01;
shapes = (
{
closed = 1;
nodes = (
(220,859,o),
(180,710,o),
(180,570,cs),
(180,210,ls),
(180,76,o),
(252,0,o),
(400,0,cs),
(480,0,ls),
(587,0,o),
(660,63,o),
(660,190,cs),
(660,770,ls),
(660,836,o),
(692,860,o),
(752,860,cs),
(820,860,o),
(840,830,o),
(840,770,cs),
(840,175,ls),
(840,58,o),
(907,0,o),
(1000,0,cs),
(1100,0,ls),
(1207,0,o),
(1270,59,o),
(1270,175,cs),
(1270,770,ls),
(1270,836,o),
(1300,860,o),
(1360,860,cs),
(1428,860,o),
(1450,830,o),
(1450,770,cs),
(1450,175,ls),
(1450,58,o),
(1517,0,o),
(1610,0,cs),
(1710,0,ls),
(1817,0,o),
(1880,59,o),
(1880,175,cs),
(1880,760,ls),
(1880,830,o),
(1913,860,o),
(1977,860,cs),
(2042,860,o),
(2070,829,o),
(2070,743,cs),
(2070,663,ls),
(2070,577,o),
(2018,532,o),
(1940,532,c),
(1940,452,l),
(2061,452,o),
(2100,407,o),
(2100,332,cs),
(2100,200,ls),
(2100,128,o),
(2048,90,o),
(1960,90,c),
(1960,0,l),
(2164,0,o),
(2280,69,o),
(2280,200,cs),
(2280,322,ls),
(2280,413,o),
(2245,487,o),
(2102,512,c),
(2113,482,l),
(2227,518,o),
(2250,596,o),
(2250,690,cs),
(2250,730,ls),
(2250,871,o),
(2198,940,o),
(2052,940,cs),
(1982,940,ls),
(1861,940,o),
(1800,877,o),
(1800,760,cs),
(1800,175,ls),
(1800,114,o),
(1767,80,o),
(1713,80,cs),
(1663,80,o),
(1630,107,o),
(1630,175,cs),
(1630,770,ls),
(1630,880,o),
(1559,940,o),
(1450,940,cs),
(1350,940,ls),
(1247,940,o),
(1190,884,o),
(1190,770,cs),
(1190,175,ls),
(1190,114,o),
(1156,80,o),
(1100,80,cs),
(1052,80,o),
(1020,107,o),
(1020,175,cs),
(1020,770,ls),
(1020,880,o),
(949,940,o),
(840,940,cs),
(740,940,ls),
(637,940,o),
(580,876,o),
(580,770,cs),
(580,190,ls),
(580,114,o),
(556,80,o),
(478,80,cs),
(396,80,o),
(360,118,o),
(360,190,cs),
(360,570,ls),
(360,681,o),
(383,826,o),
(437,892,c),
(335,950,l)
);
}
);
width = 2440;
}
);
note = uniA996;
unicode = 43414;
},
{
glyphname = "ja-java";
lastChange = "2022-07-24 07:10:29 +0000";
layers = (
{
anchors = (
{
name = bottom;
pos = (1760,0);
},
{
name = cerek;
pos = (1018,0);
},
{
name = top;
pos = (943,940);
},
{
name = topright;
pos = (1790,940);
}
);
background = {
shapes = (
{
closed = 1;
nodes = (
(353,70,o),
(304,114,o),
(274,168,o),
(260,236,o),
(260,280,qs),
(260,660,ls),
(260,710,o),
(282,785,o),
(317,835,o),
(360,860,o),
(380,860,qs),
(393,860,o),
(415,852,o),
(431,830,o),
(440,791,o),
(440,760,qs),
(440,220,ls),
(440,107,o),
(541,0,o),
(640,0,qs),
(1260,0,l),
(1260,80,l),
(1177,80,o),
(1038,101,o),
(937,152,o),
(880,237,o),
(880,300,qs),
(880,360,l),
(950,360,o),
(1102,330,o),
(1250,277,o),
(1386,207,o),
(1495,127,o),
(1568,41,o),
(1580,0,q),
(1760,0,l),
(1749,36,o),
(1686,128,o),
(1581,224,o),
(1436,317,o),
(1252,391,o),
(1030,437,o),
(901,439,q),
(959,491,o),
(1136,585,o),
(1369,657,o),
(1655,700,o),
(1820,700,q),
(1788,748,o),
(1699,835,o),
(1573,901,o),
(1403,940,o),
(1290,940,qs),
(1168,940,o),
(985,871,o),
(862,754,o),
(800,602,o),
(800,520,qs),
(800,300,ls),
(800,224,o),
(855,116,o),
(906,80,q),
(740,80,ls),
(683,80,o),
(620,142,o),
(620,220,qs),
(620,760,ls),
(620,809,o),
(599,878,o),
(561,921,o),
(510,940,o),
(480,940,qs),
(380,940,ls),
(344,940,o),
(272,904,o),
(215,833,o),
(180,728,o),
(180,660,qs),
(180,280,ls),
(180,222,o),
(197,135,o),
(237,66,o),
(301,10,o),
(349,-18,q),
(389,49,l)
);
},
{
closed = 1;
nodes = (
(939,702,o),
(1034,790,o),
(1163,840,o),
(1240,840,qs),
(1338,840,o),
(1467,794,o),
(1509,763,q),
(1413,749,o),
(1233,702,o),
(1072,638,o),
(934,559,o),
(880,515,q),
(883,583,o)
);
}
);
};
layerId = m01;
shapes = (
{
closed = 1;
nodes = (
(369,49,l),
(284,91,o),
(260,161,o),
(260,280,cs),
(260,660,ls),
(260,803,o),
(302,860,o),
(374,860,cs),
(413,860,o),
(440,843,o),
(440,760,cs),
(440,220,ls),
(440,69,o),
(518,0,o),
(670,0,cs),
(1260,0,l),
(1260,80,l),
(1017,80,o),
(880,115,o),
(880,302,cs),
(880,370,l),
(1256,370,o),
(1521,238,o),
(1580,0,c),
(1760,0,l),
(1680,305,o),
(1319,435,o),
(901,435,c),
(1131,638,o),
(1514,700,o),
(1820,700,c),
(1724,842,o),
(1575,940,o),
(1309,940,cs),
(943,940,o),
(800,754,o),
(800,510,cs),
(800,300,ls),
(800,189,o),
(826,123,o),
(906,80,c),
(740,80,ls),
(654,80,o),
(620,116,o),
(620,220,cs),
(620,760,ls),
(620,889,o),
(555,940,o),
(444,940,cs),
(396,940,ls),
(281,940,o),
(180,854,o),
(180,660,cs),
(180,280,ls),
(180,125,o),
(217,44,o),
(329,-18,c)
);
},
{
closed = 1;
nodes = (
(880,715,o),
(1007,840,o),
(1237,840,cs),
(1355,840,o),
(1448,807,o),
(1509,763,c),
(1255,725,o),
(1031,636,o),
(880,496,c)
);
}
);
width = 1920;
}
);
note = uniA997;
unicode = 43415;
},
{
glyphname = "jaMahaprana-java.base";
lastChange = "2022-07-24 07:10:29 +0000";
layers = (
{
anchors = (
{
name = bottom;
pos = (2695,0);
},
{
name = top;
pos = (1070,940);
},
{
name = topright;
pos = (1728,940);
}
);
background = {
shapes = (
{
ref = _cmpnga1;
},
{
ref = _cmpjha;
}
);
};
layerId = m01;
shapes = (
{
closed = 1;
nodes = (
(1035,-2000,o),
(1153,-1900,o),
(1347,-1900,cs),
(1541,-1900,o),
(1710,-2000,o),
(1918,-2000,cs),
(2156,-2000,o),
(2294,-1868,o),
(2294,-1620,cs),
(2294,750,ls),
(2294,1034,o),
(2152,1120,o),
(2022,1120,cs),
(1907,1120,o),
(1854,1052,o),
(1854,976,cs),
(1854,660,o),
(2511,642,o),
(2514,167,cs),
(2515,0,l),
(2695,0,l),
(2695,167,ls),
(2695,670,o),
(1954,767,o),
(1954,982,cs),
(1954,1010,o),
(1975,1040,o),
(2034,1040,cs),
(2166,1040,o),
(2214,888,o),
(2214,736,cs),
(2214,-1620,ls),
(2214,-1808,o),
(2127,-1920,o),
(1917,-1920,cs),
(1718,-1920,o),
(1544,-1820,o),
(1349,-1820,cs),
(1154,-1820,o),
(1044,-1920,o),
(822,-1920,cs),
(552,-1920,o),
(394,-1771,o),
(394,-1511,cs),
(394,-742,o),
(1774,-865,o),
(1774,-180,cs),
(1774,640,ls),
(1774,826,o),
(1704,940,o),
(1514,940,cs),
(1394,940,ls),
(1308,940,o),
(1245,917,o),
(1203,845,c),
(1162,912,o),
(1090,940,o),
(990,940,cs),
(866,940,o),
(804,897,o),
(804,819,cs),
(804,759,o),
(840,711,o),
(940,676,c),
(966,746,l),
(928,759,o),
(894,783,o),
(894,815,cs),
(894,845,o),
(923,860,o),
(977,860,cs),
(1089,860,o),
(1154,797,o),
(1154,680,c),
(1234,680,l),
(1234,795,o),
(1284,860,o),
(1384,860,cs),
(1444,860,ls),
(1547,860,o),
(1594,805,o),
(1594,640,cs),
(1594,-180,ls),
(1594,-851,o),
(214,-722,o),
(214,-1495,cs),
(214,-1825,o),
(466,-2000,o),
(790,-2000,cs)
);
},
{
closed = 1;
nodes = (
(369,49,l),
(280,98,o),
(260,161,o),
(260,280,cs),
(260,690,ls),
(260,813,o),
(316,860,o),
(380,860,cs),
(419,860,o),
(440,843,o),
(440,760,cs),
(440,220,ls),
(440,69,o),
(508,0,o),
(640,0,cs),
(1300,0,l),
(1300,80,l),
(1026,80,o),
(984,240,o),
(740,240,c),
(740,160,l),
(857,160,o),
(914,114,o),
(1011,80,c),
(740,80,ls),
(664,80,o),
(620,116,o),
(620,220,cs),
(620,760,ls),
(620,889,o),
(572,940,o),
(459,940,cs),
(393,940,ls),
(282,940,o),
(180,854,o),
(180,690,cs),
(180,280,ls),
(180,123,o),
(214,51,o),
(329,-18,c)
);
}
);
width = 2834;
}
);
note = uniA999;
},
{
glyphname = "dda-java";
lastChange = "2022-07-24 07:10:29 +0000";
layers = (
{
anchors = (
{
name = bottom;
pos = (1740,0);
},
{
name = top;
pos = (960,940);
},
{
name = topright;
pos = (1740,940);
}
);
background = {
shapes = (
{
closed = 1;
nodes = (
(333,70,o),
(290,118,o),
(267,182,o),
(260,265,o),
(260,320,qs),
(260,520,ls),
(260,619,o),
(292,750,o),
(354,828,o),
(443,860,o),
(500,860,qs),
(557,860,l),
(525,833,o),
(480,759,o),
(452,657,o),
(440,525,o),
(440,440,qs),
(440,240,ls),
(440,119,o),
(555,0,o),
(660,0,qs),
(717,0,o),
(793,36,o),
(842,89,o),
(870,151,o),
(890,204,o),
(907,240,o),
(920,240,qs),
(932,240,o),
(949,204,o),
(969,151,o),
(998,89,o),
(1048,36,o),
(1123,0,o),
(1180,0,qs),
(1226,0,o),
(1301,31,o),
(1352,102,o),
(1380,216,o),
(1380,300,qs),
(1380,780,ls),
(1380,860,o),
(1460,860,qs),
(1509,860,o),
(1560,788,o),
(1560,700,qs),
(1560,0,l),
(1740,0,l),
(1740,700,ls),
(1740,760,o),
(1712,850,o),
(1663,910,o),
(1597,940,o),
(1560,940,qs),
(1460,940,ls),
(1383,940,o),
(1300,858,o),
(1300,780,qs),
(1300,300,ls),
(1300,235,o),
(1284,151,o),
(1257,100,o),
(1220,80,o),
(1200,80,qs),
(1165,80,o),
(1121,127,o),
(1088,199,o),
(1061,281,o),
(1027,353,o),
(978,400,o),
(940,400,qs),
(906,400,o),
(863,353,o),
(832,281,o),
(808,199,o),
(777,127,o),
(734,80,o),
(700,80,qs),
(680,80,o),
(650,95,o),
(630,131,o),
(620,193,o),
(620,240,qs),
(620,440,ls),
(620,540,o),
(635,676,o),
(665,770,o),
(710,833,o),
(740,860,q),
(740,940,l),
(500,940,ls),
(427,940,o),
(309,896,o),
(225,797,o),
(180,637,o),
(180,520,qs),
(180,320,ls),
(180,254,o),
(191,153,o),
(223,73,o),
(281,10,o),
(329,-18,q),
(369,49,l)
);
}
);
};
layerId = m01;
shapes = (
{
closed = 1;
nodes = (
(369,49,l),
(274,104,o),
(260,170,o),
(260,320,cs),
(260,620,ls),
(260,758,o),
(301,860,o),
(500,860,cs),
(557,860,l),
(472,809,o),
(440,733,o),
(440,570,cs),
(440,240,ls),
(440,136,o),
(472,0,o),
(651,0,cs),
(878,0,o),
(857,240,o),
(918,240,cs),
(979,240,o),
(965,0,o),
(1180,0,cs),
(1342,0,o),
(1380,138,o),
(1380,300,cs),
(1380,760,ls),
(1380,837,o),
(1412,860,o),
(1470,860,cs),
(1540,860,o),
(1560,826,o),
(1560,760,cs),
(1560,0,l),
(1740,0,l),
(1740,760,ls),
(1740,869,o),
(1689,940,o),
(1560,940,cs),
(1470,940,ls),
(1361,940,o),
(1300,890,o),
(1300,760,cs),
(1300,300,ls),
(1300,189,o),
(1282,80,o),
(1205,80,cs),
(1074,80,o),
(1092,400,o),
(944,400,cs),
(797,400,o),
(842,80,o),
(697,80,cs),
(646,80,o),
(620,119,o),
(620,240,cs),
(620,570,ls),
(620,759,o),
(660,809,o),
(740,860,c),
(740,940,l),
(500,940,ls),
(256,940,o),
(180,806,o),
(180,620,cs),
(180,320,ls),
(180,143,o),
(203,56,o),
(329,-18,c)
);
}
);
width = 1920;
}
);
note = uniA99D;
unicode = 43421;
},
{
glyphname = "ddaMahaprana-java";
lastChange = "2022-07-24 07:37:24 +0000";
layers = (
{
anchors = (
{
name = bottom;
pos = (1760,0);
},
{
name = top;
pos = (960,940);
},
{
name = topright;
pos = (1740,940);
}
);
background = {
shapes = (
{
ref = "wa-java";
}
);
};
layerId = m01;
shapes = (
{
closed = 1;
nodes = (
(952,-20,o),
(954,220,o),
(1062,220,cs),
(1170,220,o),
(1200,-20,o),
(1458,-20,cs),
(1714,-20,o),
(1760,217,o),
(1760,433,cs),
(1760,740,o),
(1667,940,o),
(1380,940,c),
(1380,869,l),
(1615,869,o),
(1680,693,o),
(1680,435,cs),
(1680,275,o),
(1655,69,o),
(1512,69,cs),
(1336,69,o),
(1270,380,o),
(1096,380,cs),
(920,380,o),
(912,60,o),
(729,60,cs),
(654,60,o),
(620,113,o),
(620,240,cs),
(620,590,ls),
(620,766,o),
(660,813,o),
(740,860,c),
(740,940,l),
(500,940,ls),
(256,940,o),
(180,806,o),
(180,620,cs),
(180,320,ls),
(180,143,o),
(203,56,o),
(329,-18,c),
(369,49,l),
(274,104,o),
(260,170,o),
(260,320,cs),
(260,620,ls),
(260,758,o),
(301,860,o),
(500,860,cs),
(557,860,l),
(472,813,o),
(440,742,o),
(440,590,cs),
(440,240,ls),
(440,82,o),
(516,-20,o),
(688,-20,cs)
);
}
);
width = 1920;
},
{
associatedMasterId = m01;
background = {
shapes = (
{
closed = 1;
nodes = (
(274.043,104.392,o),
(260,168.915,o),
(260,320,cs),
(260,520,ls),
(260,652,o),
(281.667,737,o),
(323,789,cs),
(364.333,841,o),
(424,860,o),
(500,860,cs),
(557,860,l),
(471.548,787.9,o),
(440,670.185,o),
(440,440,cs),
(440,240,ls),
(440,72,o),
(536,-20,o),
(700,-20,cs),
(820.786,-20,o),
(894.799,42.907,o),
(939,100,cs),
(985.727,160.355,o),
(1018.064,220,o),
(1060,220,cs),
(1092.759,220,o),
(1137.041,159.891,o),
(1195,100,cs),
(1256.421,36.532,o),
(1345.486,-20,o),
(1460,-20,cs),
(1566.667,-20,o),
(1642,19.167,o),
(1690,98.5,cs),
(1738,177.833,o),
(1760,297.333,o),
(1760,460,cs),
(1760,632,o),
(1722.667,752.833,o),
(1656,829.5,cs),
(1589.333,906.167,o),
(1494.667,940,o),
(1380,940,c),
(1380,860,l),
(1476,860,o),
(1551.333,830.333,o),
(1602,765,cs),
(1652.667,699.667,o),
(1680,600,o),
(1680,460,cs),
(1680,313.333,o),
(1663.5,213.833,o),
(1629.5,150.5,cs),
(1595.5,87.167,o),
(1545.333,60,o),
(1480,60,cs),
(1401.912,60,o),
(1337.793,136.916,o),
(1277,220,cs),
(1214.91,304.856,o),
(1151.554,380,o),
(1080,380,cs),
(1014.68,380,o),
(967.722,304.941,o),
(918,220,cs),
(867.973,134.537,o),
(814.505,60,o),
(740,60,cs),
(662.667,60,o),
(620,109.333,o),
(620,240,cs),
(620,440,ls),
(620,706.667,o),
(660,788,o),
(740,860,c),
(740,940,l),
(500,940,ls),
(402.667,940,o),
(323,912.5,o),
(267,846.5,cs),
(211,780.5,o),
(180,676,o),
(180,520,cs),
(180,320,ls),
(180,144.146,o),
(202.818,55.606,o),
(329,-18,c),
(369,49,l),
(369,49,l)
);
}
);
};
layerId = "A5C568BB-7911-4C9B-A66D-B56275CA10F9";
name = "30 May 21 21.23";
shapes = (
{
closed = 1;
nodes = (
(948,-20,o),
(964,220,o),
(1061,220,cs),
(1157,220,o),
(1233,-20,o),
(1471,-20,cs),
(1714,-20,o),
(1760,229,o),
(1760,439,cs),
(1760,740,o),
(1666,940,o),
(1380,940,c),
(1380,865,l),
(1613,865,o),
(1680,691,o),
(1680,448,cs),
(1680,320,o),
(1661,60,o),
(1500,60,cs),
(1321,60,o),
(1262,380,o),
(1097,380,cs),
(932,380,o),
(910,60,o),
(731,60,cs),
(659,60,o),
(620,112,o),
(620,240,cs),
(620,570,ls),
(620,759,o),
(660,809,o),
(740,860,c),
(740,940,l),
(500,940,ls),
(256,940,o),
(180,806,o),
(180,620,cs),
(180,320,ls),
(180,143,o),
(203,56,o),
(329,-18,c),
(369,49,l),
(274,104,o),
(260,170,o),
(260,320,cs),
(260,620,ls),
(260,758,o),
(301,860,o),
(500,860,cs),
(557,860,l),
(472,809,o),
(440,733,o),
(440,570,cs),
(440,240,ls),
(440,103,o),
(513,-20,o),
(694,-20,cs)
);
}
);
width = 1920;
}
);
note = uniA99E;
unicode = 43422;
},
{
glyphname = "naMurda-java";
lastChange = "2022-07-24 07:10:29 +0000";
layers = (
{
anchors = (
{
name = bottom;
pos = (2894,0);
},
{
name = top;
pos = (1520,940);
},
{
name = topright;
pos = (2894,940);
}
);
background = {
shapes = (
{
closed = 1;
nodes = (
(360,128.333,o),
(314.5,151.833,o),
(284.5,200.5,cs),
(254.5,249.167,o),
(240,324,o),
(240,440,cs),
(240,685.687,o),
(327.495,780,o),
(440,780,cs),
(526.822,780,o),
(580,721.953,o),
(580,580,cs),
(580,140,ls),
(580,44,o),
(627.333,0,o),
(710,0,cs),
(810,0,ls),
(875.806,0,o),
(940,28.806,o),
(940,140,cs),
(940,720,ls),
(940,821.333,o),
(970.667,860,o),
(1060,860,cs),
(1140,860,ls),
(1226.667,860,o),
(1280,804,o),
(1280,700,cs),
(1280,140,ls),
(1280,44,o),
(1327.333,0,o),
(1410,0,cs),
(1510,0,ls),
(1575.806,0,o),
(1640,28.806,o),
(1640,140,cs),
(1640,720,ls),
(1640,821.333,o),
(1670.667,860,o),
(1760,860,cs),
(1840,860,ls),
(1926.667,860,o),
(1980,804,o),
(1980,700,cs),
(1980,140,ls),
(1980,44,o),
(2027.333,0,o),
(2110,0,cs),
(2210,0,ls),
(2275.806,0,o),
(2340,28.806,o),
(2340,140,cs),
(2340,720,ls),
(2340,821.333,o),
(2370.667,860,o),
(2460,860,cs),
(2540,860,ls),
(2626.667,860,o),
(2680,804,o),
(2680,700,cs),
(2680,0,l),
(2860,0,l),
(2860,700,ls),
(2860,820.929,o),
(2804.644,940,o),
(2640,940,cs),
(2460,940,ls),
(2317.333,940,o),
(2260,869.333,o),
(2260,720,cs),
(2260,140,ls),
(2260,104,o),
(2248.667,80,o),
(2210,80,cs),
(2170,80,o),
(2160,97.333,o),
(2160,140,cs),
(2160,700,ls),
(2160,820.929,o),
(2104.644,940,o),
(1940,940,cs),
(1760,940,ls),
(1617.333,940,o),
(1560,869.333,o),
(1560,720,cs),
(1560,140,ls),
(1560,104,o),
(1548.667,80,o),
(1510,80,cs),
(1470,80,o),
(1460,97.333,o),
(1460,140,cs),
(1460,700,ls),
(1460,820.929,o),
(1404.644,940,o),
(1240,940,cs),
(1060,940,ls),
(917.333,940,o),
(860,869.333,o),
(860,720,cs),
(860,140,ls),
(860,104,o),
(848.667,80,o),
(810,80,cs),
(770,80,o),
(760,97.333,o),
(760,140,cs),
(760,580,ls),
(760,779.514,o),
(686.418,880,o),
(490,880,cs),
(374,880,o),
(292.5,836.167,o),
(238.5,759.5,cs),
(184.5,682.833,o),
(160,572,o),
(160,440,cs),
(160,317.333,o),
(176.333,224.5,o),
(215,158.5,cs),
(253.667,92.5,o),
(315.333,53,o),
(406,37,c),
(420,115,l),
(420,115,l)
);
}
);
};
layerId = m01;
shapes = (
{
closed = 1;
nodes = (
(804,0,ls),
(875,0,o),
(944,29,o),
(944,140,cs),
(944,730,ls),
(944,826,o),
(976,860,o),
(1066,860,cs),
(1164,860,ls),
(1264,860,o),
(1294,811,o),
(1294,730,cs),
(1294,140,ls),
(1294,44,o),
(1348,0,o),
(1444,0,cs),
(1524,0,ls),
(1590,0,o),
(1654,29,o),
(1654,140,cs),
(1654,730,ls),
(1654,826,o),
(1686,860,o),
(1776,860,cs),
(1874,860,ls),
(1974,860,o),
(2004,811,o),
(2004,730,cs),
(2004,140,ls),
(2004,44,o),
(2058,0,o),
(2154,0,cs),
(2234,0,ls),
(2300,0,o),
(2364,29,o),
(2364,140,cs),
(2364,730,ls),
(2364,826,o),
(2396,860,o),
(2486,860,cs),
(2584,860,ls),
(2684,860,o),
(2714,811,o),
(2714,730,cs),
(2714,0,l),
(2894,0,l),
(2894,730,ls),
(2894,840,o),
(2862,940,o),
(2674,940,cs),
(2486,940,ls),
(2352,940,o),
(2284,873,o),
(2284,730,cs),
(2284,140,ls),
(2284,103,o),
(2273,80,o),
(2231,80,cs),
(2194,80,o),
(2184,98,o),
(2184,140,cs),
(2184,730,ls),
(2184,840,o),
(2152,940,o),
(1964,940,cs),
(1776,940,ls),
(1642,940,o),
(1574,873,o),
(1574,730,cs),
(1574,140,ls),
(1574,103,o),
(1563,80,o),
(1521,80,cs),
(1484,80,o),
(1474,98,o),
(1474,140,cs),
(1474,730,ls),
(1474,840,o),
(1442,940,o),
(1254,940,cs),
(1066,940,ls),
(932,940,o),
(864,873,o),
(864,730,cs),
(864,140,ls),
(864,103,o),
(853,80,o),
(811,80,cs),
(774,80,o),
(764,98,o),
(764,140,cs),
(764,580,ls),
(764,771,o),
(709,880,o),
(505,880,cs),
(246,880,o),
(160,703,o),
(160,432,cs),
(160,248,o),
(199,72,o),
(406,37,c),
(425,106,l),
(261,140,o),
(240,289,o),
(240,434,cs),
(240,695,o),
(310,780,o),
(447,780,cs),
(561,780,o),
(584,724,o),
(584,590,cs),
(584,140,ls),
(584,44,o),
(638,0,o),
(734,0,cs)
);
}
);
width = 3074;
}
);
note = uniA99F;
unicode = 43423;
},
{
glyphname = "ta-java";
lastChange = "2022-07-24 07:10:29 +0000";
layers = (
{
anchors = (
{
name = bottom;
pos = (2260,0);
},
{
name = top;
pos = (1220,940);
},
{
name = topright;
pos = (2260,940);
}
);
background = {
shapes = (
{
closed = 1;
nodes = (
(353,70,o),
(304,114,o),
(274,168,o),
(260,236,o),
(260,280,qs),
(260,660,ls),
(260,710,o),
(282,785,o),
(317,835,o),
(360,860,o),
(380,860,qs),
(393,860,o),
(415,852,o),
(431,830,o),
(440,791,o),
(440,760,qs),
(440,220,ls),
(440,107,o),
(541,0,o),
(640,0,qs),
(1000,0,ls),
(1086,0,o),
(1160,75,o),
(1160,160,qs),
(1160,360,ls),
(1160,432,o),
(1095,500,o),
(1020,500,qs),
(900,500,ls),
(840,500,o),
(840,580,qs),
(840,740,ls),
(840,800,o),
(895,860,o),
(940,860,qs),
(1220,860,ls),
(1283,860,o),
(1373,835,o),
(1432,775,o),
(1460,675,o),
(1460,600,qs),
(1460,140,ls),
(1460,68,o),
(1528,0,o),
(1590,0,qs),
(1690,0,ls),
(1714,0,o),
(1761,12,o),
(1797,43,o),
(1820,98,o),
(1820,140,qs),
(1820,580,ls),
(1820,686,o),
(1804,819,o),
(1790,860,q),
(1920,860,ls),
(1961,860,o),
(2021,837,o),
(2061,784,o),
(2080,700,o),
(2080,640,qs),
(2080,0,l),
(2260,0,l),
(2260,640,ls),
(2260,722,o),
(2233,836,o),
(2175,908,o),
(2084,940,o),
(2020,940,qs),
(1634,940,l),
(1659,919,o),
(1699,866,o),
(1726,785,o),
(1740,667,o),
(1740,580,qs),
(1740,140,ls),
(1740,113,o),
(1719,80,o),
(1690,80,qs),
(1660,80,o),
(1640,108,o),
(1640,140,qs),
(1640,600,ls),
(1640,773,o),
(1488,940,o),
(1320,940,qs),
(940,940,ls),
(855,940,o),
(760,840,o),
(760,740,qs),
(760,580,ls),
(760,494,o),
(831,420,o),
(900,420,qs),
(1020,420,ls),
(1048,420,o),
(1080,389,o),
(1080,360,qs),
(1080,160,ls),
(1080,122,o),
(1042,80,o),
(1000,80,qs),
(740,80,ls),
(683,80,o),
(620,142,o),
(620,220,qs),
(620,760,ls),
(620,809,o),
(599,878,o),
(561,921,o),
(510,940,o),
(480,940,qs),
(380,940,ls),
(344,940,o),
(272,904,o),
(215,833,o),
(180,728,o),
(180,660,qs),
(180,280,ls),
(180,222,o),
(197,135,o),
(237,66,o),
(301,10,o),
(349,-18,q),
(389,49,l)
);
}
);
};
layerId = m01;
shapes = (
{
closed = 1;
nodes = (
(369,49,l),
(274,102,o),
(260,164,o),
(260,310,cs),
(260,678,ls),
(260,804,o),
(302,860,o),
(373,860,cs),
(420,860,o),
(440,836,o),
(440,740,cs),
(440,220,ls),
(440,69,o),
(518,0,o),
(670,0,cs),
(1010,0,ls),
(1146,0,o),
(1200,56,o),
(1200,190,cs),
(1200,340,ls),
(1200,450,o),
(1157,500,o),
(1050,500,cs),
(920,500,ls),
(867,500,o),
(840,527,o),
(840,580,cs),
(840,670,ls),
(840,797,o),
(904,860,o),
(1050,860,cs),
(1320,860,ls),
(1445,860,o),
(1500,814,o),
(1500,660,cs),
(1500,140,ls),
(1500,44,o),
(1547,0,o),
(1630,0,cs),
(1730,0,ls),
(1796,0,o),
(1860,29,o),
(1860,140,cs),
(1860,640,ls),
(1860,749,o),
(1852,815,o),
(1834,860,c),
(1940,860,ls),
(2036,860,o),
(2080,816,o),
(2080,685,cs),
(2080,0,l),
(2260,0,l),
(2260,685,ls),
(2260,869,o),
(2187,940,o),
(2010,940,cs),
(1681,940,l),
(1753,877,o),
(1780,809,o),
(1780,640,cs),
(1780,140,ls),
(1780,103,o),
(1769,80,o),
(1727,80,cs),
(1690,80,o),
(1680,98,o),
(1680,140,cs),
(1680,660,ls),
(1680,850,o),
(1587,940,o),
(1370,940,cs),
(1050,940,ls),
(867,940,o),
(760,850,o),
(760,670,cs),
(760,570,ls),
(760,462,o),
(812,420,o),
(910,420,cs),
(1040,420,ls),
(1091,420,o),
(1120,391,o),
(1120,330,cs),
(1120,180,ls),
(1120,116,o),
(1090,80,o),
(1020,80,cs),
(750,80,ls),
(664,80,o),
(620,113,o),
(620,210,cs),
(620,740,ls),
(620,862,o),
(576,940,o),
(427,940,cs),
(241,940,o),
(180,819,o),
(180,678,cs),
(180,310,ls),
(180,139,o),
(203,53,o),
(329,-18,c)
);
}
);
width = 2440;
}
);
note = uniA9A0;
unicode = 43424;
},
{
glyphname = "taMurda-java";
lastChange = "2022-07-24 07:10:29 +0000";
layers = (
{
background = {
shapes = (
{
closed = 1;
nodes = (
(333,70,o),
(290,118,o),
(267,182,o),
(260,265,o),
(260,320,qs),
(260,520,ls),
(260,619,o),
(292,750,o),
(354,828,o),
(443,860,o),
(500,860,qs),
(557,860,l),
(525,833,o),
(480,759,o),
(452,657,o),
(440,525,o),
(440,440,qs),
(440,280,ls),
(440,135,o),
(573,0,o),
(700,0,qs),
(890,0,l),
(885,-30,o),
(880,-99,o),
(880,-140,qs),
(880,-212,o),
(952,-280,o),
(1020,-280,qs),
(1056,-280,o),
(1114,-265,o),
(1165,-231,o),
(1210,-176,o),
(1232,-136,q),
(1164,-97,l),
(1130,-156,o),
(1083,-200,o),
(1060,-200,qs),
(1043,-200,o),
(1020,-175,o),
(1020,-140,qs),
(1020,-100,o),
(1025,-31,o),
(1029,0,q),
(1130,0,ls),
(1257,0,o),
(1390,137,o),
(1390,280,qs),
(1390,580,ls),
(1390,679,o),
(1347,816,o),
(1300,860,q),
(1380,860,ls),
(1469,860,o),
(1560,770,o),
(1560,700,qs),
(1560,0,l),
(1740,0,l),
(1740,700,ls),
(1740,757,o),
(1711,846,o),
(1648,907,o),
(1550,940,o),
(1480,940,qs),
(1020,940,l),
(1020,860,l),
(1096,860,o),
(1205,830,o),
(1276,764,o),
(1310,657,o),
(1310,580,qs),
(1310,280,ls),
(1310,175,o),
(1224,80,o),
(1130,80,qs),
(1042,80,l),
(1050,120,o),
(1060,197,o),
(1060,240,qs),
(1060,380,o),
(900,380,qs),
(834,380,o),
(738,318,o),
(713,270,q),
(752,223,l),
(789,254,o),
(834,280,o),
(860,280,qs),
(889,280,o),
(920,252,o),
(920,220,qs),
(920,182,o),
(911,115,o),
(904,80,q),
(800,80,ls),
(706,80,o),
(620,173,o),
(620,280,qs),
(620,440,ls),
(620,540,o),
(635,676,o),
(665,770,o),
(710,833,o),
(740,860,q),
(740,940,l),
(500,940,ls),
(427,940,o),
(309,896,o),
(225,797,o),
(180,637,o),
(180,520,qs),
(180,320,ls),
(180,254,o),
(191,153,o),
(223,73,o),
(281,10,o),
(329,-18,q),
(369,49,l)
);
}
);
};
layerId = m01;
shapes = (
{
closed = 1;
nodes = (
(920,86,o),
(880,10,o),
(880,-110,cs),
(880,-236,o),
(924,-280,o),
(1014,-280,cs),
(1109,-280,o),
(1156,-230,o),
(1210,-128,c),
(1164,-97,l),
(1139,-140,o),
(1105,-200,o),
(1058,-200,cs),
(1031,-200,o),
(1020,-181,o),
(1020,-111,cs),
(1020,22,o),
(1060,120,o),
(1060,222,cs),
(1060,333,o),
(1012,380,o),
(908,380,cs),
(809,380,o),
(749,337,o),
(713,270,c),
(752,223,l),
(801,264,o),
(824,280,o),
(863,280,cs),
(902,280,o),
(920,264,o),
(920,193,cs)
);
},
{
ref = "wa-java";
}
);
width = 1920;
}
);
note = uniA9A1;
unicode = 43425;
},
{
glyphname = "da-java";
lastChange = "2022-07-24 07:10:29 +0000";
layers = (
{
anchors = (
{
name = bottom;
pos = (1740,0);
},
{
name = top;
pos = (960,940);
},
{
name = topright;
pos = (1740,940);
}
);
background = {
shapes = (
{
closed = 1;
nodes = (
(333,70,o),
(290,118,o),
(267,182,o),
(260,265,o),
(260,320,qs),
(260,520,ls),
(260,619,o),
(292,750,o),
(354,828,o),
(443,860,o),
(500,860,qs),
(557,860,l),
(525,833,o),
(480,759,o),
(452,657,o),
(440,525,o),
(440,440,qs),
(440,240,ls),
(440,171,o),
(475,73,o),
(538,10,o),
(626,-20,o),
(680,-20,qs),
(752,-20,o),
(837,13,o),
(886,61,o),
(910,119,o),
(933,167,o),
(967,200,o),
(1000,200,qs),
(1010,200,o),
(1015,199,q),
(1028,146,o),
(1074,64,o),
(1135,8,o),
(1209,-20,o),
(1250,-20,qs),
(1340,-20,o),
(1340,20,qs),
(1340,69,o),
(1295,151,o),
(1222,216,o),
(1130,260,o),
(1084,271,q),
(1082,288,o),
(1080,321,o),
(1080,340,qs),
(1080,680,ls),
(1080,768,o),
(1147,860,o),
(1220,860,qs),
(1380,860,ls),
(1472,860,o),
(1560,768,o),
(1560,680,qs),
(1560,0,l),
(1740,0,l),
(1740,680,ls),
(1740,812,o),
(1614,940,o),
(1480,940,qs),
(1220,940,ls),
(1108,940,o),
(1000,801,o),
(1000,680,qs),
(1000,340,ls),
(1000,324,o),
(1001,294,o),
(1002,280,q),
(950,279,o),
(891,245,o),
(857,196,o),
(836,140,o),
(808,92,o),
(762,60,o),
(720,60,qs),
(698,60,o),
(661,79,o),
(635,121,o),
(620,190,o),
(620,240,qs),
(620,440,ls),
(620,540,o),
(635,676,o),
(665,770,o),
(710,833,o),
(740,860,q),
(740,940,l),
(500,940,ls),
(427,940,o),
(309,896,o),
(225,797,o),
(180,637,o),
(180,520,qs),
(180,320,ls),
(180,254,o),
(191,153,o),
(223,73,o),
(281,10,o),
(329,-18,q),
(369,49,l)
);
},
{
closed = 1;
nodes = (
(1169,148,o),
(1210,118,o),
(1239,81,o),
(1240,60,q),
(1205,60,o),
(1133,119,o),
(1109,177,q),
(1124,171,o)
);
}
);
};
layerId = m01;
shapes = (
{
closed = 1;
nodes = (
(620,240,l),
(620,595,ls),
(620,766,o),
(660,813,o),
(740,860,c),
(740,940,l),
(500,940,ls),
(256,940,o),
(180,806,o),
(180,620,cs),
(180,320,ls),
(180,143,o),
(203,56,o),
(329,-18,c),
(369,49,l),
(274,104,o),
(260,170,o),
(260,320,cs),
(260,620,ls),
(260,758,o),
(301,860,o),
(500,860,cs),
(557,860,l),
(472,813,o),
(440,742,o),
(440,595,cs),
(440,240,l)
);
},
{
closed = 1;
nodes = (
(1224,189,o),
(1224,122,cs),
(1224,90,o),
(1210,70,o),
(1175,70,cs),
(1107,70,o),
(1080,147,o),
(1080,310,cs),
(1080,680,ls),
(1080,797,o),
(1123,860,o),
(1220,860,cs),
(1380,860,ls),
(1503,860,o),
(1560,797,o),
(1560,680,cs),
(1560,0,l),
(1740,0,l),
(1740,680,ls),
(1740,856,o),
(1659,940,o),
(1480,940,cs),
(1220,940,ls),
(1071,940,o),
(1000,841,o),
(1000,680,cs),
(1000,310,ls),
(1000,121,o),
(1043,-20,o),
(1193,-20,cs),
(1290,-20,o),
(1340,38,o),
(1340,111,cs),
(1340,218,o),
(1231,319,o),
(1102,319,cs),
(895,319,o),
(897,60,o),
(729,60,cs),
(658,60,o),
(620,106,o),
(620,240,c),
(440,240,l),
(440,58,o),
(534,-20,o),
(688,-20,cs),
(968,-20,o),
(944,240,o),
(1095,240,cs),
(1162,240,o)
);
}
);
width = 1920;
}
);
note = uniA9A2;
unicode = 43426;
},
{
glyphname = "daMahaprana-java";
lastChange = "2022-07-24 07:10:29 +0000";
layers = (
{
anchors = (
{
name = bottom;
pos = (1740,0);
},
{
name = top;
pos = (960,940);
},
{
name = topright;
pos = (1740,940);
}
);
background = {
shapes = (
{
closed = 1;
nodes = (
(274.043,104.392,o),
(260,168.915,o),
(260,320,cs),
(260,520,ls),
(260,652,o),
(281.667,737,o),
(323,789,cs),
(364.333,841,o),
(424,860,o),
(500,860,cs),
(557,860,l),
(471.548,787.9,o),
(440,670.185,o),
(440,440,cs),
(440,240,ls),
(440,79.989,o),
(531.343,0,o),
(670,0,cs),
(789.65,0,o),
(843.841,68.719,o),
(867,120,cs),
(894.502,180.897,o),
(901.448,240,o),
(930,240,cs),
(956.445,240,o),
(968.136,174.226,o),
(993.5,120,cs),
(1019.351,64.733,o),
(1076.641,0,o),
(1190,0,cs),
(1251.333,0,o),
(1302.5,19.167,o),
(1336.5,66.5,cs),
(1370.5,113.833,o),
(1390,188,o),
(1390,300,cs),
(1390,580,ls),
(1390,712,o),
(1362.667,801.333,o),
(1300,860,c),
(1380,860,ls),
(1498.667,860,o),
(1560,793.333,o),
(1560,700,cs),
(1560,0,l),
(1740,0,l),
(1740,700,ls),
(1740,851.458,o),
(1666.527,940,o),
(1480,940,cs),
(1020,940,l),
(1020,860,l),
(1222.651,860,o),
(1310,783.706,o),
(1310,580,cs),
(1310,300,ls),
(1310,213.333,o),
(1298.5,159.5,o),
(1280.5,125.5,cs),
(1262.5,91.5,o),
(1236.667,80,o),
(1210,80,cs),
(1144.75,80,o),
(1112.965,153.552,o),
(1084.5,240,cs),
(1055.985,326.602,o),
(1022.225,400,o),
(950,400,cs),
(884.932,400,o),
(854.457,325.14,o),
(828.5,240,cs),
(802.208,153.762,o),
(771.793,80,o),
(710,80,cs),
(652.35,80,o),
(620,121.447,o),
(620,240,cs),
(620,440,ls),
(620,706.667,o),
(660,788,o),
(740,860,c),
(740,940,l),
(500,940,ls),
(402.667,940,o),
(323,912.5,o),
(267,846.5,cs),
(211,780.5,o),
(180,676,o),
(180,520,cs),
(180,320,ls),
(180,144.146,o),
(202.818,55.606,o),
(329,-18,c),
(369,49,l),
(369,49,l)
);
}
);
};
layerId = m01;
shapes = (
{
closed = 1;
nodes = (
(369,49,l),
(274,104,o),
(260,170,o),
(260,320,cs),
(260,620,ls),
(260,758,o),
(301,860,o),
(500,860,cs),
(557,860,l),
(472,813,o),
(440,742,o),
(440,595,cs),
(440,240,ls),
(440,80,o),
(532,0,o),
(667,0,cs),
(902,0,o),
(871,240,o),
(929,240,cs),
(986,240,o),
(960,0,o),
(1185,0,cs),
(1353,0,o),
(1390,133,o),
(1390,300,cs),
(1390,595,ls),
(1390,722,o),
(1374,813,o),
(1280,860,c),
(1380,860,ls),
(1499,860,o),
(1560,793,o),
(1560,700,cs),
(1560,0,l),
(1740,0,l),
(1740,700,ls),
(1740,851,o),
(1667,940,o),
(1480,940,cs),
(1080,940,l),
(1080,860,l),
(1241,860,o),
(1310,789,o),
(1310,595,cs),
(1310,300,ls),
(1310,211,o),
(1299,80,o),
(1210,80,cs),
(1070,80,o),
(1100,400,o),
(954,400,cs),
(807,400,o),
(850,80,o),
(706,80,cs),
(652,80,o),
(620,124,o),
(620,240,cs),
(620,595,ls),
(620,766,o),
(660,813,o),
(740,860,c),
(740,940,l),
(500,940,ls),
(256,940,o),
(180,806,o),
(180,620,cs),
(180,320,ls),
(180,143,o),
(203,56,o),
(329,-18,c)
);
}
);
width = 1920;
}
);
note = uniA9A3;
unicode = 43427;
},
{
glyphname = "na-java";
lastChange = "2022-07-24 07:10:29 +0000";
layers = (
{
anchors = (
{
name = bottom;
pos = (1680,0);
},
{
name = top;
pos = (930,940);
},
{
name = topright;
pos = (1680,940);
}
);
background = {
shapes = (
{
closed = 1;
nodes = (
(274,104,o),
(260,169,o),
(260,320,cs),
(260,660,ls),
(260,794,o),
(326,860,o),
(380,860,cs),
(415,860,o),
(440,843,o),
(440,760,cs),
(440,0,l),
(620,0,l),
(620,400,l),
(733,400,o),
(827,372,o),
(900,333,c),
(900,160,ls),
(900,28,o),
(955,-20,o),
(1060,-20,cs),
(1156,-20,o),
(1220,26,o),
(1220,110,cs),
(1220,213,o),
(1128,330,o),
(980,402,c),
(980,660,ls),
(980,807,o),
(1051,860,o),
(1160,860,cs),
(1380,860,ls),
(1478,860,o),
(1560,803,o),
(1560,620,cs),
(1560,0,l),
(1740,0,l),
(1740,620,ls),
(1740,740,o),
(1714,820,o),
(1668,870,cs),
(1622,920,o),
(1556,940,o),
(1480,940,cs),
(1160,940,ls),
(1012,940,o),
(900,864,o),
(900,660,cs),
(900,435,l),
(819,463,o),
(725,480,o),
(620,480,c),
(620,760,ls),
(620,889,o),
(562,940,o),
(480,940,cs),
(380,940,ls),
(284,940,o),
(180,844,o),
(180,660,cs),
(180,320,ls),
(180,144,o),
(203,56,o),
(329,-18,c),
(369,49,l),
(369,49,l)
);
},
{
closed = 1;
nodes = (
(1045,224,o),
(1080,163,o),
(1080,120,cs),
(1080,95,o),
(1071,80,o),
(1040,80,cs),
(1003,80,o),
(980,107,o),
(980,160,cs),
(980,279,l),
(980,279,l)
);
}
);
};
layerId = m01;
shapes = (
{
closed = 1;
nodes = (
(1156,-20,o),
(1220,22,o),
(1220,119,cs),
(1220,337,o),
(894,480,o),
(620,480,c),
(620,400,l),
(823,400,o),
(1080,287,o),
(1080,125,cs),
(1080,95,o),
(1071,80,o),
(1042,80,cs),
(1002,80,o),
(980,107,o),
(980,160,cs),
(980,670,ls),
(980,814,o),
(1051,860,o),
(1160,860,cs),
(1320,860,ls),
(1438,860,o),
(1500,811,o),
(1500,670,cs),
(1500,0,l),
(1680,0,l),
(1680,670,ls),
(1680,828,o),
(1628,940,o),
(1420,940,cs),
(1160,940,ls),
(1012,940,o),
(900,872,o),
(900,670,cs),
(900,160,ls),
(900,28,o),
(955,-20,o),
(1059,-20,cs)
);
},
{
closed = 1;
nodes = (
(620,0,l),
(620,763,ls),
(620,887,o),
(574,940,o),
(461,940,cs),
(397,940,ls),
(257,940,o),
(180,852,o),
(180,687,cs),
(180,280,ls),
(180,125,o),
(221,46,o),
(329,-18,c),
(369,49,l),
(287,96,o),
(260,161,o),
(260,280,cs),
(260,687,ls),
(260,803,o),
(286,860,o),
(365,860,cs),
(417,860,o),
(440,835,o),
(440,763,cs),
(440,0,l)
);
}
);
width = 1860;
},
{
associatedMasterId = m01;
background = {
shapes = (
{
closed = 1;
nodes = (
(274.043,104.392,o),
(260,168.915,o),
(260,320,cs),
(260,660,ls),
(260,793.953,o),
(326.075,860,o),
(380,860,cs),
(414.667,860,o),
(440,842.667,o),
(440,760,cs),
(440,0,l),
(620,0,l),
(620,400,l),
(733.333,400,o),
(826.667,371.667,o),
(900,333,c),
(900,160,ls),
(900,28,o),
(954.667,-20,o),
(1060,-20,cs),
(1156,-20,o),
(1220,26,o),
(1220,110,cs),
(1220,213.099,o),
(1127.553,329.518,o),
(980,402,c),
(980,660,ls),
(980,807.424,o),
(1050.945,860,o),
(1160,860,cs),
(1380,860,ls),
(1477.605,860,o),
(1560,803.241,o),
(1560,620,cs),
(1560,0,l),
(1740,0,l),
(1740,620,ls),
(1740,740,o),
(1713.5,819.5,o),
(1667.5,869.5,cs),
(1621.5,919.5,o),
(1556,940,o),
(1480,940,cs),
(1160,940,ls),
(1011.76,940,o),
(900,863.588,o),
(900,660,cs),
(900,435,l),
(818.667,463,o),
(725.333,480,o),
(620,480,c),
(620,760,ls),
(620,888.906,o),
(562.364,940,o),
(480,940,cs),
(380,940,ls),
(284.152,940,o),
(180,844.241,o),
(180,660,cs),
(180,320,ls),
(180,144.146,o),
(202.818,55.606,o),
(329,-18,c),
(369,49,l),
(369,49,l)
);
},
{
closed = 1;
nodes = (
(1045.333,224.333,o),
(1080,162.667,o),
(1080,120,cs),
(1080,94.667,o),
(1070.667,80,o),
(1040,80,cs),
(1002.667,80,o),
(980,106.667,o),
(980,160,cs),
(980,279,l),
(980,279,l)
);
}
);
};
layerId = "9073047D-127E-4ACE-89B0-FC621526FC73";
name = "30 May 21 18.22";
shapes = (
{
closed = 1;
nodes = (
(823,400,o),
(1080,287,o),
(1080,125,cs),
(1080,95,o),
(1071,80,o),
(1042,80,cs),
(1002,80,o),
(980,107,o),
(980,160,cs),
(980,670,ls),
(980,814,o),
(1051,860,o),
(1160,860,cs),
(1320,860,ls),
(1418,860,o),
(1500,811,o),
(1500,670,cs),
(1500,0,l),
(1680,0,l),
(1680,670,ls),
(1680,828,o),
(1608,940,o),
(1420,940,cs),
(1160,940,ls),
(1012,940,o),
(900,872,o),
(900,670,cs),
(900,160,ls),
(900,28,o),
(955,-20,o),
(1059,-20,cs),
(1156,-20,o),
(1220,22,o),
(1220,119,cs),
(1220,337,o),
(894,480,o),
(620,480,c),
(620,740,ls),
(620,862,o),
(576,940,o),
(427,940,cs),
(241,940,o),
(180,819,o),
(180,678,cs),
(180,310,ls),
(180,139,o),
(203,53,o),
(329,-18,c),
(369,49,l),
(274,102,o),
(260,164,o),
(260,310,cs),
(260,678,ls),
(260,804,o),
(302,860,o),
(373,860,cs),
(420,860,o),
(440,836,o),
(440,740,cs),
(440,0,l),
(620,0,l),
(620,400,l)
);
}
);
width = 1860;
}
);
note = uniA9A4;
unicode = 43428;
},
{
glyphname = "pa-java";
lastChange = "2022-07-24 07:10:29 +0000";
layers = (
{
anchors = (
{
name = bottom;
pos = (1720,0);
},
{
name = cerek;
pos = (950,0);
},
{
name = top;
pos = (960,940);
},
{
name = topright;
pos = (1720,940);
}
);
background = {
shapes = (
{
ref = "ka-java";
}
);
};
layerId = m01;
shapes = (
{
closed = 1;
nodes = (
(287,96,o),
(260,161,o),
(260,280,cs),
(260,687,ls),
(260,803,o),
(286,860,o),
(365,860,cs),
(417,860,o),
(440,835,o),
(440,763,cs),
(440,220,ls),
(440,69,o),
(505,0,o),
(640,0,cs),
(1160,0,ls),
(1301,0,o),
(1360,54,o),
(1360,220,cs),
(1360,763,ls),
(1360,838,o),
(1391,860,o),
(1449,860,cs),
(1515,860,o),
(1540,832,o),
(1540,763,cs),
(1540,0,l),
(1720,0,l),
(1720,763,ls),
(1720,872,o),
(1678,940,o),
(1528,940,cs),
(1446,940,ls),
(1337,940,o),
(1280,890,o),
(1280,763,cs),
(1280,220,ls),
(1280,118,o),
(1250,80,o),
(1160,80,cs),
(740,80,ls),
(664,80,o),
(620,116,o),
(620,220,cs),
(620,763,ls),
(620,887,o),
(574,940,o),
(461,940,cs),
(397,940,ls),
(257,940,o),
(180,852,o),
(180,687,cs),
(180,280,ls),
(180,125,o),
(221,46,o),
(329,-18,c),
(369,49,l)
);
}
);
width = 1900;
},
{
associatedMasterId = m01;
background = {
shapes = (
{
closed = 1;
nodes = (
(353,70,o),
(304,114,o),
(274,168,o),
(260,236,o),
(260,280,qs),
(260,620,ls),
(260,678,o),
(283,768,o),
(321,829,o),
(372,860,o),
(400,860,qs),
(426,860,o),
(460,815,o),
(460,760,qs),
(460,220,ls),
(460,107,o),
(561,0,o),
(660,0,qs),
(1180,0,ls),
(1234,0,o),
(1310,22,o),
(1358,73,o),
(1380,158,o),
(1380,220,qs),
(1380,780,ls),
(1380,860,o),
(1460,860,qs),
(1509,860,o),
(1560,788,o),
(1560,700,qs),
(1560,0,l),
(1740,0,l),
(1740,700,ls),
(1740,760,o),
(1712,850,o),
(1663,910,o),
(1597,940,o),
(1560,940,qs),
(1460,940,ls),
(1383,940,o),
(1300,858,o),
(1300,780,qs),
(1300,220,ls),
(1300,181,o),
(1288,128,o),
(1259,95,o),
(1213,80,o),
(1180,80,qs),
(760,80,ls),
(703,80,o),
(640,142,o),
(640,220,qs),
(640,760,ls),
(640,855,o),
(565,940,o),
(500,940,qs),
(400,940,ls),
(357,940,o),
(278,897,o),
(217,815,o),
(180,696,o),
(180,620,qs),
(180,280,ls),
(180,222,o),
(197,135,o),
(237,66,o),
(301,10,o),
(349,-18,q),
(389,49,l)
);
}
);
};
layerId = "15DE310C-AA8F-48FD-8049-BE8448E19F88";
name = "9 May 21 21.51";
shapes = (
{
closed = 1;
nodes = (
(293.267,104.844,o),
(260,160.689,o),
(260,280,cs),
(260,620,ls),
(260,697.333,o),
(276.667,757.833,o),
(302,798.5,cs),
(327.333,839.167,o),
(362.667,860,o),
(400,860,cs),
(434.667,860,o),
(460,833.333,o),
(460,760,cs),
(460,220,ls),
(460,69.333,o),
(528,0,o),
(660,0,cs),
(1180,0,ls),
(1324.584,0,o),
(1380,54.439,o),
(1380,220,cs),
(1380,780,ls),
(1380,833.333,o),
(1406.667,860,o),
(1460,860,cs),
(1525.333,860,o),
(1560,817.333,o),
(1560,700,cs),
(1560,0,l),
(1740,0,l),
(1740,700,ls),
(1740,860.617,o),
(1659.256,940,o),
(1560,940,cs),
(1460,940,ls),
(1357.333,940,o),
(1300,884,o),
(1300,780,cs),
(1300,220,ls),
(1300,117.957,o),
(1269.756,80,o),
(1180,80,cs),
(760,80,ls),
(684,80,o),
(640,116,o),
(640,220,cs),
(640,760,ls),
(640,886.667,o),
(586.667,940,o),
(500,940,cs),
(400,940,ls),
(285.341,940,o),
(180,822.682,o),
(180,620,cs),
(180,280,ls),
(180,124.903,o),
(222.491,55.797,o),
(349,-18,c),
(389,49,l),
(389,49,l)
);
},
{
ref = "ka-java";
}
);
userData = {
assembly = "PUSHW[ ]	/* 4 values pushed */
63 5 5 4 
CALL[ ]	/* CallFunction */
PUSHW[ ]	/* 4 values pushed */
16 4 53 4 
CALL[ ]	/* CallFunction */
PUSHW[ ]	/* 4 values pushed */
44 5 25 4 
CALL[ ]	/* CallFunction */
PUSHW[ ]	/* 4 values pushed */
35 4 38 4 
CALL[ ]	/* CallFunction */
PUSHW[ ]	/* 1 value pushed */
35 
SRP0[ ]	/* SetRefPoint0 */
PUSHW[ ]	/* 1 value pushed */
70 
MDRP[11100]	/* MoveDirectRelPt */
SVTCA[0]	/* SetFreedomAndProjectionVectorToAxis */
PUSHW[ ]	/* 1 value pushed */
0 
RCVT[ ]	/* ReadCVT */
IF[ ]	/* If */
PUSHW[ ]	/* 1 value pushed */
11 
MDAP[1]	/* MoveDirectAbsPt */
ELSE[ ]	/* Else */
PUSHW[ ]	/* 2 values pushed */
11 14 
MIAP[0]	/* MoveIndirectAbsPt */
EIF[ ]	/* EndIf */
PUSHW[ ]	/* 1 value pushed */
0 
RCVT[ ]	/* ReadCVT */
IF[ ]	/* If */
PUSHW[ ]	/* 1 value pushed */
29 
MDAP[1]	/* MoveDirectAbsPt */
ELSE[ ]	/* Else */
PUSHW[ ]	/* 2 values pushed */
29 14 
MIAP[0]	/* MoveIndirectAbsPt */
EIF[ ]	/* EndIf */
PUSHW[ ]	/* 1 value pushed */
0 
RCVT[ ]	/* ReadCVT */
IF[ ]	/* If */
PUSHW[ ]	/* 1 value pushed */
0 
MDAP[1]	/* MoveDirectAbsPt */
ELSE[ ]	/* Else */
PUSHW[ ]	/* 2 values pushed */
0 6 
MIAP[0]	/* MoveIndirectAbsPt */
EIF[ ]	/* EndIf */
PUSHW[ ]	/* 1 value pushed */
0 
RCVT[ ]	/* ReadCVT */
IF[ ]	/* If */
PUSHW[ ]	/* 1 value pushed */
36 
MDAP[1]	/* MoveDirectAbsPt */
ELSE[ ]	/* Else */
PUSHW[ ]	/* 2 values pushed */
36 6 
MIAP[0]	/* MoveIndirectAbsPt */
EIF[ ]	/* EndIf */
PUSHW[ ]	/* 1 value pushed */
0 
RCVT[ ]	/* ReadCVT */
IF[ ]	/* If */
PUSHW[ ]	/* 1 value pushed */
49 
MDAP[1]	/* MoveDirectAbsPt */
ELSE[ ]	/* Else */
PUSHW[ ]	/* 2 values pushed */
49 6 
MIAP[0]	/* MoveIndirectAbsPt */
EIF[ ]	/* EndIf */
PUSHW[ ]	/* 1 value pushed */
0 
SRP0[ ]	/* SetRefPoint0 */
PUSHW[ ]	/* 2 values pushed */
19 3 
MIRP[10100]	/* MoveIndirectRelPt */
PUSHW[ ]	/* 1 value pushed */
20 
MDRP[10000]	/* MoveDirectRelPt */
PUSHW[ ]	/* 1 value pushed */
29 
SRP0[ ]	/* SetRefPoint0 */
PUSHW[ ]	/* 2 values pushed */
41 3 
MIRP[10100]	/* MoveIndirectRelPt */
NPUSHW[ ]	/* 5 values pushed */
137 41 153 41 2 
DELTAP2[ ]	/* DeltaExceptionP2 */
NPUSHW[ ]	/* 33 values pushed */
8 41 24 41 40 41 56 41 72 41 88 41 104 41 120 41 136 41 152 41 168 41 184 41 200 41 216 41 232 41 248 41 16 
DELTAP1[ ]	/* DeltaExceptionP1 */
NPUSHW[ ]	/* 17 values pushed */
8 41 24 41 40 41 56 41 72 41 88 41 104 41 120 41 8 
DELTAP2[ ]	/* DeltaExceptionP2 */
PUSHW[ ]	/* 1 value pushed */
57 
MDRP[10000]	/* MoveDirectRelPt */
IUP[0]	/* InterpolateUntPts */
IUP[1]	/* InterpolateUntPts */";
};
width = 1920;
}
);
metricRight = "=|";
note = uniA9A5;
unicode = 43429;
},
{
glyphname = "paMurda-java";
lastChange = "2022-07-24 07:37:38 +0000";
layers = (
{
anchors = (
{
name = bottom;
pos = (1800,0);
},
{
name = top;
pos = (960,940);
},
{
name = topright;
pos = (1732,940);
}
);
background = {
shapes = (
{
closed = 1;
nodes = (
(369,49,l),
(274,104,o),
(260,170,o),
(260,320,cs),
(260,620,ls),
(260,758,o),
(301,860,o),
(500,860,cs),
(557,860,l),
(472,813,o),
(440,742,o),
(440,595,cs),
(440,260,ls),
(440,131,o),
(480,-10,o),
(686,-10,cs),
(857,-10,o),
(883,100,o),
(953,100,cs),
(1023,100,o),
(1088,-10,o),
(1225,-10,cs),
(1469,-10,o),
(1500,315,o),
(1500,499,cs),
(1500,743,o),
(1443,940,o),
(1235,940,cs),
(1117,940,o),
(1060,877,o),
(1060,791,cs),
(1060,521,o),
(1620,418,o),
(1620,0,c),
(1800,0,l),
(1800,467,o),
(1160,619,o),
(1160,794,cs),
(1160,826,o),
(1181,860,o),
(1243,860,cs),
(1385,860,o),
(1422,682,o),
(1422,511,cs),
(1422,338,o),
(1386,90,o),
(1244,90,cs),
(1152,90,o),
(1097,200,o),
(988,200,cs),
(868,200,o),
(822,70,o),
(722,70,cs),
(658,70,o),
(620,121,o),
(620,260,cs),
(620,595,ls),
(620,766,o),
(660,813,o),
(740,860,c),
(740,940,l),
(500,940,ls),
(256,940,o),
(180,806,o),
(180,620,cs),
(180,320,ls),
(180,143,o),
(203,56,o),
(329,-18,c)
);
}
);
};
layerId = m01;
shapes = (
{
closed = 1;
nodes = (
(369,49,l),
(274,104,o),
(260,170,o),
(260,320,cs),
(260,620,ls),
(260,758,o),
(301,860,o),
(500,860,cs),
(557,860,l),
(472,813,o),
(440,742,o),
(440,595,cs),
(440,260,ls),
(440,133,o),
(480,-10,o),
(683,-10,cs),
(861,-10,o),
(882,100,o),
(953,100,cs),
(1024,100,o),
(1086,-10,o),
(1227,-10,cs),
(1469,-10,o),
(1500,317,o),
(1500,499,cs),
(1500,744,o),
(1443,940,o),
(1234,940,cs),
(1117,940,o),
(1060,878,o),
(1060,788,cs),
(1060,505,o),
(1620,466,o),
(1620,0,c),
(1800,0,l),
(1800,516,o),
(1160,601,o),
(1160,792,cs),
(1160,827,o),
(1182,860,o),
(1243,860,cs),
(1385,860,o),
(1422,682,o),
(1422,509,cs),
(1422,336,o),
(1385,90,o),
(1245,90,cs),
(1151,90,o),
(1098,200,o),
(988,200,cs),
(868,200,o),
(822,70,o),
(722,70,cs),
(658,70,o),
(620,121,o),
(620,260,cs),
(620,595,ls),
(620,766,o),
(660,813,o),
(740,860,c),
(740,940,l),
(500,940,ls),
(256,940,o),
(180,806,o),
(180,620,cs),
(180,320,ls),
(180,143,o),
(203,56,o),
(329,-18,c)
);
}
);
width = 1920;
},
{
anchors = (
{
name = bottom;
pos = (1800,0);
},
{
name = top;
pos = (960,940);
},
{
name = topright;
pos = (1732,940);
}
);
associatedMasterId = m01;
background = {
shapes = (
{
closed = 1;
nodes = (
(274,104,o),
(260,169,o),
(260,320,cs),
(260,520,ls),
(260,652,o),
(282,737,o),
(323,789,cs),
(364,841,o),
(424,860,o),
(500,860,cs),
(557,860,l),
(472,788,o),
(440,670,o),
(440,440,cs),
(440,260,ls),
(440,88,o),
(517,0,o),
(700,0,cs),
(870,0,o),
(893,100,o),
(960,100,cs),
(1023,100,o),
(1085,0,o),
(1240,0,cs),
(1362,0,o),
(1449,94,o),
(1484,328,c),
(1571,235,o),
(1640,129,o),
(1640,0,c),
(1820,0,l),
(1820,212,o),
(1661,374,o),
(1499,499,c),
(1499,510,o),
(1499,522,o),
(1500,534,cs),
(1500,545,o),
(1500,557,o),
(1500,570,cs),
(1500,854,o),
(1358,940,o),
(1230,940,cs),
(1113,940,o),
(1060,880,o),
(1060,780,cs),
(1060,717,o),
(1107,658,o),
(1175,596,cs),
(1259,519,o),
(1315,483,o),
(1412,397,c),
(1400,280,o),
(1378,205,o),
(1347,161,cs),
(1316,116,o),
(1280,100,o),
(1240,100,cs),
(1152,100,o),
(1100,200,o),
(980,200,cs),
(865,200,o),
(823,80,o),
(720,80,cs),
(658,80,o),
(620,129,o),
(620,260,cs),
(620,440,ls),
(620,707,o),
(660,788,o),
(740,860,c),
(740,940,l),
(500,940,ls),
(403,940,o),
(323,913,o),
(267,847,cs),
(211,781,o),
(180,676,o),
(180,520,cs),
(180,320,ls),
(180,144,o),
(203,56,o),
(329,-18,c),
(369,49,l),
(369,49,l)
);
},
{
closed = 1;
nodes = (
(1352,607,o),
(1286,653,o),
(1238,693,cs),
(1190,732,o),
(1160,768,o),
(1160,800,cs),
(1160,832,o),
(1181,860,o),
(1240,860,cs),
(1283,860,o),
(1329,839,o),
(1363,794,cs),
(1397,749,o),
(1420,679,o),
(1420,580,cs),
(1420,558,l),
(1420,558,l)
);
}
);
};
layerId = "4E9FF98E-8E90-4479-816D-0E6DC7FB0607";
name = "24 Jul 22 15.37";
shapes = (
{
closed = 1;
nodes = (
(369,49,l),
(274,104,o),
(260,170,o),
(260,320,cs),
(260,620,ls),
(260,758,o),
(301,860,o),
(500,860,cs),
(557,860,l),
(472,813,o),
(440,742,o),
(440,595,cs),
(440,260,ls),
(440,131,o),
(480,-10,o),
(686,-10,cs),
(857,-10,o),
(883,100,o),
(953,100,cs),
(1023,100,o),
(1088,-10,o),
(1225,-10,cs),
(1469,-10,o),
(1500,315,o),
(1500,499,cs),
(1500,743,o),
(1443,940,o),
(1235,940,cs),
(1117,940,o),
(1060,877,o),
(1060,791,cs),
(1060,521,o),
(1620,418,o),
(1620,0,c),
(1800,0,l),
(1800,467,o),
(1160,619,o),
(1160,794,cs),
(1160,826,o),
(1181,860,o),
(1243,860,cs),
(1385,860,o),
(1422,682,o),
(1422,511,cs),
(1422,338,o),
(1386,90,o),
(1244,90,cs),
(1152,90,o),
(1097,200,o),
(988,200,cs),
(868,200,o),
(822,70,o),
(722,70,cs),
(658,70,o),
(620,121,o),
(620,260,cs),
(620,595,ls),
(620,766,o),
(660,813,o),
(740,860,c),
(740,940,l),
(500,940,ls),
(256,940,o),
(180,806,o),
(180,620,cs),
(180,320,ls),
(180,143,o),
(203,56,o),
(329,-18,c)
);
}
);
width = 1920;
}
);
note = uniA9A6;
unicode = 43430;
},
{
glyphname = "baMurda-java";
lastChange = "2022-07-24 07:10:29 +0000";
layers = (
{
anchors = (
{
name = bottom;
pos = (1740,0);
},
{
name = top;
pos = (960,940);
},
{
name = topright;
pos = (1800,940);
}
);
background = {
shapes = (
{
closed = 1;
nodes = (
(466,800,o),
(405,836,o),
(386,860,q),
(600,860,ls),
(702,860,o),
(800,728,o),
(800,600,qs),
(800,527,o),
(772,398,o),
(745,340,q),
(700,340,ls),
(631,340,o),
(513,344,o),
(428,356,o),
(380,380,o),
(380,400,qs),
(380,428,o),
(456,460,o),
(540,460,q),
(540,540,l),
(480,540,o),
(384,523,o),
(317,488,o),
(280,435,o),
(280,400,qs),
(280,354,o),
(345,299,o),
(459,269,o),
(612,260,o),
(699,260,q),
(679,230,o),
(632,173,o),
(604,145,q),
(930,27,ls),
(967,14,o),
(1026,0,o),
(1050,0,qs),
(1078,0,o),
(1120,21,o),
(1147,69,o),
(1160,145,o),
(1160,200,qs),
(1160,253,l),
(1243,247,o),
(1389,217,o),
(1497,159,o),
(1560,67,o),
(1560,0,q),
(1740,0,l),
(1740,91,o),
(1644,212,o),
(1483,287,o),
(1274,325,o),
(1160,332,q),
(1160,760,ls),
(1160,788,o),
(1168,826,o),
(1190,850,o),
(1229,860,o),
(1260,860,qs),
(1534,860,l),
(1514,836,o),
(1454,800,o),
(1400,800,q),
(1400,720,l),
(1473,720,o),
(1569,741,o),
(1633,772,o),
(1675,808,o),
(1715,839,o),
(1763,860,o),
(1800,860,q),
(1800,940,l),
(1260,940,ls),
(1209,940,o),
(1140,920,o),
(1098,877,o),
(1080,809,o),
(1080,760,qs),
(1080,337,l),
(1045,339,o),
(975,339,o),
(940,340,q),
(960,397,o),
(980,527,o),
(980,600,qs),
(980,681,o),
(948,807,o),
(881,894,o),
(775,940,o),
(700,940,qs),
(120,940,l),
(120,860,l),
(157,860,o),
(205,839,o),
(245,808,o),
(287,772,o),
(351,741,o),
(447,720,o),
(520,720,q),
(520,800,l)
);
},
{
closed = 1;
nodes = (
(1006,260,o),
(1080,257,q),
(1080,200,ls),
(1080,146,o),
(1054,90,o),
(1020,90,qs),
(1008,90,o),
(979,99,o),
(960,106,qs),
(831,153,l),
(853,178,o),
(890,231,o),
(905,260,q),
(930,260,ls)
);
}
);
};
layerId = m01;
shapes = (
{
closed = 1;
nodes = (
(1126,0,o),
(1160,45,o),
(1160,160,cs),
(1160,720,ls),
(1160,835,o),
(1209,860,o),
(1290,860,cs),
(1574,860,l),
(1509,828,o),
(1472,800,o),
(1400,800,c),
(1400,720,l),
(1590,720,o),
(1610,860,o),
(1800,860,c),
(1800,940,l),
(1290,940,ls),
(1154,940,o),
(1080,886,o),
(1080,720,cs),
(1080,160,ls),
(1080,115,o),
(1072,90,o),
(1029,90,cs),
(1013,90,o),
(989,95,o),
(951,109,cs),
(789,168,l),
(805,134,l),
(920,244,o),
(980,404,o),
(980,595,cs),
(980,816,o),
(899,940,o),
(700,940,cs),
(120,940,l),
(120,860,l),
(310,860,o),
(330,720,o),
(520,720,c),
(520,800,l),
(448,800,o),
(411,828,o),
(346,860,c),
(600,860,ls),
(737,860,o),
(800,770,o),
(800,596,cs),
(800,416,o),
(732,273,o),
(604,145,c),
(921,30,ls),
(981,8,o),
(1018,0,o),
(1049,0,cs)
);
},
{
closed = 1;
nodes = (
(1740,0,l),
(1740,268,o),
(1397,334,o),
(1142,337,cs),
(751,341,ls),
(499,344,o),
(380,346,o),
(380,400,cs),
(380,421,o),
(397,435,o),
(418,444,cs),
(443,455,o),
(484,460,o),
(540,460,c),
(540,540,l),
(460,540,o),
(395,529,o),
(351,506,cs),
(306,482,o),
(280,447,o),
(280,400,cs),
(280,251,o),
(545,262,o),
(748,260,cs),
(1142,256,ls),
(1340,254,o),
(1560,198,o),
(1560,0,c)
);
}
);
width = 1920;
}
);
note = uniA9A8;
unicode = 43432;
},
{
glyphname = "ma-java";
lastChange = "2022-07-24 07:10:29 +0000";
layers = (
{
anchors = (
{
name = bottom;
pos = (1740,0);
},
{
name = top;
pos = (960,940);
},
{
name = topright;
pos = (1740,940);
}
);
background = {
shapes = (
{
closed = 1;
nodes = (
(353,70,o),
(304,114,o),
(274,168,o),
(260,236,o),
(260,280,qs),
(260,580,ls),
(260,644,o),
(293,745,o),
(361,817,o),
(467,857,o),
(540,860,q),
(460,791,o),
(460,690,qs),
(460,617,o),
(530,509,o),
(597,478,q),
(510,436,o),
(420,288,o),
(420,200,qs),
(420,149,o),
(454,74,o),
(530,25,o),
(652,0,o),
(740,0,qs),
(1180,0,ls),
(1234,0,o),
(1310,22,o),
(1358,73,o),
(1380,158,o),
(1380,220,qs),
(1380,780,ls),
(1380,860,o),
(1460,860,qs),
(1509,860,o),
(1560,788,o),
(1560,700,qs),
(1560,0,l),
(1740,0,l),
(1740,700,ls),
(1740,760,o),
(1712,850,o),
(1663,910,o),
(1597,940,o),
(1560,940,qs),
(1460,940,ls),
(1383,940,o),
(1300,858,o),
(1300,780,qs),
(1300,220,ls),
(1300,181,o),
(1288,128,o),
(1259,95,o),
(1213,80,o),
(1180,80,qs),
(780,80,ls),
(728,80,o),
(659,95,o),
(617,125,o),
(600,170,o),
(600,200,qs),
(600,248,o),
(629,335,o),
(689,401,o),
(779,440,o),
(840,440,qs),
(1100,440,l),
(1100,520,l),
(840,520,ls),
(738,520,o),
(640,605,o),
(640,700,qs),
(640,737,o),
(660,796,o),
(707,838,o),
(783,860,o),
(840,860,qs),
(1060,860,l),
(1060,940,l),
(560,940,ls),
(465,940,o),
(323,889,o),
(228,795,o),
(180,662,o),
(180,580,qs),
(180,280,ls),
(180,222,o),
(197,135,o),
(237,66,o),
(301,10,o),
(349,-18,q),
(389,49,l)
);
}
);
};
layerId = m01;
shapes = (
{
closed = 1;
nodes = (
(369,49,l),
(279,102,o),
(260,161,o),
(260,280,cs),
(260,590,ls),
(260,771,o),
(341,860,o),
(541,860,cs),
(603,860,l),
(616,880,l),
(496,840,o),
(460,758,o),
(460,676,cs),
(460,559,o),
(533,482,o),
(668,466,c),
(669,490,l),
(509,444,o),
(420,373,o),
(420,237,cs),
(420,83,o),
(534,0,o),
(805,0,cs),
(1180,0,ls),
(1325,0,o),
(1380,54,o),
(1380,220,cs),
(1380,763,ls),
(1380,838,o),
(1411,860,o),
(1469,860,cs),
(1535,860,o),
(1560,827,o),
(1560,763,cs),
(1560,0,l),
(1740,0,l),
(1740,763,ls),
(1740,875,o),
(1698,940,o),
(1558,940,cs),
(1460,940,ls),
(1355,940,o),
(1300,890,o),
(1300,763,cs),
(1300,220,ls),
(1300,118,o),
(1270,80,o),
(1180,80,cs),
(805,80,ls),
(694,80,o),
(600,118,o),
(600,257,cs),
(600,381,o),
(677,440,o),
(805,440,cs),
(1050,440,l),
(1050,520,l),
(805,520,ls),
(707,520,o),
(640,566,o),
(640,688,cs),
(640,793,o),
(689,860,o),
(805,860,cs),
(1060,860,l),
(1060,940,l),
(540,940,ls),
(302,940,o),
(180,804,o),
(180,590,cs),
(180,280,ls),
(180,133,o),
(210,52,o),
(329,-18,c)
);
}
);
width = 1920;
}
);
note = uniA9A9;
unicode = 43433;
},
{
glyphname = "ya-java";
lastChange = "2022-07-24 07:10:29 +0000";
layers = (
{
anchors = (
{
name = bottom;
pos = (2260,0);
},
{
name = top;
pos = (1240,940);
},
{
name = topright;
pos = (2260,940);
}
);
background = {
shapes = (
{
ref = "ka-java";
}
);
};
layerId = m01;
shapes = (
{
closed = 1;
nodes = (
(369,49,l),
(287,96,o),
(260,161,o),
(260,280,cs),
(260,687,ls),
(260,803,o),
(286,860,o),
(365,860,cs),
(417,860,o),
(440,835,o),
(440,763,cs),
(440,220,ls),
(440,69,o),
(505,0,o),
(640,0,cs),
(880,0,ls),
(1021,0,o),
(1080,54,o),
(1080,220,cs),
(1080,763,ls),
(1080,838,o),
(1111,860,o),
(1169,860,cs),
(1235,860,o),
(1260,827,o),
(1260,763,cs),
(1260,220,ls),
(1260,69,o),
(1325,0,o),
(1460,0,cs),
(1700,0,ls),
(1841,0,o),
(1900,54,o),
(1900,220,cs),
(1900,763,ls),
(1900,838,o),
(1931,860,o),
(1989,860,cs),
(2055,860,o),
(2080,827,o),
(2080,763,cs),
(2080,0,l),
(2260,0,l),
(2260,763,ls),
(2260,872,o),
(2198,940,o),
(2068,940,cs),
(1980,940,ls),
(1875,940,o),
(1820,890,o),
(1820,763,cs),
(1820,220,ls),
(1820,118,o),
(1790,80,o),
(1700,80,cs),
(1560,80,ls),
(1484,80,o),
(1440,116,o),
(1440,220,cs),
(1440,763,ls),
(1440,872,o),
(1378,940,o),
(1248,940,cs),
(1160,940,ls),
(1055,940,o),
(1000,890,o),
(1000,763,cs),
(1000,220,ls),
(1000,118,o),
(970,80,o),
(880,80,cs),
(740,80,ls),
(664,80,o),
(620,116,o),
(620,220,cs),
(620,763,ls),
(620,887,o),
(574,940,o),
(461,940,cs),
(397,940,ls),
(257,940,o),
(180,852,o),
(180,687,cs),
(180,280,ls),
(180,125,o),
(221,46,o),
(329,-18,c)
);
}
);
width = 2440;
},
{
anchors = (
{
name = bottom;
pos = (2300,0);
},
{
name = top;
pos = (1240,940);
},
{
name = topright;
pos = (2300,940);
}
);
associatedMasterId = m01;
background = {
shapes = (
{
closed = 1;
nodes = (
(353,70,o),
(304,114,o),
(274,168,o),
(260,236,o),
(260,280,qs),
(260,620,ls),
(260,678,o),
(283,768,o),
(321,829,o),
(372,860,o),
(400,860,qs),
(426,860,o),
(460,815,o),
(460,760,qs),
(460,220,ls),
(460,107,o),
(561,0,o),
(660,0,qs),
(900,0,ls),
(954,0,o),
(1030,22,o),
(1078,73,o),
(1100,158,o),
(1100,220,qs),
(1100,780,ls),
(1100,860,o),
(1180,860,qs),
(1229,860,o),
(1280,788,o),
(1280,700,qs),
(1280,220,ls),
(1280,107,o),
(1381,0,o),
(1480,0,qs),
(1700,0,ls),
(1754,0,o),
(1830,22,o),
(1878,73,o),
(1900,158,o),
(1900,220,qs),
(1900,780,ls),
(1900,860,o),
(1980,860,qs),
(2029,860,o),
(2080,788,o),
(2080,700,qs),
(2080,0,l),
(2260,0,l),
(2260,700,ls),
(2260,760,o),
(2232,850,o),
(2183,910,o),
(2117,940,o),
(2080,940,qs),
(1980,940,ls),
(1903,940,o),
(1820,858,o),
(1820,780,qs),
(1820,220,ls),
(1820,181,o),
(1808,128,o),
(1779,95,o),
(1733,80,o),
(1700,80,qs),
(1580,80,ls),
(1523,80,o),
(1460,142,o),
(1460,220,qs),
(1460,700,ls),
(1460,760,o),
(1432,850,o),
(1383,910,o),
(1317,940,o),
(1280,940,qs),
(1180,940,ls),
(1103,940,o),
(1020,858,o),
(1020,780,qs),
(1020,220,ls),
(1020,181,o),
(1008,128,o),
(979,95,o),
(933,80,o),
(900,80,qs),
(760,80,ls),
(703,80,o),
(640,142,o),
(640,220,qs),
(640,760,ls),
(640,855,o),
(565,940,o),
(500,940,qs),
(400,940,ls),
(357,940,o),
(278,897,o),
(217,815,o),
(180,696,o),
(180,620,qs),
(180,280,ls),
(180,222,o),
(197,135,o),
(237,66,o),
(301,10,o),
(349,-18,q),
(389,49,l)
);
}
);
};
layerId = "5C1DC22B-7937-4B0B-AF2E-3FEB2B266DEC";
name = "4 Jul 21 13.59";
shapes = (
{
closed = 1;
nodes = (
(369,49,l),
(287,96,o),
(260,161,o),
(260,280,cs),
(260,687,ls),
(260,803,o),
(286,860,o),
(365,860,cs),
(417,860,o),
(440,835,o),
(440,763,cs),
(440,220,ls),
(440,69,o),
(505,0,o),
(640,0,cs),
(900,0,ls),
(1041,0,o),
(1100,54,o),
(1100,220,cs),
(1100,763,ls),
(1100,838,o),
(1131,860,o),
(1189,860,cs),
(1255,860,o),
(1280,827,o),
(1280,763,cs),
(1280,220,ls),
(1280,69,o),
(1345,0,o),
(1480,0,cs),
(1740,0,ls),
(1881,0,o),
(1940,54,o),
(1940,220,cs),
(1940,763,ls),
(1940,838,o),
(1971,860,o),
(2029,860,cs),
(2095,860,o),
(2120,827,o),
(2120,763,cs),
(2120,0,l),
(2300,0,l),
(2300,763,ls),
(2300,872,o),
(2238,940,o),
(2108,940,cs),
(2020,940,ls),
(1915,940,o),
(1860,890,o),
(1860,763,cs),
(1860,220,ls),
(1860,118,o),
(1830,80,o),
(1740,80,cs),
(1580,80,ls),
(1504,80,o),
(1460,116,o),
(1460,220,cs),
(1460,763,ls),
(1460,872,o),
(1398,940,o),
(1268,940,cs),
(1180,940,ls),
(1075,940,o),
(1020,890,o),
(1020,763,cs),
(1020,220,ls),
(1020,118,o),
(990,80,o),
(900,80,cs),
(740,80,ls),
(664,80,o),
(620,116,o),
(620,220,cs),
(620,763,ls),
(620,887,o),
(574,940,o),
(461,940,cs),
(397,940,ls),
(257,940,o),
(180,852,o),
(180,687,cs),
(180,280,ls),
(180,125,o),
(221,46,o),
(329,-18,c)
);
},
{
ref = "ka-java";
}
);
width = 2480;
}
);
metricRight = "=|";
note = uniA9AA;
unicode = 43434;
},
{
glyphname = "ra-java";
lastChange = "2022-07-24 07:10:29 +0000";
layers = (
{
anchors = (
{
name = bottom;
pos = (1700,0);
},
{
name = top;
pos = (920,940);
},
{
name = topright;
pos = (1700,940);
}
);
background = {
shapes = (
{
pos = (50,0);
ref = "ka-java";
}
);
};
layerId = m01;
shapes = (
{
closed = 1;
nodes = (
(348,800,o),
(311,828,o),
(246,860,c),
(500,860,ls),
(637,860,o),
(700,770,o),
(700,596,cs),
(700,416,o),
(632,273,o),
(504,145,c),
(821,30,ls),
(881,8,o),
(921,0,o),
(952,0,cs),
(1029,0,o),
(1060,48,o),
(1060,170,cs),
(1060,720,ls),
(1060,835,o),
(1109,860,o),
(1190,860,cs),
(1390,860,ls),
(1489,860,o),
(1520,811,o),
(1520,720,cs),
(1520,0,l),
(1700,0,l),
(1700,720,ls),
(1700,850,o),
(1638,940,o),
(1460,940,cs),
(1190,940,ls),
(1054,940,o),
(980,886,o),
(980,720,cs),
(980,170,ls),
(980,118,o),
(968,90,o),
(929,90,cs),
(913,90,o),
(889,95,o),
(851,109,cs),
(689,168,l),
(705,134,l),
(820,244,o),
(880,404,o),
(880,595,cs),
(880,816,o),
(799,940,o),
(600,940,cs),
(20,940,l),
(20,860,l),
(210,860,o),
(230,720,o),
(420,720,c),
(420,800,l)
);
}
);
width = 1880;
}
);
note = uniA9AB;
unicode = 43435;
},
{
glyphname = "raAgung-java";
lastChange = "2022-07-24 07:10:29 +0000";
layers = (
{
anchors = (
{
name = bottom;
pos = (2894,0);
},
{
name = top;
pos = (1600,940);
},
{
name = topright;
pos = (2518,940);
}
);
background = {
shapes = (
{
closed = 1;
nodes = (
(299.121,138.892,o),
(240,215.641,o),
(240,440,cs),
(240,685.687,o),
(326.212,780,o),
(420,780,cs),
(504,780,o),
(540,725.333,o),
(540,580,cs),
(540,140,ls),
(540,44,o),
(587.333,0,o),
(670,0,cs),
(770,0,ls),
(835.806,0,o),
(900,28.806,o),
(900,140,cs),
(900,720,ls),
(900,821.333,o),
(930.667,860,o),
(1020,860,cs),
(1060,860,ls),
(1146.667,860,o),
(1200,804,o),
(1200,700,cs),
(1200,140,ls),
(1200,44,o),
(1247.333,0,o),
(1330,0,cs),
(1430,0,ls),
(1495.806,0,o),
(1560,28.806,o),
(1560,140,cs),
(1560,720,ls),
(1560,821.333,o),
(1590.667,860,o),
(1680,860,cs),
(1720,860,ls),
(1806.667,860,o),
(1860,804,o),
(1860,700,cs),
(1860,140,ls),
(1860,44,o),
(1907.333,0,o),
(1990,0,cs),
(2090,0,ls),
(2155.806,0,o),
(2220,28.806,o),
(2220,140,cs),
(2220,720,ls),
(2220,821.333,o),
(2250.667,860,o),
(2340,860,cs),
(2380,860,ls),
(2466.667,860,o),
(2520,804,o),
(2520,700,cs),
(2520,140,ls),
(2520,50.667,o),
(2572,0,o),
(2660,0,cs),
(2900,0,ls),
(2961.461,0,o),
(3040,41.09,o),
(3040,140,cs),
(3040,1220,ls),
(3040,1324,o),
(2976,1380,o),
(2860,1380,cs),
(2751.701,1380,o),
(2680,1309.746,o),
(2680,1210,cs),
(2680,1112.512,o),
(2750.29,1040,o),
(2860,1040,cs),
(2899.333,1040,o),
(2932.667,1047.667,o),
(2960,1063,c),
(2960,140,ls),
(2960,101.333,o),
(2933.333,80,o),
(2900,80,cs),
(2760,80,ls),
(2722.667,80,o),
(2700,101.333,o),
(2700,140,cs),
(2700,700,ls),
(2700,820.929,o),
(2644.644,940,o),
(2480,940,cs),
(2340,940,ls),
(2197.333,940,o),
(2140,869.333,o),
(2140,720,cs),
(2140,140,ls),
(2140,104,o),
(2128.667,80,o),
(2090,80,cs),
(2050,80,o),
(2040,97.333,o),
(2040,140,cs),
(2040,700,ls),
(2040,820.929,o),
(1984.644,940,o),
(1820,940,cs),
(1680,940,ls),
(1537.333,940,o),
(1480,869.333,o),
(1480,720,cs),
(1480,140,ls),
(1480,104,o),
(1468.667,80,o),
(1430,80,cs),
(1390,80,o),
(1380,97.333,o),
(1380,140,cs),
(1380,700,ls),
(1380,820.929,o),
(1324.644,940,o),
(1160,940,cs),
(1020,940,ls),
(877.333,940,o),
(820,869.333,o),
(820,720,cs),
(820,140,ls),
(820,104,o),
(808.667,80,o),
(770,80,cs),
(730,80,o),
(720,97.333,o),
(720,140,cs),
(720,580,ls),
(720,780.36,o),
(658.377,880,o),
(470,880,cs),
(261.473,880,o),
(160,703.776,o),
(160,440,cs),
(160,194.667,o),
(227.333,63.667,o),
(386,37,c),
(400,115,l),
(400,115,l)
);
},
{
closed = 1;
nodes = (
(2960,1169.333,o),
(2933.333,1140,o),
(2880,1140,cs),
(2829.333,1140,o),
(2800,1166.667,o),
(2800,1220,cs),
(2800,1272,o),
(2834.667,1300,o),
(2880,1300,cs),
(2928,1300,o),
(2960,1273.333,o),
(2960,1220,cs)
);
}
);
};
layerId = m01;
shapes = (
{
closed = 1;
nodes = (
(760,0,ls),
(831,0,o),
(900,29,o),
(900,140,cs),
(900,730,ls),
(900,826,o),
(932,860,o),
(1022,860,cs),
(1070,860,ls),
(1170,860,o),
(1200,811,o),
(1200,730,cs),
(1200,140,ls),
(1200,44,o),
(1254,0,o),
(1350,0,cs),
(1430,0,ls),
(1496,0,o),
(1560,29,o),
(1560,140,cs),
(1560,730,ls),
(1560,826,o),
(1592,860,o),
(1682,860,cs),
(1730,860,ls),
(1830,860,o),
(1860,811,o),
(1860,730,cs),
(1860,140,ls),
(1860,44,o),
(1914,0,o),
(2010,0,cs),
(2090,0,ls),
(2156,0,o),
(2220,29,o),
(2220,140,cs),
(2220,730,ls),
(2220,826,o),
(2252,860,o),
(2342,860,cs),
(2390,860,ls),
(2490,860,o),
(2520,811,o),
(2520,730,cs),
(2520,170,l),
(2700,170,l),
(2700,730,ls),
(2700,840,o),
(2668,940,o),
(2480,940,cs),
(2342,940,ls),
(2208,940,o),
(2140,873,o),
(2140,730,cs),
(2140,140,ls),
(2140,103,o),
(2129,80,o),
(2087,80,cs),
(2050,80,o),
(2040,98,o),
(2040,140,cs),
(2040,730,ls),
(2040,840,o),
(2008,940,o),
(1820,940,cs),
(1682,940,ls),
(1548,940,o),
(1480,873,o),
(1480,730,cs),
(1480,140,ls),
(1480,103,o),
(1469,80,o),
(1427,80,cs),
(1390,80,o),
(1380,98,o),
(1380,140,cs),
(1380,730,ls),
(1380,840,o),
(1348,940,o),
(1160,940,cs),
(1022,940,ls),
(888,940,o),
(820,873,o),
(820,730,cs),
(820,140,ls),
(820,103,o),
(809,80,o),
(767,80,cs),
(730,80,o),
(720,98,o),
(720,140,cs),
(720,580,ls),
(720,780,o),
(674,880,o),
(492,880,cs),
(251,880,o),
(160,703,o),
(160,429,cs),
(160,249,o),
(199,72,o),
(406,37,c),
(425,106,l),
(261,140,o),
(240,290,o),
(240,431,cs),
(240,695,o),
(314,780,o),
(436,780,cs),
(525,780,o),
(540,735,o),
(540,590,cs),
(540,140,ls),
(540,44,o),
(594,0,o),
(690,0,cs)
);
},
{
closed = 1;
nodes = (
(2880,0,ls),
(2950,0,o),
(3040,50,o),
(3040,170,cs),
(3040,1220,ls),
(3040,1324,o),
(2973,1380,o),
(2867,1380,cs),
(2747,1380,o),
(2680,1309,o),
(2680,1209,cs),
(2680,1114,o),
(2740,1040,o),
(2851,1040,cs),
(2895,1040,o),
(2932,1052,o),
(2960,1075,c),
(2960,170,ls),
(2960,112,o),
(2924,80,o),
(2880,80,cs),
(2780,80,ls),
(2731,80,o),
(2700,105,o),
(2700,170,c),
(2520,170,l),
(2520,62,o),
(2594,0,o),
(2720,0,cs)
);
},
{
closed = 1;
nodes = (
(2829,1140,o),
(2800,1167,o),
(2800,1218,cs),
(2800,1273,o),
(2835,1300,o),
(2882,1300,cs),
(2928,1300,o),
(2960,1273,o),
(2960,1220,cs),
(2960,1169,o),
(2933,1140,o),
(2880,1140,cs)
);
}
);
width = 3200;
}
);
note = uniA9AC;
unicode = 43436;
},
{
glyphname = "la-java";
lastChange = "2022-07-24 07:10:29 +0000";
layers = (
{
anchors = (
{
name = bottom;
pos = (2230,0);
},
{
name = top;
pos = (1187,940);
},
{
name = topright;
pos = (2230,940);
}
);
background = {
shapes = (
{
closed = 1;
nodes = (
(293,117,o),
(230,243,o),
(230,336,qs),
(230,520,ls),
(230,582,o),
(252,685,o),
(291,759,o),
(341,800,o),
(370,800,qs),
(397,800,o),
(430,747,o),
(430,680,qs),
(430,140,ls),
(430,71,o),
(501,0,o),
(570,0,qs),
(950,0,l),
(950,80,l),
(910,80,o),
(844,98,o),
(796,140,o),
(770,209,o),
(770,260,qs),
(770,620,ls),
(770,743,o),
(866,860,o),
(950,860,qs),
(1030,860,ls),
(1112,860,o),
(1190,786,o),
(1190,720,qs),
(1190,220,ls),
(1190,107,o),
(1291,0,o),
(1390,0,qs),
(1670,0,ls),
(1724,0,o),
(1800,22,o),
(1848,73,o),
(1870,158,o),
(1870,220,qs),
(1870,780,ls),
(1870,860,o),
(1950,860,qs),
(1999,860,o),
(2050,788,o),
(2050,700,qs),
(2050,0,l),
(2230,0,l),
(2230,700,ls),
(2230,760,o),
(2202,850,o),
(2153,910,o),
(2087,940,o),
(2050,940,qs),
(1950,940,ls),
(1873,940,o),
(1790,858,o),
(1790,780,qs),
(1790,220,ls),
(1790,181,o),
(1778,128,o),
(1749,95,o),
(1703,80,o),
(1670,80,qs),
(1490,80,ls),
(1433,80,o),
(1370,142,o),
(1370,220,qs),
(1370,720,ls),
(1370,781,o),
(1337,866,o),
(1276,917,o),
(1187,940,o),
(1130,940,qs),
(950,940,ls),
(885,940,o),
(788,893,o),
(723,808,o),
(690,690,o),
(690,620,qs),
(690,260,ls),
(690,199,o),
(716,111,o),
(740,80,q),
(670,80,ls),
(635,80,o),
(610,111,o),
(610,140,qs),
(610,680,ls),
(610,798,o),
(519,900,o),
(420,900,qs),
(360,900,o),
(260,846,o),
(189,747,o),
(150,607,o),
(150,520,qs),
(150,336,ls),
(150,271,o),
(173,170,o),
(218,92,o),
(287,30,o),
(333,4,q),
(372,72,l)
);
}
);
};
layerId = m01;
shapes = (
{
closed = 1;
nodes = (
(359,57,l),
(264,110,o),
(250,172,o),
(250,318,cs),
(250,638,ls),
(250,764,o),
(296,820,o),
(364,820,cs),
(410,820,o),
(430,795,o),
(430,700,cs),
(430,140,ls),
(430,48,o),
(481,0,o),
(580,0,cs),
(950,0,l),
(950,80,l),
(842,80,o),
(770,130,o),
(770,260,cs),
(771,690,ls),
(771,819,o),
(842,860,o),
(951,860,cs),
(1011,860,ls),
(1109,860,o),
(1191,816,o),
(1191,690,cs),
(1191,220,ls),
(1191,69,o),
(1256,0,o),
(1391,0,cs),
(1670,0,ls),
(1811,0,o),
(1870,54,o),
(1870,220,cs),
(1870,763,ls),
(1870,838,o),
(1901,860,o),
(1959,860,cs),
(2025,860,o),
(2050,827,o),
(2050,763,cs),
(2050,0,l),
(2230,0,l),
(2230,763,ls),
(2230,872,o),
(2182,940,o),
(2052,940,cs),
(1964,940,ls),
(1859,940,o),
(1790,890,o),
(1790,763,cs),
(1790,220,ls),
(1790,118,o),
(1760,80,o),
(1670,80,cs),
(1491,80,ls),
(1415,80,o),
(1371,116,o),
(1371,220,cs),
(1371,690,ls),
(1371,836,o),
(1299,940,o),
(1111,940,cs),
(951,940,ls),
(803,940,o),
(691,877,o),
(691,690,cs),
(690,260,ls),
(690,173,o),
(712,114,o),
(754,80,c),
(670,80,ls),
(623,80,o),
(610,101,o),
(610,140,cs),
(610,700,ls),
(610,822,o),
(566,900,o),
(417,900,cs),
(231,900,o),
(170,779,o),
(170,638,cs),
(170,318,ls),
(170,147,o),
(193,61,o),
(319,-10,c)
);
}
);
width = 2410;
}
);
note = uniA9AD;
unicode = 43437;
},
{
glyphname = "wa-java";
lastChange = "2022-07-24 07:10:29 +0000";
layers = (
{
anchors = (
{
name = bottom;
pos = (1720,0);
},
{
name = top;
pos = (940,940);
},
{
name = topright;
pos = (1720,940);
}
);
background = {
shapes = (
{
closed = 1;
nodes = (
(313,70,o),
(270,118,o),
(247,182,o),
(240,265,o),
(240,320,qs),
(240,520,ls),
(240,619,o),
(272,750,o),
(334,828,o),
(423,860,o),
(480,860,qs),
(537,860,l),
(505,833,o),
(460,759,o),
(432,657,o),
(420,525,o),
(420,440,qs),
(420,280,ls),
(420,135,o),
(553,0,o),
(680,0,qs),
(1110,0,ls),
(1237,0,o),
(1370,137,o),
(1370,280,qs),
(1370,580,ls),
(1370,679,o),
(1327,816,o),
(1280,860,q),
(1360,860,ls),
(1449,860,o),
(1540,770,o),
(1540,700,qs),
(1540,0,l),
(1720,0,l),
(1720,700,ls),
(1720,757,o),
(1691,846,o),
(1628,907,o),
(1530,940,o),
(1460,940,qs),
(1000,940,l),
(1000,860,l),
(1076,860,o),
(1185,830,o),
(1256,764,o),
(1290,657,o),
(1290,580,qs),
(1290,280,ls),
(1290,175,o),
(1204,80,o),
(1110,80,qs),
(780,80,ls),
(686,80,o),
(600,173,o),
(600,280,qs),
(600,440,ls),
(600,540,o),
(615,676,o),
(645,770,o),
(690,833,o),
(720,860,q),
(720,940,l),
(480,940,ls),
(407,940,o),
(289,896,o),
(205,797,o),
(160,637,o),
(160,520,qs),
(160,320,ls),
(160,254,o),
(171,153,o),
(203,73,o),
(261,10,o),
(309,-18,q),
(349,49,l)
);
}
);
};
layerId = m01;
shapes = (
{
closed = 1;
nodes = (
(349,49,l),
(254,104,o),
(240,170,o),
(240,320,cs),
(240,620,ls),
(240,758,o),
(281,860,o),
(480,860,cs),
(537,860,l),
(452,813,o),
(420,742,o),
(420,595,cs),
(420,240,ls),
(420,74,o),
(511,0,o),
(680,0,cs),
(1110,0,ls),
(1279,0,o),
(1370,86,o),
(1370,250,cs),
(1370,595,ls),
(1370,722,o),
(1354,813,o),
(1260,860,c),
(1360,860,ls),
(1479,860,o),
(1540,793,o),
(1540,700,cs),
(1540,0,l),
(1720,0,l),
(1720,700,ls),
(1720,851,o),
(1647,940,o),
(1460,940,cs),
(1060,940,l),
(1060,860,l),
(1221,860,o),
(1290,789,o),
(1290,595,cs),
(1290,250,ls),
(1290,137,o),
(1235,80,o),
(1110,80,cs),
(780,80,ls),
(655,80,o),
(600,123,o),
(600,250,cs),
(600,595,ls),
(600,766,o),
(640,813,o),
(720,860,c),
(720,940,l),
(480,940,ls),
(236,940,o),
(160,806,o),
(160,620,cs),
(160,320,ls),
(160,143,o),
(183,56,o),
(309,-18,c)
);
}
);
width = 1900;
}
);
note = uniA9AE;
unicode = 43438;
},
{
glyphname = "saMurda-java";
lastChange = "2022-07-24 07:10:29 +0000";
layers = (
{
background = {
shapes = (
{
closed = 1;
nodes = (
(375,125,o),
(307,164,o),
(262,237,o),
(240,353,o),
(240,440,qs),
(240,533,o),
(271,662,o),
(325,743,o),
(398,780,o),
(440,780,qs),
(521,780,o),
(600,689,o),
(600,580,qs),
(600,140,ls),
(600,68,o),
(668,0,o),
(730,0,qs),
(830,0,ls),
(854,0,o),
(901,12,o),
(937,43,o),
(960,98,o),
(960,140,qs),
(960,720,ls),
(960,796,o),
(1013,860,o),
(1080,860,qs),
(1200,860,ls),
(1265,860,o),
(1340,778,o),
(1340,700,qs),
(1340,385,l),
(1290,389,o),
(1209,404,o),
(1151,426,o),
(1120,458,o),
(1120,480,qs),
(1120,508,o),
(1150,530,o),
(1170,530,qs),
(1188,530,o),
(1225,515,o),
(1240,500,q),
(1293,552,l),
(1265,585,o),
(1197,610,o),
(1160,610,qs),
(1135,610,o),
(1088,595,o),
(1052,563,o),
(1030,512,o),
(1030,475,qs),
(1030,434,o),
(1076,377,o),
(1158,338,o),
(1272,314,o),
(1340,307,q),
(1340,140,ls),
(1340,68,o),
(1408,0,o),
(1470,0,qs),
(1570,0,ls),
(1594,0,o),
(1641,12,o),
(1677,43,o),
(1700,98,o),
(1700,140,qs),
(1700,283,l),
(1797,278,o),
(1989,259,o),
(2080,241,q),
(2080,0,l),
(2260,0,l),
(2260,190,l),
(2310,170,o),
(2393,118,o),
(2426,84,q),
(2403,81,o),
(2347,66,o),
(2318,55,q),
(2345,-20,l),
(2374,-9,o),
(2424,0,o),
(2440,0,qs),
(2465,0,o),
(2497,-29,o),
(2505,-55,q),
(2588,-33,l),
(2572,26,o),
(2511,121,o),
(2426,196,o),
(2320,254,o),
(2260,275,q),
(2260,700,ls),
(2260,745,o),
(2238,831,o),
(2187,898,o),
(2102,940,o),
(2040,940,qs),
(1820,940,ls),
(1713,940,o),
(1620,832,o),
(1620,720,qs),
(1620,369,l),
(1520,373,l),
(1520,700,ls),
(1520,745,o),
(1498,831,o),
(1447,898,o),
(1362,940,o),
(1300,940,qs),
(1080,940,ls),
(973,940,o),
(880,832,o),
(880,720,qs),
(880,140,ls),
(880,113,o),
(859,80,o),
(830,80,qs),
(800,80,o),
(780,108,o),
(780,140,qs),
(780,580,ls),
(780,655,o),
(750,767,o),
(682,842,o),
(571,880,o),
(490,880,qs),
(403,880,o),
(279,817,o),
(198,702,o),
(160,539,o),
(160,440,qs),
(160,348,o),
(186,208,o),
(244,109,o),
(338,49,o),
(406,37,q),
(420,115,l)
);
},
{
closed = 1;
nodes = (
(1700,796,o),
(1753,860,o),
(1820,860,qs),
(1940,860,ls),
(2005,860,o),
(2080,778,o),
(2080,700,qs),
(2080,323,l),
(1987,340,o),
(1794,359,o),
(1700,364,q),
(1700,720,ls)
);
},
{
closed = 1;
nodes = (
(1620,140,ls),
(1620,113,o),
(1599,80,o),
(1570,80,qs),
(1540,80,o),
(1520,108,o),
(1520,140,qs),
(1520,294,l),
(1620,288,l)
);
}
);
};
layerId = m01;
shapes = (
{
closed = 1;
nodes = (
(2186,250,o),
(2354,204,o),
(2441,67,c),
(2449,66,l),
(2416,85,o),
(2347,74,o),
(2318,55,c),
(2345,-20,l),
(2405,6,o),
(2472,18,o),
(2505,-55,c),
(2585,-31,l),
(2508,285,o),
(2203,330,o),
(1950,346,cs),
(1356,384,ls),
(1217,393,o),
(1120,418,o),
(1120,484,cs),
(1120,516,o),
(1143,530,o),
(1171,530,cs),
(1194,530,o),
(1220,520,o),
(1240,500,c),
(1293,552,l),
(1257,596,o),
(1213,610,o),
(1169,610,cs),
(1092,610,o),
(1030,568,o),
(1030,487,cs),
(1030,340,o),
(1228,312,o),
(1354,304,cs),
(1950,265,ls)
);
},
{
ref = "ga-java";
}
);
width = 2600;
}
);
note = uniA9AF;
unicode = 43439;
},
{
glyphname = "saMahaprana-java";
lastChange = "2022-07-24 07:10:29 +0000";
layers = (
{
background = {
shapes = (
{
closed = 1;
nodes = (
(293.267,104.844,o),
(260,160.689,o),
(260,280,cs),
(260,620,ls),
(260,697.333,o),
(276.667,757.833,o),
(302,798.5,cs),
(327.333,839.167,o),
(362.667,860,o),
(400,860,cs),
(434.667,860,o),
(460,833.333,o),
(460,760,cs),
(460,220,ls),
(460,69.333,o),
(528,0,o),
(660,0,cs),
(1180,0,ls),
(1324.584,0,o),
(1380,54.439,o),
(1380,220,cs),
(1380,269,l),
(1440,262.333,o),
(1500,254.667,o),
(1560,244,c),
(1560,0,l),
(1740,0,l),
(1740,195,l),
(1806.667,168.333,o),
(1864.667,133.333,o),
(1910,84,c),
(1878,80,o),
(1838,69.667,o),
(1798,55,c),
(1825,-20,l),
(1863.667,-5.333,o),
(1898.667,0,o),
(1920,0,cs),
(1953.333,0,o),
(1974.333,-20.333,o),
(1985,-55,c),
(2068,-33,l),
(2022.986,133.818,o),
(1896.392,223.072,o),
(1740,277,c),
(1740,700,ls),
(1740,860.617,o),
(1659.256,940,o),
(1560,940,cs),
(1460,940,ls),
(1357.333,940,o),
(1300,884,o),
(1300,780,cs),
(1300,357,l),
(1205.333,367.667,o),
(1120.333,376.667,o),
(1059,394,cs),
(997.667,411.333,o),
(960,437.333,o),
(960,480,cs),
(960,517.333,o),
(981.667,540,o),
(1015,540,cs),
(1039,540,o),
(1068,532,o),
(1100,500,c),
(1155,555,l),
(1120.333,597.667,o),
(1066,620,o),
(1010,620,cs),
(938.51,620,o),
(870,575.963,o),
(870,480,cs),
(870,323.133,o),
(1066.001,301.207,o),
(1300,277,c),
(1300,220,ls),
(1300,117.957,o),
(1269.756,80,o),
(1180,80,cs),
(760,80,ls),
(684,80,o),
(640,116,o),
(640,220,cs),
(640,760,ls),
(640,886.667,o),
(586.667,940,o),
(500,940,cs),
(400,940,ls),
(285.341,940,o),
(180,822.682,o),
(180,620,cs),
(180,280,ls),
(180,124.903,o),
(222.491,55.797,o),
(349,-18,c),
(389,49,l),
(389,49,l)
);
}
);
};
layerId = m01;
shapes = (
{
ref = "pa-java";
},
{
closed = 1;
nodes = (
(1716,235,o),
(1834,207,o),
(1921,67,c),
(1929,66,l),
(1896,85,o),
(1827,74,o),
(1798,55,c),
(1825,-20,l),
(1885,6,o),
(1952,18,o),
(1985,-55,c),
(2065,-31,l),
(1968,285,o),
(1738,314,o),
(1490,346,cs),
(1196,384,ls),
(1058,402,o),
(960,418,o),
(960,484,cs),
(960,516,o),
(983,530,o),
(1011,530,cs),
(1034,530,o),
(1060,520,o),
(1080,500,c),
(1133,552,l),
(1097,596,o),
(1053,610,o),
(1009,610,cs),
(932,610,o),
(870,568,o),
(870,487,cs),
(870,340,o),
(1069,320,o),
(1194,304,cs),
(1490,265,ls)
);
}
);
width = 2040;
}
);
note = uniA9B0;
unicode = 43440;
},
{
glyphname = "sa-java";
lastChange = "2022-07-24 07:35:44 +0000";
layers = (
{
anchors = (
{
name = bottom;
pos = (1800,0);
},
{
name = top;
pos = (960,940);
},
{
name = topright;
pos = (1800,940);
}
);
background = {
shapes = (
{
closed = 1;
nodes = (
(333,70,o),
(290,118,o),
(267,182,o),
(260,265,o),
(260,320,qs),
(260,660,ls),
(260,715,o),
(283,791,o),
(322,839,o),
(373,860,o),
(400,860,qs),
(440,860,ls),
(494,860,o),
(560,792,o),
(560,720,qs),
(560,446,l),
(499,423,o),
(420,302,o),
(420,200,qs),
(420,90,o),
(514,-20,o),
(590,-20,qs),
(622,-20,o),
(677,1,o),
(717,52,o),
(740,137,o),
(740,200,qs),
(740,365,l),
(797,347,o),
(881,276,o),
(952,190,o),
(1016,100,o),
(1089,27,o),
(1179,-20,o),
(1240,-20,qs),
(1283,-20,o),
(1356,5,o),
(1410,72,o),
(1440,188,o),
(1440,280,qs),
(1440,820,ls),
(1440,841,o),
(1457,860,o),
(1480,860,qs),
(1498,860,o),
(1527,849,o),
(1548,822,o),
(1560,776,o),
(1560,740,qs),
(1560,0,l),
(1740,0,l),
(1740,740,ls),
(1740,794,o),
(1713,870,o),
(1668,918,o),
(1610,940,o),
(1580,940,qs),
(1480,940,ls),
(1422,940,o),
(1360,878,o),
(1360,820,qs),
(1360,280,ls),
(1360,221,o),
(1345,144,o),
(1312,99,o),
(1258,80,o),
(1220,80,qs),
(1178,80,o),
(1113,126,o),
(1051,198,o),
(988,285,o),
(908,367,o),
(808,433,o),
(740,449,q),
(740,720,ls),
(740,831,o),
(639,940,o),
(540,940,qs),
(400,940,ls),
(355,940,o),
(275,905,o),
(215,834,o),
(180,729,o),
(180,660,qs),
(180,320,ls),
(180,254,o),
(191,153,o),
(223,73,o),
(281,10,o),
(329,-18,q),
(369,49,l)
);
},
{
closed = 1;
nodes = (
(560,154,o),
(551,120,o),
(540,120,qs),
(524,120,o),
(500,158,o),
(500,200,qs),
(500,260,o),
(531,338,o),
(560,358,q),
(560,200,ls)
);
}
);
};
layerId = m01;
shapes = (
{
closed = 1;
nodes = (
(674.998,-20,o),
(740,30,o),
(740,200,cs),
(740,720,ls),
(740,868,o),
(672,940,o),
(540,940,cs),
(400,940,ls),
(281,940,o),
(180,849,o),
(180,660,cs),
(180,320,ls),
(180,143,o),
(203,56,o),
(329,-18,c),
(369,49,l),
(274,104,o),
(260,170,o),
(260,320,cs),
(260,660,ls),
(260,809,o),
(329,860,o),
(400,860,cs),
(440,860,ls),
(522,860,o),
(560,816,o),
(560,720,cs),
(560,200,ls),
(560,141,o),
(551,120,o),
(533,120,cs),
(505,120,o),
(500,163,o),
(500,198,cs),
(500,287,o),
(532,365,o),
(660,365,cs),
(945,365,o),
(979,-20,o),
(1246,-20,cs),
(1406,-20,o),
(1440,119,o),
(1440,280,cs),
(1440,763,ls),
(1440,838,o),
(1471,860,o),
(1529,860,cs),
(1595,860,o),
(1620,832,o),
(1620,763,cs),
(1620,0,l),
(1800,0,l),
(1800,763,ls),
(1800,872,o),
(1758,940,o),
(1608,940,cs),
(1526,940,ls),
(1417,940,o),
(1360,890,o),
(1360,763,cs),
(1360,280,ls),
(1360,210,o),
(1360,80,o),
(1238,80,cs),
(1033,80,o),
(995,451,o),
(669,451,cs),
(483,451,o),
(420,330,o),
(420,192,cs),
(420,48,o),
(489,-20,o),
(590,-20,cs)
);
}
);
width = 1920;
}
);
note = uniA9B1;
unicode = 43441;
},
{
glyphname = "ha-java";
lastChange = "2022-07-24 07:10:29 +0000";
layers = (
{
anchors = (
{
name = bottom;
pos = (2260,0);
},
{
name = top;
pos = (1220,940);
},
{
name = topright;
pos = (2260,940);
}
);
background = {
shapes = (
{
closed = 1;
nodes = (
(440,220,l),
(440,69,o),
(508,0,o),
(640,0,cs),
(960,0,ls),
(1105,0,o),
(1160,54,o),
(1160,220,cs),
(1160,800,ls),
(1160,849,o),
(1166,860,o),
(1220,860,cs),
(1320,860,ls),
(1399,860,o),
(1440,820,o),
(1440,700,cs),
(1440,140,ls),
(1440,44,o),
(1487,0,o),
(1570,0,cs),
(1670,0,ls),
(1736,0,o),
(1800,29,o),
(1800,140,cs),
(1800,800,ls),
(1800,849,o),
(1806,860,o),
(1860,860,cs),
(1960,860,ls),
(2039,860,o),
(2080,820,o),
(2080,700,cs),
(2080,0,l),
(2260,0,l),
(2260,700,ls),
(2260,878,o),
(2190,940,o),
(2060,940,cs),
(1860,940,ls),
(1755,940,o),
(1720,910,o),
(1720,800,cs),
(1720,140,ls),
(1720,104,o),
(1709,80,o),
(1670,80,cs),
(1630,80,o),
(1620,97,o),
(1620,140,cs),
(1620,700,ls),
(1620,878,o),
(1550,940,o),
(1420,940,cs),
(1220,940,ls),
(1115,940,o),
(1080,910,o),
(1080,800,cs),
(1080,220,ls),
(1080,118,o),
(1050,80,o),
(960,80,cs),
(740,80,ls),
(664,80,o),
(620,116,o),
(620,220,c)
);
},
{
closed = 1;
nodes = (
(620,740,ls),
(620,862,o),
(576,940,o),
(427,940,cs),
(241,940,o),
(180,819,o),
(180,678,cs),
(180,310,ls),
(180,139,o),
(203,53,o),
(329,-18,c),
(369,49,l),
(274,102,o),
(260,164,o),
(260,310,cs),
(260,678,ls),
(260,804,o),
(302,860,o),
(373,860,cs),
(420,860,o),
(440,836,o),
(440,740,cs),
(440,220,l),
(620,220,l)
);
}
);
};
layerId = m01;
shapes = (
{
closed = 1;
nodes = (
(369,49,l),
(274,102,o),
(260,164,o),
(260,310,cs),
(260,678,ls),
(260,804,o),
(302,860,o),
(373,860,cs),
(420,860,o),
(440,836,o),
(440,740,cs),
(440,220,ls),
(440,69,o),
(508,0,o),
(640,0,cs),
(960,0,ls),
(1105,0,o),
(1160,54,o),
(1160,220,cs),
(1160,730,ls),
(1160,829,o),
(1207,860,o),
(1280,860,cs),
(1320,860,ls),
(1395,860,o),
(1440,826,o),
(1440,730,cs),
(1440,140,ls),
(1440,44,o),
(1494,0,o),
(1590,0,cs),
(1670,0,ls),
(1736,0,o),
(1800,29,o),
(1800,140,cs),
(1800,730,ls),
(1800,826,o),
(1832,860,o),
(1922,860,cs),
(1970,860,ls),
(2055,860,o),
(2080,811,o),
(2080,730,cs),
(2080,0,l),
(2260,0,l),
(2260,730,ls),
(2260,840,o),
(2228,940,o),
(2060,940,cs),
(1922,940,ls),
(1788,940,o),
(1720,873,o),
(1720,730,cs),
(1720,140,ls),
(1720,103,o),
(1709,80,o),
(1667,80,cs),
(1630,80,o),
(1620,98,o),
(1620,140,cs),
(1620,730,ls),
(1620,853,o),
(1579,940,o),
(1395,940,cs),
(1280,940,ls),
(1166,940,o),
(1080,887,o),
(1080,730,cs),
(1080,220,ls),
(1080,118,o),
(1050,80,o),
(960,80,cs),
(740,80,ls),
(664,80,o),
(620,116,o),
(620,220,cs),
(620,740,ls),
(620,862,o),
(576,940,o),
(427,940,cs),
(241,940,o),
(180,819,o),
(180,678,cs),
(180,310,ls),
(180,139,o),
(203,53,o),
(329,-18,c)
);
}
);
width = 2440;
},
{
associatedMasterId = m01;
background = {
shapes = (
{
closed = 1;
nodes = (
(353,70,o),
(304,114,o),
(274,168,o),
(260,236,o),
(260,280,qs),
(260,620,ls),
(260,678,o),
(283,768,o),
(321,829,o),
(372,860,o),
(400,860,qs),
(426,860,o),
(460,815,o),
(460,760,qs),
(460,220,ls),
(460,107,o),
(561,0,o),
(660,0,qs),
(960,0,ls),
(1014,0,o),
(1090,22,o),
(1138,73,o),
(1160,158,o),
(1160,220,qs),
(1160,800,ls),
(1160,818,o),
(1164,842,o),
(1176,855,o),
(1200,860,o),
(1220,860,qs),
(1320,860,ls),
(1379,860,o),
(1440,790,o),
(1440,700,qs),
(1440,140,ls),
(1440,68,o),
(1508,0,o),
(1570,0,qs),
(1670,0,ls),
(1694,0,o),
(1741,12,o),
(1777,43,o),
(1800,98,o),
(1800,140,qs),
(1800,800,ls),
(1800,818,o),
(1804,842,o),
(1816,855,o),
(1840,860,o),
(1860,860,qs),
(1960,860,ls),
(2019,860,o),
(2080,790,o),
(2080,700,qs),
(2080,0,l),
(2260,0,l),
(2260,700,ls),
(2260,767,o),
(2234,858,o),
(2184,915,o),
(2109,940,o),
(2060,940,qs),
(1860,940,ls),
(1820,940,o),
(1766,927,o),
(1734,895,o),
(1720,841,o),
(1720,800,qs),
(1720,140,ls),
(1720,113,o),
(1699,80,o),
(1670,80,qs),
(1640,80,o),
(1620,108,o),
(1620,140,qs),
(1620,700,ls),
(1620,767,o),
(1594,858,o),
(1544,915,o),
(1469,940,o),
(1420,940,qs),
(1220,940,ls),
(1180,940,o),
(1126,927,o),
(1094,895,o),
(1080,841,o),
(1080,800,qs),
(1080,220,ls),
(1080,181,o),
(1068,128,o),
(1039,95,o),
(993,80,o),
(960,80,qs),
(760,80,ls),
(703,80,o),
(640,142,o),
(640,220,qs),
(640,760,ls),
(640,855,o),
(565,940,o),
(500,940,qs),
(400,940,ls),
(357,940,o),
(278,897,o),
(217,815,o),
(180,696,o),
(180,620,qs),
(180,280,ls),
(180,222,o),
(197,135,o),
(237,66,o),
(301,10,o),
(349,-18,q),
(389,49,l)
);
}
);
};
layerId = "69BE7A3C-315A-4060-B5BF-2AAF3E76B20B";
name = "30 May 21 21.49";
shapes = (
{
closed = 1;
nodes = (
(460,220,l),
(460,69.333,o),
(528,0,o),
(660,0,cs),
(960,0,ls),
(1104.584,0,o),
(1160,54.439,o),
(1160,220,cs),
(1160,800,ls),
(1160,848.979,o),
(1166.261,860,o),
(1220,860,cs),
(1320,860,ls),
(1398.667,860,o),
(1440,820,o),
(1440,700,cs),
(1440,140,ls),
(1440,44,o),
(1487.333,0,o),
(1570,0,cs),
(1670,0,ls),
(1735.806,0,o),
(1800,28.806,o),
(1800,140,cs),
(1800,800,ls),
(1800,848.979,o),
(1806.261,860,o),
(1860,860,cs),
(1960,860,ls),
(2038.667,860,o),
(2080,820,o),
(2080,700,cs),
(2080,0,l),
(2260,0,l),
(2260,700,ls),
(2260,878.125,o),
(2189.732,940,o),
(2060,940,cs),
(1860,940,ls),
(1754.61,940,o),
(1720,910.367,o),
(1720,800,cs),
(1720,140,ls),
(1720,104,o),
(1708.667,80,o),
(1670,80,cs),
(1630,80,o),
(1620,97.333,o),
(1620,140,cs),
(1620,700,ls),
(1620,878.125,o),
(1549.732,940,o),
(1420,940,cs),
(1220,940,ls),
(1114.61,940,o),
(1080,910.367,o),
(1080,800,cs),
(1080,220,ls),
(1080,117.957,o),
(1049.756,80,o),
(960,80,cs),
(760,80,ls),
(684,80,o),
(640,116,o),
(640,220,c)
);
},
{
closed = 1;
nodes = (
(620,480,l),
(620,740,ls),
(620,862,o),
(576,940,o),
(427,940,cs),
(241,940,o),
(180,819,o),
(180,678,cs),
(180,310,ls),
(180,139,o),
(203,53,o),
(329,-18,c),
(369,49,l),
(274,102,o),
(260,164,o),
(260,310,cs),
(260,678,ls),
(260,804,o),
(302,860,o),
(373,860,cs),
(420,860,o),
(440,836,o),
(440,740,cs),
(440,0,l),
(620,0,l),
(620,400,l)
);
},
{
ref = "ka-java";
}
);
width = 2440;
},
{
associatedMasterId = m01;
background = {
shapes = (
{
ref = "ka-java";
}
);
};
layerId = "683F79C2-6998-4C95-B445-960F21008D4B";
name = "30 May 21 21.50";
shapes = (
{
closed = 1;
nodes = (
(440,220,l),
(440,69,o),
(508,0,o),
(640,0,cs),
(960,0,ls),
(1104.584,0,o),
(1160,54.439,o),
(1160,220,cs),
(1160,800,ls),
(1160,848.979,o),
(1166.261,860,o),
(1220,860,cs),
(1320,860,ls),
(1398.667,860,o),
(1440,820,o),
(1440,700,cs),
(1440,140,ls),
(1440,44,o),
(1487.333,0,o),
(1570,0,cs),
(1670,0,ls),
(1735.806,0,o),
(1800,28.806,o),
(1800,140,cs),
(1800,800,ls),
(1800,848.979,o),
(1806.261,860,o),
(1860,860,cs),
(1960,860,ls),
(2038.667,860,o),
(2080,820,o),
(2080,700,cs),
(2080,0,l),
(2260,0,l),
(2260,700,ls),
(2260,878.125,o),
(2189.732,940,o),
(2060,940,cs),
(1860,940,ls),
(1754.61,940,o),
(1720,910.367,o),
(1720,800,cs),
(1720,140,ls),
(1720,104,o),
(1708.667,80,o),
(1670,80,cs),
(1630,80,o),
(1620,97.333,o),
(1620,140,cs),
(1620,700,ls),
(1620,878.125,o),
(1549.732,940,o),
(1420,940,cs),
(1220,940,ls),
(1114.61,940,o),
(1080,910.367,o),
(1080,800,cs),
(1080,220,ls),
(1080,117.957,o),
(1049.756,80,o),
(960,80,cs),
(740,80,ls),
(664,80,o),
(620,116,o),
(620,220,c)
);
},
{
closed = 1;
nodes = (
(620,740,ls),
(620,862,o),
(576,940,o),
(427,940,cs),
(241,940,o),
(180,819,o),
(180,678,cs),
(180,310,ls),
(180,139,o),
(203,53,o),
(329,-18,c),
(369,49,l),
(274,102,o),
(260,164,o),
(260,310,cs),
(260,678,ls),
(260,804,o),
(302,860,o),
(373,860,cs),
(420,860,o),
(440,836,o),
(440,740,cs),
(440,220,l),
(620,220,l)
);
}
);
width = 2440;
}
);
note = uniA9B2;
unicode = 43442;
},
{
glyphname = "e-java";
lastChange = "2022-07-24 07:24:09 +0000";
layers = (
{
anchors = (
{
name = top;
pos = (849,940);
},
{
name = topCerek;
pos = (787,940);
},
{
name = top_2;
pos = (1452,940);
},
{
name = topright;
pos = (1472,940);
}
);
background = {
shapes = (
{
closed = 1;
nodes = (
(806,620,o),
(950,726,o),
(950,856,cs),
(950,931,o),
(903,960,o),
(847,960,cs),
(648,960,o),
(130,596,o),
(130,215,cs),
(130,64,o),
(212,-20,o),
(376,-20,cs),
(572,-20,o),
(806,100,o),
(1043,100,cs),
(1359,100,o),
(1560,-105,o),
(1560,-360,c),
(1630,-360,l),
(1630,-2,o),
(1488,180,o),
(1118,180,cs),
(831,180,o),
(644,70,o),
(456,70,cs),
(352,70,o),
(290,104,o),
(290,192,cs),
(290,404,o),
(655,880,o),
(813,880,cs),
(836,880,o),
(850,870,o),
(850,849,cs),
(850,805,o),
(784,760,o),
(690,760,c),
(690,620,l)
);
}
);
};
layerId = m01;
shapes = (
{
closed = 1;
nodes = (
(831,529,o),
(970,657,o),
(970,819,cs),
(970,922,o),
(914,960,o),
(849,960,cs),
(648,960,o),
(130,596,o),
(130,215,cs),
(130,64,o),
(212,-20,o),
(376,-20,cs),
(573,-20,o),
(804,100,o),
(1045,100,cs),
(1359,100,o),
(1560,-105,o),
(1560,-360,c),
(1630,-360,l),
(1630,-2,o),
(1488,180,o),
(1118,180,cs),
(831,180,o),
(644,70,o),
(456,70,cs),
(351,70,o),
(290,104,o),
(290,193,cs),
(290,410,o),
(647,900,o),
(828,900,cs),
(857,900,o),
(883,887,o),
(883,834,cs),
(883,709,o),
(740,674,o),
(604,703,c),
(584,661,l)
);
}
);
width = 1560;
},
{
anchors = (
{
name = topCerek;
pos = (787,940);
}
);
associatedMasterId = m01;
background = {
shapes = (
{
closed = 1;
nodes = (
(733,640,o),
(826,670,o),
(901,727,o),
(950,809,o),
(950,860,qs),
(950,882,o),
(935,926,o),
(905,959,o),
(860,980,o),
(830,980,qs),
(787,980,o),
(650,921,o),
(494,816,o),
(337,673,o),
(210,504,o),
(130,316,o),
(130,220,qs),
(130,99,o),
(254,-20,o),
(390,-20,qs),
(459,-20,o),
(601,17,o),
(752,62,o),
(917,100,o),
(1010,100,qs),
(1080,100,o),
(1215,65,o),
(1335,3,o),
(1436,-83,o),
(1509,-185,o),
(1550,-300,o),
(1550,-360,q),
(1630,-360,l),
(1630,-218,o),
(1574,-13,o),
(1444,118,o),
(1229,180,o),
(1070,180,qs),
(980,180,o),
(847,168,o),
(741,150,o),
(653,130,o),
(566,112,o),
(471,100,o),
(410,100,qs),
(377,100,o),
(331,108,o),
(303,131,o),
(290,170,o),
(290,200,qs),
(290,247,o),
(345,387,o),
(435,543,o),
(548,698,o),
(664,822,o),
(771,900,o),
(810,900,qs),
(850,900,o),
(850,860,qs),
(850,839,o),
(834,809,o),
(797,789,o),
(735,780,o),
(690,780,q),
(690,640,l)
);
}
);
};
layerId = "593D5591-D7F5-4385-A231-655A41A9AB4B";
name = "2 Jan 22 23.11";
shapes = (
{
closed = 1;
nodes = (
(806,620,o),
(950,726,o),
(950,856,cs),
(950,931,o),
(903,960,o),
(847,960,cs),
(648,960,o),
(130,596,o),
(130,215,cs),
(130,64,o),
(212,-20,o),
(376,-20,cs),
(572,-20,o),
(806,100,o),
(1043,100,cs),
(1359,100,o),
(1560,-105,o),
(1560,-360,c),
(1630,-360,l),
(1630,-2,o),
(1488,180,o),
(1118,180,cs),
(831,180,o),
(644,70,o),
(456,70,cs),
(352,70,o),
(290,104,o),
(290,192,cs),
(290,404,o),
(655,880,o),
(813,880,cs),
(836,880,o),
(850,870,o),
(850,849,cs),
(850,805,o),
(784,760,o),
(690,760,c),
(690,620,l)
);
}
);
width = 1630;
}
);
note = uniA98C;
unicode = 43404;
},
{
glyphname = "o-java";
lastChange = "2022-07-24 07:10:29 +0000";
layers = (
{
anchors = (
{
name = top;
pos = (960,940);
},
{
name = topright;
pos = (1900,940);
}
);
background = {
shapes = (
{
closed = 1;
nodes = (
(356,-2000,o),
(406,-1975,o),
(596,-1881,cs),
(665,-1847,o),
(791,-1786,o),
(824,-1770,cs),
(996,-1688,o),
(1191,-1616,o),
(1386,-1574,cs),
(1494,-1551,o),
(1581,-1540,o),
(1718,-1540,cs),
(1917,-1540,o),
(2059,-1563,o),
(2122,-1587,c),
(2148,-1516,l),
(2035,-1471,o),
(1852,-1460,o),
(1724,-1460,cs),
(1455,-1460,o),
(1246,-1511,o),
(1053,-1579,cs),
(955,-1613,o),
(867,-1650,o),
(784,-1690,cs),
(650,-1754,o),
(473,-1849,o),
(398,-1886,cs),
(351,-1909,o),
(324,-1920,o),
(300,-1920,cs),
(273,-1920,o),
(260,-1907,o),
(260,-1880,cs),
(260,-1823,o),
(321,-1746,o),
(414,-1652,cs),
(504,-1562,o),
(601,-1477,o),
(782,-1324,cs),
(1061,-1088,o),
(1398,-807,o),
(1587,-560,cs),
(1681,-437,o),
(1740,-322,o),
(1740,-220,cs),
(1740,700,ls),
(1740,851,o),
(1677,940,o),
(1480,940,cs),
(1020,940,l),
(1020,860,l),
(1223,860,o),
(1310,784,o),
(1310,580,cs),
(1310,280,ls),
(1310,140,o),
(1255,80,o),
(1130,80,cs),
(800,80,ls),
(675,80,o),
(620,137,o),
(620,280,cs),
(620,440,ls),
(620,707,o),
(660,788,o),
(740,860,c),
(740,940,l),
(500,940,ls),
(259,940,o),
(180,769,o),
(180,520,cs),
(180,320,ls),
(180,143,o),
(203,56,o),
(329,-18,c),
(369,49,l),
(274,104,o),
(260,170,o),
(260,320,cs),
(260,520,ls),
(260,717,o),
(303,860,o),
(500,860,cs),
(557,860,l),
(470,787,o),
(440,665,o),
(440,440,cs),
(440,280,ls),
(440,87,o),
(531,0,o),
(700,0,cs),
(1130,0,ls),
(1299,0,o),
(1390,89,o),
(1390,280,cs),
(1390,580,ls),
(1390,712,o),
(1367,805,o),
(1270,860,c),
(1410,860,ls),
(1509,860,o),
(1560,809,o),
(1560,690,cs),
(1560,-220,ls),
(1560,-348,o),
(1505,-465,o),
(1416,-575,cs),
(1328,-683,o),
(1210,-783,o),
(1073,-886,cs),
(802,-1090,o),
(495,-1284,o),
(323,-1507,cs),
(228,-1630,o),
(180,-1754,o),
(180,-1874,cs),
(180,-1974,o),
(213,-2000,o),
(285,-2000,cs)
);
}
);
};
layerId = m01;
shapes = (
{
closed = 1;
nodes = (
(489,-2000,o),
(973,-1540,o),
(1733,-1540,cs),
(1895,-1540,o),
(2046,-1561,o),
(2122,-1587,c),
(2148,-1516,l),
(2045,-1477,o),
(1891,-1460,o),
(1739,-1460,cs),
(949,-1460,o),
(465,-1920,o),
(299,-1920,cs),
(271,-1920,o),
(260,-1907,o),
(260,-1872,cs),
(260,-1460,o),
(1740,-1029,o),
(1740,-160,cs),
(1740,700,ls),
(1740,851,o),
(1667,940,o),
(1480,940,cs),
(1080,940,l),
(1080,860,l),
(1241,860,o),
(1310,789,o),
(1310,595,cs),
(1310,250,ls),
(1310,137,o),
(1255,80,o),
(1130,80,cs),
(800,80,ls),
(675,80,o),
(620,123,o),
(620,250,cs),
(620,595,ls),
(620,766,o),
(660,813,o),
(740,860,c),
(740,940,l),
(500,940,ls),
(256,940,o),
(180,806,o),
(180,620,cs),
(180,320,ls),
(180,143,o),
(203,56,o),
(329,-18,c),
(369,49,l),
(274,104,o),
(260,170,o),
(260,320,cs),
(260,620,ls),
(260,758,o),
(301,860,o),
(500,860,cs),
(557,860,l),
(472,813,o),
(440,742,o),
(440,595,cs),
(440,240,ls),
(440,74,o),
(531,0,o),
(700,0,cs),
(1130,0,ls),
(1299,0,o),
(1390,86,o),
(1390,250,cs),
(1390,595,ls),
(1390,722,o),
(1374,813,o),
(1280,860,c),
(1380,860,ls),
(1499,860,o),
(1560,793,o),
(1560,700,cs),
(1560,-220,ls),
(1560,-957,o),
(180,-1165,o),
(180,-1847,cs),
(180,-1960,o),
(218,-2000,o),
(280,-2000,cs)
);
}
);
width = 1920;
}
);
note = uniA98E;
unicode = 43406;
},
{
glyphname = "pangkon-java";
lastChange = "2022-07-24 07:10:29 +0000";
layers = (
{
background = {
shapes = (
{
closed = 1;
nodes = (
(-1065,-1124,o),
(-1168,-1218,o),
(-1230,-1342,o),
(-1230,-1420,qs),
(-1230,-1489,o),
(-1178,-1593,o),
(-1085,-1664,o),
(-956,-1700,o),
(-880,-1700,qs),
(-817,-1700,o),
(-722,-1688,o),
(-643,-1670,o),
(-575,-1650,o),
(-503,-1632,o),
(-422,-1620,o),
(-370,-1620,qs),
(-328,-1620,o),
(-244,-1633,o),
(-160,-1648,o),
(-74,-1660,o),
(-30,-1660,qs),
(46,-1660,o),
(146,-1627,o),
(206,-1559,o),
(230,-1453,o),
(230,-1380,qs),
(230,780,ls),
(230,860,o),
(310,860,qs),
(359,860,o),
(410,788,o),
(410,700,qs),
(410,-1560,ls),
(410,-1620,o),
(430,-1722,o),
(462,-1808,o),
(503,-1878,o),
(524,-1905,qs),
(574,-1969,o),
(639,-2012,q),
(709,-1953,l),
(677,-1915,o),
(632,-1835,o),
(604,-1741,o),
(590,-1629,o),
(590,-1560,qs),
(590,700,ls),
(590,760,o),
(562,850,o),
(513,910,o),
(447,940,o),
(410,940,qs),
(310,940,ls),
(233,940,o),
(150,858,o),
(150,780,qs),
(150,-1380,ls),
(150,-1439,o),
(132,-1516,o),
(90,-1561,o),
(21,-1580,o),
(-30,-1580,qs),
(-77,-1580,o),
(-152,-1561,o),
(-227,-1539,o),
(-313,-1520,o),
(-370,-1520,qs),
(-442,-1520,o),
(-555,-1545,o),
(-660,-1575,o),
(-766,-1600,o),
(-830,-1600,qs),
(-877,-1600,o),
(-958,-1579,o),
(-1017,-1531,o),
(-1050,-1455,o),
(-1050,-1400,qs),
(-1050,-1363,o),
(-1025,-1290,o),
(-971,-1222,o),
(-885,-1159,o),
(-823,-1130,q),
(-861,-1048,l),
(-932,-1063,o)
);
}
);
};
layerId = m01;
shapes = (
{
closed = 1;
nodes = (
(705,-1950,l),
(624,-1851,o),
(590,-1742,o),
(590,-1560,cs),
(590,750,ls),
(590,877,o),
(527,940,o),
(406,940,cs),
(330,940,ls),
(214,940,o),
(150,874,o),
(150,750,cs),
(150,-1380,ls),
(150,-1527,o),
(108,-1580,o),
(-14,-1580,cs),
(-163,-1580,o),
(-206,-1500,o),
(-373,-1500,cs),
(-559,-1500,o),
(-673,-1600,o),
(-837,-1600,cs),
(-957,-1600,o),
(-1050,-1546,o),
(-1050,-1408,cs),
(-1050,-1264,o),
(-945,-1189,o),
(-823,-1130,c),
(-857,-1048,l),
(-1052,-1089,o),
(-1230,-1212,o),
(-1230,-1416,cs),
(-1230,-1595,o),
(-1092,-1700,o),
(-863,-1700,cs),
(-639,-1700,o),
(-568,-1600,o),
(-381,-1600,cs),
(-236,-1600,o),
(-171,-1660,o),
(-18,-1660,cs),
(174,-1660,o),
(230,-1566,o),
(230,-1380,cs),
(230,750,ls),
(230,827,o),
(260,860,o),
(324,860,cs),
(387,860,o),
(410,828,o),
(410,750,cs),
(410,-1560,ls),
(410,-1749,o),
(497,-1918,o),
(639,-2012,c)
);
}
);
width = 770;
}
);
note = uniA9C0;
unicode = 43456;
},
{
glyphname = "taling-java";
lastChange = "2022-07-24 07:10:29 +0000";
layers = (
{
anchors = (
{
name = topCerek;
pos = (712,940);
}
);
background = {
shapes = (
{
closed = 1;
nodes = (
(258,103,o),
(240,167,o),
(240,293,cs),
(240,560,ls),
(240,732,o),
(289,800,o),
(351,800,cs),
(409,800,o),
(420,740,o),
(420,680,cs),
(420,140,ls),
(420,48,o),
(468,0,o),
(560,0,cs),
(880,0,l),
(880,80,l),
(817,80,o),
(780,124,o),
(780,260,cs),
(780,715,ls),
(780,821,o),
(818,860,o),
(907,860,cs),
(988,860,o),
(1020,828,o),
(1020,715,cs),
(1020,-1560,ls),
(1020,-1713,o),
(1075,-1829,o),
(1134,-1905,cs),
(1166,-1946,o),
(1203,-1981,o),
(1249,-2012,c),
(1319,-1953,l),
(1235,-1853,o),
(1200,-1743,o),
(1200,-1560,cs),
(1200,715,ls),
(1200,887,o),
(1130,940,o),
(987,940,cs),
(917,940,ls),
(779,940,o),
(700,868,o),
(700,715,cs),
(700,260,ls),
(700,183,o),
(710,122,o),
(732,80,c),
(660,80,ls),
(613,80,o),
(600,101,o),
(600,140,cs),
(600,680,ls),
(600,834,o),
(539,900,o),
(408,900,cs),
(254,900,o),
(160,811,o),
(160,560,cs),
(160,293,ls),
(160,131,o),
(200,46,o),
(299,-10,c),
(338,58,l)
);
}
);
};
layerId = m01;
shapes = (
{
closed = 1;
nodes = (
(1420,-1953,l),
(1336,-1853,o),
(1301,-1743,o),
(1301,-1560,cs),
(1301,710,ls),
(1301,844,o),
(1237,940,o),
(1071,940,cs),
(941,940,ls),
(793,940,o),
(681,882,o),
(681,710,cs),
(680,260,ls),
(680,173,o),
(702,114,o),
(744,80,c),
(660,80,ls),
(613,80,o),
(600,101,o),
(600,140,cs),
(600,700,ls),
(600,822,o),
(556,900,o),
(407,900,cs),
(221,900,o),
(160,779,o),
(160,638,cs),
(160,318,ls),
(160,147,o),
(183,61,o),
(309,-10,c),
(349,57,l),
(254,110,o),
(240,172,o),
(240,318,cs),
(240,638,ls),
(240,764,o),
(286,820,o),
(354,820,cs),
(400,820,o),
(420,795,o),
(420,700,cs),
(420,140,ls),
(420,48,o),
(471,0,o),
(570,0,cs),
(940,0,l),
(940,80,l),
(832,80,o),
(760,130,o),
(760,260,cs),
(761,710,ls),
(761,824,o),
(832,860,o),
(941,860,cs),
(971,860,ls),
(1053,860,o),
(1121,821,o),
(1121,710,cs),
(1121,-1560,ls),
(1121,-1745,o),
(1203,-1913,o),
(1350,-2012,c)
);
}
);
width = 1450;
},
{
associatedMasterId = m01;
background = {
shapes = (
{
closed = 1;
nodes = (
(328,118,o),
(290,160,o),
(268,216,o),
(260,289,o),
(260,336,qs),
(260,520,ls),
(260,593,o),
(277,699,o),
(304,768,o),
(340,800,o),
(360,800,qs),
(387,800,o),
(420,747,o),
(420,680,qs),
(420,140,ls),
(420,71,o),
(491,0,o),
(560,0,qs),
(820,0,l),
(820,80,l),
(798,80,o),
(761,96,o),
(735,137,o),
(720,206,o),
(720,260,qs),
(720,680,ls),
(720,776,o),
(779,860,o),
(840,860,qs),
(874,860,o),
(920,847,o),
(948,814,o),
(960,760,o),
(960,720,qs),
(960,-1560,ls),
(960,-1620,o),
(980,-1722,o),
(1012,-1808,o),
(1053,-1878,o),
(1074,-1905,qs),
(1124,-1969,o),
(1189,-2012,q),
(1259,-1953,l),
(1227,-1915,o),
(1182,-1835,o),
(1154,-1741,o),
(1140,-1629,o),
(1140,-1560,qs),
(1140,720,ls),
(1140,780,o),
(1114,864,o),
(1060,917,o),
(977,940,o),
(920,940,qs),
(840,940,ls),
(795,940,o),
(722,911,o),
(669,849,o),
(640,750,o),
(640,680,qs),
(640,260,ls),
(640,141,o),
(672,80,q),
(660,80,ls),
(625,80,o),
(600,111,o),
(600,140,qs),
(600,680,ls),
(600,798,o),
(509,900,o),
(410,900,qs),
(357,900,o),
(272,859,o),
(212,768,o),
(180,623,o),
(180,520,qs),
(180,336,ls),
(180,271,o),
(197,176,o),
(232,104,o),
(284,53,o),
(319,33,q),
(358,101,l)
);
}
);
};
layerId = "585ACFF3-94EA-4595-95AB-AA8E62A1298B";
name = "30 May 21 22.10";
shapes = (
{
closed = 1;
nodes = (
(258,103,o),
(240,167,o),
(240,293,cs),
(240,560,ls),
(240,732,o),
(289,800,o),
(351,800,cs),
(409,800,o),
(420,740,o),
(420,680,cs),
(420,140,ls),
(420,48,o),
(468,0,o),
(560,0,cs),
(880,0,l),
(880,80,l),
(817,80,o),
(780,124,o),
(780,260,cs),
(780,715,ls),
(780,821,o),
(818,860,o),
(907,860,cs),
(988,860,o),
(1020,828,o),
(1020,715,cs),
(1020,-1560,ls),
(1020,-1713,o),
(1075,-1829,o),
(1134,-1905,cs),
(1166,-1946,o),
(1203,-1981,o),
(1249,-2012,c),
(1319,-1953,l),
(1235,-1853,o),
(1200,-1743,o),
(1200,-1560,cs),
(1200,715,ls),
(1200,887,o),
(1130,940,o),
(987,940,cs),
(917,940,ls),
(779,940,o),
(700,868,o),
(700,715,cs),
(700,260,ls),
(700,183,o),
(710,122,o),
(732,80,c),
(660,80,ls),
(613,80,o),
(600,101,o),
(600,140,cs),
(600,680,ls),
(600,834,o),
(539,900,o),
(408,900,cs),
(254,900,o),
(160,811,o),
(160,560,cs),
(160,293,ls),
(160,131,o),
(200,46,o),
(299,-10,c),
(338,58,l)
);
}
);
width = 1320;
}
);
note = uniA9BA;
unicode = 43450;
},
{
glyphname = "wignyan-java";
lastChange = "2022-07-24 07:10:29 +0000";
layers = (
{
background = {
shapes = (
{
closed = 1;
nodes = (
(236,97,o),
(180,0,q),
(201,-35,o),
(280,-173,o),
(373,-363,o),
(470,-600,o),
(549,-870,o),
(600,-1167,o),
(600,-1323,qs),
(600,-1355,o),
(600,-1440,o),
(597,-1536,o),
(591,-1638,o),
(585,-1688,q),
(645,-1723,l),
(685,-1654,o),
(740,-1405,o),
(740,-1220,qs),
(740,-1062,o),
(690,-785,o),
(608,-545,o),
(504,-343,o),
(397,-177,o),
(297,-47,o),
(260,0,q),
(308,82,o),
(407,266,o),
(488,451,o),
(540,631,o),
(540,710,qs),
(540,827,o),
(441,940,o),
(360,940,qs),
(321,940,o),
(255,914,o),
(207,863,o),
(180,788,o),
(180,740,qs),
(180,680,o),
(204,584,o),
(250,507,o),
(318,445,o),
(362,420,q),
(332,309,o)
);
},
{
closed = 1;
nodes = (
(260,638,o),
(260,710,qs),
(260,764,o),
(300,820,o),
(330,820,qs),
(361,820,o),
(400,755,o),
(400,680,qs),
(400,635,o),
(390,546,o),
(381,501,q),
(326,537,o)
);
}
);
};
layerId = m01;
shapes = (
{
closed = 1;
nodes = (
(308,228,o),
(180,0,c),
(471,-497,o),
(600,-790,o),
(600,-1342,cs),
(600,-1543,o),
(583,-1783,o),
(505,-1971,c),
(565,-2000,l),
(672,-1833,o),
(740,-1542,o),
(740,-1217,cs),
(740,-713,o),
(576,-401,o),
(260,0,c),
(387,224,o),
(540,515,o),
(540,734,cs),
(540,885,o),
(468,960,o),
(358,960,cs),
(256,960,o),
(180,896,o),
(180,747,cs),
(180,599,o),
(255,494,o),
(377,432,c),
(395,512,l),
(314,561,o),
(260,628,o),
(260,728,cs),
(260,803,o),
(290,840,o),
(330,840,cs),
(389,840,o),
(400,760,o),
(400,692,cs),
(400,492,o)
);
}
);
width = 700;
}
);
note = uniA983;
unicode = 43395;
},
{
glyphname = "cakra-java.isol";
lastChange = "2022-07-24 07:10:29 +0000";
layers = (
{
layerId = m01;
shapes = (
{
closed = 1;
nodes = (
(590,-210,o),
(653,-160,o),
(689,-54,c),
(638,-19,l),
(615,-51,o),
(574,-70,o),
(526,-70,cs),
(379,-70,o),
(270,107,o),
(270,464,cs),
(270,894,o),
(428,1340,o),
(780,1660,c),
(720,1720,l),
(365,1395,o),
(170,938,o),
(170,442,cs),
(170,123,o),
(251,-210,o),
(495,-210,cs)
);
}
);
width = 540;
}
);
},
{
glyphname = "jaMahapranaPas-java";
lastChange = "2022-07-24 07:10:29 +0000";
layers = (
{
background = {
shapes = (
{
closed = 1;
nodes = (
(-1343,-1009,o),
(-1513,-1162,o),
(-1615,-1364,o),
(-1615,-1500,qs),
(-1615,-1606,o),
(-1539,-1789,o),
(-1392,-1923,o),
(-1176,-2000,o),
(-1035,-2000,qs),
(-967,-2000,o),
(-859,-1985,o),
(-768,-1963,o),
(-687,-1937,o),
(-608,-1915,o),
(-524,-1900,o),
(-475,-1900,qs),
(-408,-1900,o),
(-276,-1931,o),
(-137,-1969,o),
(16,-2000,o),
(105,-2000,qs),
(185,-2000,o),
(318,-1951,o),
(413,-1855,o),
(465,-1713,o),
(465,-1620,qs),
(465,545,l),
(510,507,o),
(590,425,o),
(650,335,o),
(685,235,o),
(685,180,qs),
(685,134,o),
(669,41,o),
(633,-44,o),
(572,-117,o),
(527,-143,q),
(571,-218,l),
(643,-195,o),
(752,-118,o),
(827,-15,o),
(865,109,o),
(865,180,qs),
(865,266,o),
(795,415,o),
(681,545,o),
(538,657,o),
(465,706,q),
(465,750,ls),
(465,856,o),
(416,998,o),
(339,1084,o),
(243,1120,o),
(195,1120,qs),
(107,1120,o),
(25,1035,o),
(25,960,qs),
(25,916,o),
(89,832,o),
(191,747,o),
(320,657,o),
(385,608,q),
(385,-1620,ls),
(385,-1761,o),
(243,-1920,o),
(105,-1920,qs),
(19,-1920,o),
(-132,-1889,o),
(-272,-1851,o),
(-406,-1820,o),
(-475,-1820,qs),
(-549,-1820,o),
(-675,-1851,o),
(-796,-1889,o),
(-922,-1920,o),
(-995,-1920,qs),
(-1212,-1920,o),
(-1435,-1706,o),
(-1435,-1500,qs),
(-1435,-1385,o),
(-1361,-1208,o),
(-1234,-1070,o),
(-1063,-963,o),
(-967,-918,q),
(-1005,-836,l),
(-1123,-890,o)
);
},
{
closed = 1;
nodes = (
(237,854,o),
(166,909,o),
(125,959,o),
(125,980,qs),
(125,1004,o),
(161,1040,o),
(205,1040,qs),
(237,1040,o),
(302,1008,o),
(353,940,o),
(385,833,o),
(385,758,q),
(332,792,o)
);
}
);
};
layerId = m01;
shapes = (
{
closed = 1;
nodes = (
(-1435,-1192,o),
(-1222,-1038,o),
(-967,-918,c),
(-1005,-836,l),
(-1322,-981,o),
(-1615,-1138,o),
(-1615,-1496,cs),
(-1615,-1828,o),
(-1363,-2000,o),
(-1040,-2000,cs),
(-793,-2000,o),
(-676,-1900,o),
(-482,-1900,cs),
(-288,-1900,o),
(-119,-2000,o),
(89,-2000,cs),
(327,-2000,o),
(465,-1868,o),
(465,-1620,cs),
(465,750,ls),
(465,1034,o),
(323,1120,o),
(193,1120,cs),
(78,1120,o),
(25,1052,o),
(25,976,cs),
(25,710,o),
(685,592,o),
(685,167,cs),
(685,60,o),
(643,-78,o),
(527,-143,c),
(571,-218,l),
(759,-160,o),
(865,-3,o),
(865,168,cs),
(865,620,o),
(125,817,o),
(125,982,cs),
(125,1010,o),
(146,1040,o),
(205,1040,cs),
(337,1040,o),
(385,888,o),
(385,736,cs),
(385,-1620,ls),
(385,-1808,o),
(298,-1920,o),
(88,-1920,cs),
(-111,-1920,o),
(-285,-1820,o),
(-480,-1820,cs),
(-674,-1820,o),
(-786,-1920,o),
(-1005,-1920,cs),
(-1277,-1920,o),
(-1435,-1767,o),
(-1435,-1500,cs)
);
}
);
width = 970;
}
);
note = uniA999.conj;
},
{
glyphname = "jaMahapranaPas-java.base";
lastChange = "2022-07-24 07:10:29 +0000";
layers = (
{
background = {
shapes = (
{
closed = 1;
nodes = (
(-1343,-1009,o),
(-1513,-1162,o),
(-1615,-1364,o),
(-1615,-1500,qs),
(-1615,-1606,o),
(-1539,-1789,o),
(-1392,-1923,o),
(-1176,-2000,o),
(-1035,-2000,qs),
(-967,-2000,o),
(-859,-1985,o),
(-768,-1963,o),
(-687,-1937,o),
(-608,-1915,o),
(-524,-1900,o),
(-475,-1900,qs),
(-408,-1900,o),
(-276,-1931,o),
(-137,-1969,o),
(16,-2000,o),
(105,-2000,qs),
(185,-2000,o),
(318,-1951,o),
(413,-1855,o),
(465,-1713,o),
(465,-1620,qs),
(465,545,l),
(510,507,o),
(590,425,o),
(650,335,o),
(685,235,o),
(685,180,qs),
(685,134,o),
(669,41,o),
(633,-44,o),
(572,-117,o),
(527,-143,q),
(571,-218,l),
(643,-195,o),
(752,-118,o),
(827,-15,o),
(865,109,o),
(865,180,qs),
(865,266,o),
(795,415,o),
(681,545,o),
(538,657,o),
(465,706,q),
(465,750,ls),
(465,856,o),
(416,998,o),
(339,1084,o),
(243,1120,o),
(195,1120,qs),
(107,1120,o),
(25,1035,o),
(25,960,qs),
(25,916,o),
(89,832,o),
(191,747,o),
(320,657,o),
(385,608,q),
(385,-1620,ls),
(385,-1761,o),
(243,-1920,o),
(105,-1920,qs),
(19,-1920,o),
(-132,-1889,o),
(-272,-1851,o),
(-406,-1820,o),
(-475,-1820,qs),
(-549,-1820,o),
(-675,-1851,o),
(-796,-1889,o),
(-922,-1920,o),
(-995,-1920,qs),
(-1212,-1920,o),
(-1435,-1706,o),
(-1435,-1500,qs),
(-1435,-1385,o),
(-1361,-1208,o),
(-1234,-1070,o),
(-1063,-963,o),
(-967,-918,q),
(-1005,-836,l),
(-1123,-890,o)
);
},
{
closed = 1;
nodes = (
(237,854,o),
(166,909,o),
(125,959,o),
(125,980,qs),
(125,1004,o),
(161,1040,o),
(205,1040,qs),
(237,1040,o),
(302,1008,o),
(353,940,o),
(385,833,o),
(385,758,q),
(332,792,o)
);
}
);
};
layerId = m01;
shapes = (
{
closed = 1;
nodes = (
(-1435,-1192,o),
(-1222,-1038,o),
(-967,-918,c),
(-1005,-836,l),
(-1322,-981,o),
(-1615,-1138,o),
(-1615,-1496,cs),
(-1615,-1828,o),
(-1363,-2000,o),
(-1040,-2000,cs),
(-793,-2000,o),
(-676,-1900,o),
(-482,-1900,cs),
(-288,-1900,o),
(-119,-2000,o),
(89,-2000,cs),
(327,-2000,o),
(465,-1868,o),
(465,-1620,c),
(385,-1620,l),
(385,-1808,o),
(298,-1920,o),
(88,-1920,cs),
(-111,-1920,o),
(-285,-1820,o),
(-480,-1820,cs),
(-674,-1820,o),
(-786,-1920,o),
(-1005,-1920,cs),
(-1277,-1920,o),
(-1435,-1767,o),
(-1435,-1500,cs)
);
},
{
closed = 1;
nodes = (
(464,-1620,l),
(464,750,ls),
(464,1034,o),
(322,1120,o),
(192,1120,cs),
(77,1120,o),
(24,1052,o),
(24,976,cs),
(24,660,o),
(681,642,o),
(684,167,cs),
(685,0,l),
(865,0,l),
(865,167,ls),
(865,670,o),
(124,767,o),
(124,982,cs),
(124,1010,o),
(145,1040,o),
(204,1040,cs),
(336,1040,o),
(384,888,o),
(384,736,cs),
(384,-1620,l)
);
}
);
width = 970;
}
);
note = uniA999.conj;
},
{
glyphname = "nyaPas-java";
lastChange = "2022-07-24 07:59:03 +0000";
layers = (
{
background = {
shapes = (
{
closed = 1;
nodes = (
(-383,-990,o),
(-553,-1014,o),
(-720,-1043,o),
(-876,-1084,o),
(-1015,-1145,o),
(-1131,-1232,o),
(-1214,-1354,o),
(-1260,-1515,o),
(-1260,-1620,qs),
(-1260,-1718,o),
(-1217,-1861,o),
(-1142,-1955,o),
(-1040,-2000,o),
(-980,-2000,qs),
(-944,-2000,o),
(-889,-1981,o),
(-836,-1959,o),
(-779,-1940,o),
(-740,-1940,qs),
(-693,-1940,o),
(-623,-1959,o),
(-554,-1981,o),
(-476,-2000,o),
(-420,-2000,qs),
(-352,-2000,o),
(-241,-1951,o),
(-163,-1852,o),
(-120,-1701,o),
(-120,-1600,qs),
(-120,-1062,l),
(-12,-1033,o),
(177,-944,o),
(318,-804,o),
(400,-603,o),
(400,-460,qs),
(400,780,ls),
(400,860,o),
(480,860,qs),
(529,860,o),
(580,788,o),
(580,700,qs),
(580,-1740,ls),
(580,-1856,o),
(689,-1987,o),
(809,-2008,q),
(838,-1928,l),
(821,-1922,o),
(792,-1900,o),
(771,-1858,o),
(760,-1791,o),
(760,-1740,qs),
(760,700,ls),
(760,760,o),
(732,850,o),
(683,910,o),
(617,940,o),
(580,940,qs),
(480,940,ls),
(403,940,o),
(320,858,o),
(320,780,qs),
(320,-460,ls),
(320,-575,o),
(253,-737,o),
(134,-848,o),
(-27,-918,o),
(-120,-941,q),
(-120,0,l),
(-300,0,l),
(-300,-977,l)
);
},
{
closed = 1;
nodes = (
(-300,-1770,o),
(-381,-1920,o),
(-460,-1920,qs),
(-492,-1920,o),
(-548,-1901,o),
(-611,-1879,o),
(-688,-1860,o),
(-740,-1860,qs),
(-779,-1860,o),
(-837,-1879,o),
(-890,-1901,o),
(-945,-1920,o),
(-980,-1920,qs),
(-1025,-1920,o),
(-1099,-1888,o),
(-1152,-1819,o),
(-1180,-1714,o),
(-1180,-1640,qs),
(-1180,-1532,o),
(-1108,-1379,o),
(-983,-1273,o),
(-813,-1205,o),
(-618,-1158,o),
(-406,-1123,o),
(-300,-1102,q),
(-300,-1600,ls)
);
}
);
};
layerId = m01;
shapes = (
{
closed = 1;
nodes = (
(808,-1928,l),
(762,-1912,o),
(730,-1877,o),
(730,-1740,cs),
(730,763,ls),
(730,872,o),
(688,940,o),
(538,940,cs),
(456,940,ls),
(347,940,o),
(290,890,o),
(290,763,cs),
(290,-430,ls),
(290,-1343,o),
(-1260,-659,o),
(-1260,-1616,cs),
(-1260,-1884,o),
(-1139,-2000,o),
(-985,-2000,cs),
(-875,-2000,o),
(-850,-1940,o),
(-737,-1940,cs),
(-623,-1940,o),
(-560,-2000,o),
(-423,-2000,cs),
(-202,-2000,o),
(-120,-1844,o),
(-120,-1650,cs),
(-120,0,l),
(-300,0,l),
(-300,-1650,ls),
(-300,-1769,o),
(-318,-1920,o),
(-458,-1920,cs),
(-547,-1920,o),
(-610,-1860,o),
(-731,-1860,cs),
(-852,-1860,o),
(-882,-1920,o),
(-981,-1920,cs),
(-1099,-1920,o),
(-1180,-1834,o),
(-1180,-1644,cs),
(-1180,-812,o),
(370,-1517,o),
(370,-430,cs),
(370,763,ls),
(370,838,o),
(401,860,o),
(459,860,cs),
(525,860,o),
(550,832,o),
(550,763,cs),
(550,-1740,ls),
(550,-1895,o),
(619,-1980,o),
(779,-2008,c)
);
}
);
width = 918;
}
);
note = uniA99A.conj;
},
{
glyphname = "nyaPas-java.base";
lastChange = "2022-07-24 07:10:29 +0000";
layers = (
{
anchors = (
{
name = bottom;
pos = (670,-1120);
},
{
name = top;
pos = (429,2096);
},
{
name = topright;
pos = (838,2096);
}
);
background = {
shapes = (
{
closed = 1;
nodes = (
(-443,-990,o),
(-613,-1014,o),
(-780,-1043,o),
(-936,-1084,o),
(-1075,-1145,o),
(-1191,-1232,o),
(-1274,-1354,o),
(-1320,-1515,o),
(-1320,-1620,qs),
(-1320,-1718,o),
(-1277,-1861,o),
(-1202,-1955,o),
(-1100,-2000,o),
(-1040,-2000,qs),
(-1004,-2000,o),
(-949,-1981,o),
(-896,-1959,o),
(-839,-1940,o),
(-800,-1940,qs),
(-753,-1940,o),
(-683,-1959,o),
(-614,-1981,o),
(-536,-2000,o),
(-480,-2000,qs),
(-412,-2000,o),
(-301,-1951,o),
(-223,-1852,o),
(-180,-1701,o),
(-180,-1600,qs),
(-180,-1062,l),
(-72,-1033,o),
(117,-944,o),
(258,-804,o),
(340,-603,o),
(340,-460,qs),
(340,780,ls),
(340,860,o),
(420,860,qs),
(469,860,o),
(520,788,o),
(520,700,qs),
(520,-1740,ls),
(520,-1856,o),
(629,-1987,o),
(749,-2008,q),
(778,-1928,l),
(761,-1922,o),
(732,-1900,o),
(711,-1858,o),
(700,-1791,o),
(700,-1740,qs),
(700,700,ls),
(700,760,o),
(672,850,o),
(623,910,o),
(557,940,o),
(520,940,qs),
(420,940,ls),
(343,940,o),
(260,858,o),
(260,780,qs),
(260,-460,ls),
(260,-575,o),
(193,-737,o),
(74,-848,o),
(-87,-918,o),
(-180,-941,q),
(-180,0,l),
(-360,0,l),
(-360,-977,l)
);
},
{
closed = 1;
nodes = (
(-360,-1770,o),
(-441,-1920,o),
(-520,-1920,qs),
(-552,-1920,o),
(-608,-1901,o),
(-671,-1879,o),
(-748,-1860,o),
(-800,-1860,qs),
(-839,-1860,o),
(-897,-1879,o),
(-950,-1901,o),
(-1005,-1920,o),
(-1040,-1920,qs),
(-1085,-1920,o),
(-1159,-1888,o),
(-1212,-1819,o),
(-1240,-1714,o),
(-1240,-1640,qs),
(-1240,-1532,o),
(-1168,-1379,o),
(-1043,-1273,o),
(-873,-1205,o),
(-678,-1158,o),
(-466,-1123,o),
(-360,-1102,q),
(-360,-1600,ls)
);
}
);
};
layerId = m01;
shapes = (
{
closed = 1;
nodes = (
(670,-1120,l),
(670,763,ls),
(670,872,o),
(628,940,o),
(478,940,cs),
(396,940,ls),
(287,940,o),
(230,890,o),
(230,763,cs),
(230,-430,ls),
(230,-1061,o),
(-1320,-602,o),
(-1320,-1264,cs),
(-1320,-1442,o),
(-1208,-1530,o),
(-1064,-1530,cs),
(-945,-1530,o),
(-916,-1470,o),
(-799,-1470,cs),
(-681,-1470,o),
(-621,-1530,o),
(-483,-1530,cs),
(-262,-1530,o),
(-180,-1374,o),
(-180,-1180,cs),
(-180,0,l),
(-360,0,l),
(-360,-1180,ls),
(-360,-1300,o),
(-378,-1450,o),
(-519,-1450,cs),
(-608,-1450,o),
(-667,-1390,o),
(-794,-1390,cs),
(-920,-1390,o),
(-950,-1450,o),
(-1063,-1450,cs),
(-1166,-1450,o),
(-1240,-1400,o),
(-1240,-1276,cs),
(-1240,-707,o),
(310,-1182,o),
(310,-430,cs),
(310,763,ls),
(310,838,o),
(341,860,o),
(399,860,cs),
(465,860,o),
(490,832,o),
(490,763,cs),
(490,-1120,l)
);
}
);
width = 858;
}
);
note = uniA99A.conj;
},
{
glyphname = "paPas-java";
lastChange = "2022-07-24 07:10:29 +0000";
layers = (
{
anchors = (
{
name = bottom;
pos = (1740,0);
},
{
name = cerek;
pos = (1067,0);
},
{
name = top;
pos = (960,940);
},
{
name = topright;
pos = (1740,940);
}
);
background = {
shapes = (
{
closed = 1;
nodes = (
(165,45,o),
(309,100,o),
(400,100,qs),
(461,100,o),
(568,82,o),
(667,56,o),
(763,24,o),
(864,-2,o),
(975,-20,o),
(1040,-20,qs),
(1137,-20,o),
(1268,8,o),
(1347,74,o),
(1380,181,o),
(1380,260,qs),
(1380,780,ls),
(1380,860,o),
(1460,860,qs),
(1509,860,o),
(1560,788,o),
(1560,700,qs),
(1560,0,l),
(1740,0,l),
(1740,700,ls),
(1740,760,o),
(1712,850,o),
(1663,910,o),
(1597,940,o),
(1560,940,qs),
(1460,940,ls),
(1383,940,o),
(1300,858,o),
(1300,780,qs),
(1300,260,ls),
(1300,207,o),
(1283,138,o),
(1242,97,o),
(1172,80,o),
(1120,80,qs),
(1034,80,o),
(875,130,o),
(720,190,o),
(564,240,o),
(480,240,qs),
(423,240,o),
(318,218,o),
(218,172,o),
(120,100,o),
(70,50,q),
(120,0,l)
);
}
);
};
layerId = m01;
shapes = (
{
closed = 1;
nodes = (
(1268,-20,o),
(1380,36,o),
(1380,260,cs),
(1380,763,ls),
(1380,838,o),
(1411,860,o),
(1469,860,cs),
(1535,860,o),
(1560,832,o),
(1560,763,cs),
(1560,0,l),
(1740,0,l),
(1740,763,ls),
(1740,871,o),
(1698,940,o),
(1548,940,cs),
(1476,940,ls),
(1357,940,o),
(1300,871,o),
(1300,763,cs),
(1300,260,ls),
(1300,123,o),
(1259,80,o),
(1128,80,cs),
(876,80,o),
(713,240,o),
(474,240,cs),
(329,240,o),
(202,182,o),
(70,50,c),
(120,0,l),
(186,64,o),
(278,100,o),
(411,100,cs),
(655,100,o),
(820,-20,o),
(1086,-20,cs)
);
}
);
width = 1920;
}
);
note = uniA9A5.conj;
},
{
glyphname = "paMurdaPas-java";
lastChange = "2022-07-24 07:10:29 +0000";
layers = (
{
anchors = (
{
name = bottom;
pos = (1800,0);
},
{
name = top;
pos = (960,940);
},
{
name = topright;
pos = (1800,940);
}
);
background = {
shapes = (
{
closed = 1;
nodes = (
(202.667,62.667,o),
(269.333,80,o),
(320,80,cs),
(436.452,80,o),
(464.908,0,o),
(640,0,cs),
(798.586,0,o),
(891.013,100,o),
(960,100,cs),
(1023.063,100,o),
(1085.137,0,o),
(1240,0,cs),
(1361.99,0,o),
(1448.965,93.537,o),
(1484,328,c),
(1571.266,235.445,o),
(1640,129.347,o),
(1640,0,c),
(1820,0,l),
(1820,211.592,o),
(1661.363,373.901,o),
(1499,499,c),
(1499,510.333,o),
(1499.167,521.833,o),
(1499.5,533.5,cs),
(1499.833,545.167,o),
(1500,557.333,o),
(1500,570,cs),
(1500,853.738,o),
(1357.7,940,o),
(1230,940,cs),
(1112.667,940,o),
(1060,880,o),
(1060,780,cs),
(1060,717.333,o),
(1107,657.5,o),
(1175,595.5,cs),
(1258.855,519.044,o),
(1315.403,482.512,o),
(1412,397,c),
(1400,279.667,o),
(1377.667,205.167,o),
(1347,160.5,cs),
(1316.333,115.833,o),
(1280,100,o),
(1240,100,cs),
(1152.345,100,o),
(1099.888,200,o),
(980,200,cs),
(869.033,200,o),
(820.842,100,o),
(680,100,cs),
(533.132,100,o),
(487.694,200,o),
(360,200,cs),
(287.807,200,o),
(214.067,174.067,o),
(90,50,c),
(140,0,l),
(140,0,l)
);
},
{
closed = 1;
nodes = (
(1352.389,607.408,o),
(1286.188,653.013,o),
(1238,692.5,cs),
(1190,731.833,o),
(1160,768,o),
(1160,800,cs),
(1160,832,o),
(1181.333,860,o),
(1240,860,cs),
(1282.667,860,o),
(1328.5,839.333,o),
(1362.5,794,cs),
(1396.5,748.667,o),
(1420,678.667,o),
(1420,580,cs),
(1420,558,l),
(1420,558,l)
);
}
);
};
layerId = m01;
shapes = (
{
closed = 1;
nodes = (
(849,-10,o),
(877,100,o),
(952,100,cs),
(1026,100,o),
(1086,-10,o),
(1227,-10,cs),
(1469,-10,o),
(1500,317,o),
(1500,498,cs),
(1500,743,o),
(1443,940,o),
(1235,940,cs),
(1117,940,o),
(1060,877,o),
(1060,791,cs),
(1060,521,o),
(1620,498,o),
(1620,0,c),
(1800,0,l),
(1800,547,o),
(1160,619,o),
(1160,794,cs),
(1160,826,o),
(1181,860,o),
(1243,860,cs),
(1385,860,o),
(1422,682,o),
(1422,509,cs),
(1422,339,o),
(1386,90,o),
(1244,90,cs),
(1150,90,o),
(1099,200,o),
(986,200,cs),
(863,200,o),
(835,70,o),
(705,70,cs),
(571,70,o),
(504,210,o),
(356,210,cs),
(289,210,o),
(214,182,o),
(90,50,c),
(140,0,l),
(199,59,o),
(263,80,o),
(322,80,cs),
(444,80,o),
(506,-10,o),
(669,-10,cs)
);
}
);
width = 1920;
}
);
note = uniA9A6.conj;
},
{
glyphname = "saPas-java";
lastChange = "2022-07-24 07:37:54 +0000";
layers = (
{
anchors = (
{
name = bottom;
pos = (1711,0);
},
{
name = top;
pos = (1041,940);
},
{
name = topright;
pos = (1711,940);
}
);
background = {
shapes = (
{
closed = 1;
nodes = (
(150,60,o),
(249,100,o),
(370,100,cs),
(486,100,o),
(591,71,o),
(685,40,cs),
(749,19,o),
(816,1,o),
(890,-11,cs),
(927,-17,o),
(967,-20,o),
(1010,-20,cs),
(1139,-20,o),
(1225,-3,o),
(1278,41,cs),
(1330,85,o),
(1350,155,o),
(1350,260,cs),
(1350,269,l),
(1410,262,o),
(1470,255,o),
(1530,244,c),
(1530,0,l),
(1710,0,l),
(1710,195,l),
(1777,168,o),
(1835,133,o),
(1880,84,c),
(1848,80,o),
(1808,70,o),
(1768,55,c),
(1795,-20,l),
(1834,-5,o),
(1869,0,o),
(1890,0,cs),
(1923,0,o),
(1944,-20,o),
(1955,-55,c),
(2038,-33,l),
(1993,134,o),
(1866,223,o),
(1710,277,c),
(1710,700,ls),
(1710,861,o),
(1629,940,o),
(1530,940,cs),
(1430,940,ls),
(1327,940,o),
(1270,884,o),
(1270,780,cs),
(1270,357,l),
(1175,368,o),
(1090,377,o),
(1029,394,cs),
(968,411,o),
(930,437,o),
(930,480,cs),
(930,517,o),
(952,540,o),
(985,540,cs),
(1009,540,o),
(1038,532,o),
(1070,500,c),
(1125,555,l),
(1090,598,o),
(1036,620,o),
(980,620,cs),
(909,620,o),
(840,576,o),
(840,480,cs),
(840,323,o),
(1036,301,o),
(1270,277,c),
(1270,260,ls),
(1270,119,o),
(1229,80,o),
(1090,80,cs),
(858,80,o),
(673,240,o),
(450,240,cs),
(297,240,o),
(172,182,o),
(40,50,c),
(90,0,l),
(90,0,l)
);
},
{
closed = 1;
nodes = (
(1350,833,o),
(1377,860,o),
(1430,860,cs),
(1495,860,o),
(1530,817,o),
(1530,700,cs),
(1530,323,l),
(1469,334,o),
(1410,341,o),
(1350,348,c),
(1350,780,l),
(1350,780,l)
);
}
);
};
layerId = m01;
shapes = (
{
closed = 1;
nodes = (
(167,66,o),
(256,100,o),
(397,100,cs),
(662,100,o),
(872,-20,o),
(1097,-20,cs),
(1273,-20,o),
(1351,54,o),
(1351,260,c),
(1271,260,l),
(1271,119,o),
(1230,80,o),
(1137,80,cs),
(949,80,o),
(752,240,o),
(461,240,cs),
(300,240,o),
(183,190,o),
(41,50,c),
(86,0,l)
);
},
{
closed = 1;
nodes = (
(1351,260,l),
(1351,763,ls),
(1351,838,o),
(1382,860,o),
(1440,860,cs),
(1506,860,o),
(1531,832,o),
(1531,763,cs),
(1531,0,l),
(1711,0,l),
(1711,763,ls),
(1711,872,o),
(1669,940,o),
(1519,940,cs),
(1442,940,ls),
(1330,940,o),
(1271,879,o),
(1271,763,cs),
(1271,260,l)
);
},
{
closed = 1;
nodes = (
(1687,235,o),
(1803,207,o),
(1892,67,c),
(1900,66,l),
(1867,85,o),
(1798,74,o),
(1769,55,c),
(1796,-20,l),
(1856,6,o),
(1923,18,o),
(1956,-55,c),
(2036,-31,l),
(1939,285,o),
(1709,314,o),
(1461,346,cs),
(1167,384,ls),
(1029,402,o),
(931,418,o),
(931,484,cs),
(931,516,o),
(954,530,o),
(982,530,cs),
(1005,530,o),
(1031,520,o),
(1051,500,c),
(1104,552,l),
(1068,596,o),
(1024,610,o),
(980,610,cs),
(903,610,o),
(841,568,o),
(841,487,cs),
(841,338,o),
(1047,320,o),
(1165,304,cs),
(1461,265,ls)
);
}
);
width = 2081;
}
);
note = uniA9B1A99AA9B8.conj_conj;
},
{
glyphname = "haPas-java";
lastChange = "2022-07-24 07:10:29 +0000";
layers = (
{
anchors = (
{
name = bottom;
pos = (2260,0);
},
{
name = top;
pos = (1175,940);
},
{
name = topright;
pos = (2260,940);
}
);
background = {
shapes = (
{
closed = 1;
nodes = (
(185,-1075,o),
(308,-1020,o),
(380,-1020,qs),
(438,-1020,o),
(532,-1038,o),
(615,-1064,o),
(691,-1096,o),
(768,-1122,o),
(851,-1140,o),
(900,-1140,qs),
(967,-1140,o),
(1065,-1112,o),
(1129,-1047,o),
(1160,-940,o),
(1160,-860,qs),
(1160,-320,ls),
(1160,-302,o),
(1164,-278,o),
(1176,-265,o),
(1200,-260,o),
(1220,-260,qs),
(1320,-260,ls),
(1379,-260,o),
(1440,-330,o),
(1440,-420,qs),
(1440,-980,ls),
(1440,-1052,o),
(1508,-1120,o),
(1570,-1120,qs),
(1670,-1120,ls),
(1694,-1120,o),
(1741,-1108,o),
(1777,-1077,o),
(1800,-1022,o),
(1800,-980,qs),
(1800,-320,ls),
(1800,-302,o),
(1804,-278,o),
(1816,-265,o),
(1840,-260,o),
(1860,-260,qs),
(1960,-260,ls),
(2019,-260,o),
(2080,-330,o),
(2080,-420,qs),
(2080,-1120,l),
(2260,-1120,l),
(2260,-420,ls),
(2260,-353,o),
(2234,-262,o),
(2184,-205,o),
(2109,-180,o),
(2060,-180,qs),
(1860,-180,ls),
(1820,-180,o),
(1766,-193,o),
(1734,-225,o),
(1720,-279,o),
(1720,-320,qs),
(1720,-980,ls),
(1720,-1007,o),
(1699,-1040,o),
(1670,-1040,qs),
(1640,-1040,o),
(1620,-1012,o),
(1620,-980,qs),
(1620,-420,ls),
(1620,-353,o),
(1594,-262,o),
(1544,-205,o),
(1469,-180,o),
(1420,-180,qs),
(1220,-180,ls),
(1180,-180,o),
(1126,-193,o),
(1094,-225,o),
(1080,-279,o),
(1080,-320,qs),
(1080,-860,ls),
(1080,-911,o),
(1064,-980,o),
(1034,-1022,o),
(989,-1040,o),
(960,-1040,qs),
(906,-1040,o),
(798,-990,o),
(678,-930,o),
(541,-880,o),
(460,-880,qs),
(407,-880,o),
(315,-903,o),
(227,-949,o),
(139,-1021,o),
(90,-1070,q),
(140,-1120,l)
);
}
);
};
layerId = m01;
shapes = (
{
closed = 1;
nodes = (
(1087,-10,o),
(1160,52,o),
(1160,220,cs),
(1160,730,ls),
(1160,829,o),
(1207,860,o),
(1280,860,cs),
(1320,860,ls),
(1395,860,o),
(1440,826,o),
(1440,730,cs),
(1440,140,ls),
(1440,44,o),
(1494,0,o),
(1590,0,cs),
(1670,0,ls),
(1736,0,o),
(1800,29,o),
(1800,140,cs),
(1800,730,ls),
(1800,826,o),
(1832,860,o),
(1922,860,cs),
(1970,860,ls),
(2055,860,o),
(2080,811,o),
(2080,730,cs),
(2080,0,l),
(2260,0,l),
(2260,730,ls),
(2260,840,o),
(2228,940,o),
(2060,940,cs),
(1922,940,ls),
(1788,940,o),
(1720,873,o),
(1720,730,cs),
(1720,140,ls),
(1720,103,o),
(1709,80,o),
(1667,80,cs),
(1630,80,o),
(1620,98,o),
(1620,140,cs),
(1620,730,ls),
(1620,853,o),
(1579,940,o),
(1395,940,cs),
(1280,940,ls),
(1166,940,o),
(1080,887,o),
(1080,730,cs),
(1080,220,ls),
(1080,133,o),
(1052,90,o),
(972,90,cs),
(824,90,o),
(718,240,o),
(524,240,cs),
(398,240,o),
(318,176,o),
(210,40,c),
(260,-10,l),
(315,63,o),
(362,100,o),
(465,100,cs),
(642,100,o),
(775,-10,o),
(953,-10,cs)
);
}
);
width = 2470;
}
);
metricRight = "=|";
note = uniA9B2.conj_sub;
},
{
glyphname = "pangrangkep-java";
lastChange = "2022-07-24 07:10:29 +0000";
layers = (
{
background = {
shapes = (
{
closed = 1;
nodes = (
(760,866,o),
(694,780,o),
(620,780,qs),
(572,780,o),
(478,799,o),
(383,839,o),
(284,901,o),
(231,943,q),
(118,808,l),
(209,732,o),
(357,557,o),
(462,356,o),
(520,128,o),
(520,0,q),
(600,0,l),
(600,109,o),
(590,290,o),
(567,442,o),
(530,568,o),
(503,623,q),
(536,620,o),
(570,620,qs),
(704,620,o),
(840,776,o),
(840,940,q),
(760,940,l)
);
}
);
};
layerId = m01;
shapes = (
{
closed = 1;
nodes = (
(760,835,o),
(719,780,o),
(607,780,cs),
(498,780,o),
(369,835,o),
(231,953,c),
(114,818,l),
(292,614,o),
(410,348,o),
(410,0,c),
(490,0,l),
(490,334,o),
(465,533,o),
(392,693,c),
(275,717,l),
(372,652,o),
(470,620,o),
(570,620,cs),
(749,620,o),
(840,721,o),
(840,940,c),
(760,940,l)
);
}
);
width = 920;
}
);
note = uniA9CF;
unicode = 43471;
},
{
glyphname = "jaMahaprana_keret-java";
lastChange = "2022-07-24 07:10:29 +0000";
layers = (
{
anchors = (
{
name = back;
pos = (966,0);
},
{
name = top;
pos = (1070,940);
},
{
name = topright;
pos = (1728,940);
}
);
background = {
shapes = (
{
ref = _cmpnga1;
},
{
ref = _cmpjha;
}
);
};
layerId = m01;
shapes = (
{
closed = 1;
nodes = (
(280,98,o),
(260,161,o),
(260,280,cs),
(260,690,ls),
(260,813,o),
(316,860,o),
(380,860,cs),
(419,860,o),
(440,843,o),
(440,760,cs),
(440,220,ls),
(440,69,o),
(508,0,o),
(640,0,cs),
(1300,0,l),
(1300,80,l),
(1026,80,o),
(984,240,o),
(740,240,c),
(740,160,l),
(857,160,o),
(914,114,o),
(1011,80,c),
(740,80,ls),
(664,80,o),
(620,116,o),
(620,220,cs),
(620,760,ls),
(620,889,o),
(572,940,o),
(459,940,cs),
(393,940,ls),
(282,940,o),
(180,854,o),
(180,690,cs),
(180,280,ls),
(180,123,o),
(214,51,o),
(329,-18,c),
(369,49,l)
);
},
{
closed = 1;
nodes = (
(1035,-2000,o),
(1153,-1900,o),
(1347,-1900,cs),
(1541,-1900,o),
(1710,-2000,o),
(1918,-2000,cs),
(2156,-2000,o),
(2294,-1868,o),
(2294,-1620,cs),
(2294,750,ls),
(2294,1034,o),
(2152,1120,o),
(2022,1120,cs),
(1907,1120,o),
(1854,1052,o),
(1854,976,cs),
(1854,660,o),
(2514,642,o),
(2514,167,c),
(2695,167,l),
(2695,670,o),
(1954,767,o),
(1954,982,cs),
(1954,1010,o),
(1975,1040,o),
(2034,1040,cs),
(2166,1040,o),
(2214,888,o),
(2214,736,cs),
(2214,-1620,ls),
(2214,-1808,o),
(2127,-1920,o),
(1917,-1920,cs),
(1718,-1920,o),
(1544,-1820,o),
(1349,-1820,cs),
(1154,-1820,o),
(1044,-1920,o),
(822,-1920,cs),
(552,-1920,o),
(394,-1771,o),
(394,-1511,cs),
(394,-742,o),
(1774,-865,o),
(1774,-180,cs),
(1774,640,ls),
(1774,826,o),
(1704,940,o),
(1514,940,cs),
(1394,940,ls),
(1308,940,o),
(1245,917,o),
(1203,845,c),
(1162,912,o),
(1090,940,o),
(990,940,cs),
(866,940,o),
(804,897,o),
(804,819,cs),
(804,759,o),
(840,711,o),
(940,676,c),
(966,746,l),
(928,759,o),
(894,783,o),
(894,815,cs),
(894,845,o),
(923,860,o),
(977,860,cs),
(1089,860,o),
(1154,797,o),
(1154,680,c),
(1234,680,l),
(1234,795,o),
(1284,860,o),
(1384,860,cs),
(1444,860,ls),
(1547,860,o),
(1594,805,o),
(1594,640,cs),
(1594,-180,ls),
(1594,-851,o),
(214,-722,o),
(214,-1495,cs),
(214,-1825,o),
(466,-2000,o),
(790,-2000,cs)
);
},
{
closed = 1;
nodes = (
(2515,-713,o),
(2482,-780,o),
(2415,-780,c),
(2415,-860,l),
(2730,-860,o),
(2915,-1038,o),
(2915,-1337,cs),
(2915,-1537,o),
(2832,-1700,o),
(2661,-1700,cs),
(2545,-1700,o),
(2455,-1624,o),
(2455,-1545,cs),
(2455,-1520,o),
(2464,-1504,o),
(2480,-1504,cs),
(2496,-1504,o),
(2515,-1520,o),
(2515,-1565,cs),
(2515,-1678,o),
(2395,-1766,o),
(2395,-1886,cs),
(2395,-1977,o),
(2463,-2020,o),
(2554,-2020,cs),
(2648,-2020,o),
(2735,-1974,o),
(2735,-1880,cs),
(2735,-1866,o),
(2733,-1849,o),
(2728,-1830,c),
(2651,-1850,l),
(2654,-1860,o),
(2655,-1874,o),
(2655,-1881,cs),
(2655,-1922,o),
(2623,-1940,o),
(2581,-1940,cs),
(2537,-1940,o),
(2515,-1918,o),
(2515,-1871,cs),
(2515,-1771,o),
(2615,-1699,o),
(2615,-1563,cs),
(2615,-1468,o),
(2566,-1420,o),
(2491,-1420,cs),
(2413,-1420,o),
(2379,-1476,o),
(2379,-1548,cs),
(2379,-1689,o),
(2514,-1780,o),
(2686,-1780,cs),
(2939,-1780,o),
(3095,-1589,o),
(3095,-1328,cs),
(3095,-1018,o),
(2878,-830,o),
(2560,-788,c),
(2561,-813,l),
(2670,-779,o),
(2695,-691,o),
(2695,-580,cs),
(2695,167,l),
(2514,167,l),
(2515,-580,ls)
);
}
);
width = 2834;
}
);
note = uniA999;
},
{
glyphname = "jaMahapranaPas_keret-java";
lastChange = "2022-07-24 07:10:29 +0000";
layers = (
{
anchors = (
{
name = _bottom;
pos = (865,0);
}
);
background = {
shapes = (
{
ref = "jaMahapranaPas-java";
},
{
ref = "keret-java";
}
);
};
layerId = m01;
shapes = (
{
closed = 1;
nodes = (
(-909,-2000,o),
(-792,-1900,o),
(-609,-1900,cs),
(-426,-1900,o),
(-278,-2000,o),
(-61,-2000,cs),
(263,-2000,o),
(465,-1778,o),
(465,-1360,c),
(385,-1360,l),
(385,-1711,o),
(245,-1920,o),
(-61,-1920,cs),
(-272,-1920,o),
(-424,-1820,o),
(-607,-1820,cs),
(-789,-1820,o),
(-903,-1920,o),
(-1085,-1920,cs),
(-1310,-1920,o),
(-1435,-1767,o),
(-1435,-1513,cs),
(-1435,-1186,o),
(-1228,-1043,o),
(-967,-918,c),
(-1005,-836,l),
(-1337,-989,o),
(-1615,-1138,o),
(-1615,-1505,cs),
(-1615,-1827,o),
(-1402,-2000,o),
(-1122,-2000,cs)
);
},
{
closed = 1;
nodes = (
(645,-1613,o),
(625,-1566,o),
(625,-1529,cs),
(625,-1505,o),
(633,-1500,o),
(644,-1500,cs),
(664,-1500,o),
(685,-1516,o),
(685,-1562,cs),
(685,-1587,o),
(679,-1613,o),
(668,-1638,c)
);
},
{
closed = 1;
nodes = (
(818,-2020,o),
(905,-1973,o),
(905,-1880,cs),
(905,-1865,o),
(903,-1848,o),
(898,-1830,c),
(821,-1850,l),
(824,-1859,o),
(825,-1872,o),
(825,-1880,cs),
(825,-1921,o),
(788,-1940,o),
(746,-1940,cs),
(703,-1940,o),
(685,-1920,o),
(685,-1874,cs),
(685,-1835,o),
(698,-1797,o),
(717,-1762,c),
(754,-1774,o),
(796,-1780,o),
(844,-1780,cs),
(1115,-1780,o),
(1265,-1589,o),
(1265,-1331,cs),
(1265,-1039,o),
(1074,-850,o),
(783,-797,c),
(838,-750,o),
(865,-678,o),
(865,-580,cs),
(865,10,l),
(685,10,l),
(685,-580,ls),
(685,-713,o),
(652,-780,o),
(585,-780,c),
(585,-860,l),
(900,-860,o),
(1085,-1037,o),
(1085,-1338,cs),
(1085,-1531,o),
(1009,-1700,o),
(825,-1700,cs),
(800,-1700,o),
(778,-1697,o),
(755,-1690,c),
(772,-1654,o),
(785,-1614,o),
(785,-1564,cs),
(785,-1467,o),
(736,-1420,o),
(654,-1420,cs),
(575,-1420,o),
(545,-1464,o),
(545,-1532,cs),
(545,-1604,o),
(579,-1677,o),
(628,-1716,c),
(597,-1768,o),
(565,-1819,o),
(565,-1882,cs),
(565,-1973,o),
(633,-2020,o),
(725,-2020,cs)
);
},
{
closed = 1;
nodes = (
(464,-1360,l),
(464,750,ls),
(464,1034,o),
(322,1120,o),
(192,1120,cs),
(79,1120,o),
(24,1056,o),
(24,969,cs),
(24,668,o),
(681,639,o),
(684,167,cs),
(685,0,l),
(865,0,l),
(865,167,ls),
(865,668,o),
(124,773,o),
(124,977,cs),
(124,1011,o),
(145,1040,o),
(203,1040,cs),
(337,1040,o),
(384,887,o),
(384,736,cs),
(384,-1360,l)
);
}
);
width = 970;
}
);
},
{
glyphname = "nyaPas_keret-java";
lastChange = "2022-07-24 07:10:29 +0000";
layers = (
{
anchors = (
{
name = _bottom;
pos = (670,0);
}
);
background = {
shapes = (
{
closed = 1;
nodes = (
(-443,-990,o),
(-613,-1014,o),
(-780,-1043,o),
(-936,-1084,o),
(-1075,-1145,o),
(-1191,-1232,o),
(-1274,-1354,o),
(-1320,-1515,o),
(-1320,-1620,qs),
(-1320,-1718,o),
(-1277,-1861,o),
(-1202,-1955,o),
(-1100,-2000,o),
(-1040,-2000,qs),
(-1004,-2000,o),
(-949,-1981,o),
(-896,-1959,o),
(-839,-1940,o),
(-800,-1940,qs),
(-753,-1940,o),
(-683,-1959,o),
(-614,-1981,o),
(-536,-2000,o),
(-480,-2000,qs),
(-412,-2000,o),
(-301,-1951,o),
(-223,-1852,o),
(-180,-1701,o),
(-180,-1600,qs),
(-180,-1062,l),
(-72,-1033,o),
(117,-944,o),
(258,-804,o),
(340,-603,o),
(340,-460,qs),
(340,780,ls),
(340,860,o),
(420,860,qs),
(469,860,o),
(520,788,o),
(520,700,qs),
(520,-1740,ls),
(520,-1856,o),
(629,-1987,o),
(749,-2008,q),
(778,-1928,l),
(761,-1922,o),
(732,-1900,o),
(711,-1858,o),
(700,-1791,o),
(700,-1740,qs),
(700,700,ls),
(700,760,o),
(672,850,o),
(623,910,o),
(557,940,o),
(520,940,qs),
(420,940,ls),
(343,940,o),
(260,858,o),
(260,780,qs),
(260,-460,ls),
(260,-575,o),
(193,-737,o),
(74,-848,o),
(-87,-918,o),
(-180,-941,q),
(-180,0,l),
(-360,0,l),
(-360,-977,l)
);
},
{
closed = 1;
nodes = (
(-360,-1770,o),
(-441,-1920,o),
(-520,-1920,qs),
(-552,-1920,o),
(-608,-1901,o),
(-671,-1879,o),
(-748,-1860,o),
(-800,-1860,qs),
(-839,-1860,o),
(-897,-1879,o),
(-950,-1901,o),
(-1005,-1920,o),
(-1040,-1920,qs),
(-1085,-1920,o),
(-1159,-1888,o),
(-1212,-1819,o),
(-1240,-1714,o),
(-1240,-1640,qs),
(-1240,-1532,o),
(-1168,-1379,o),
(-1043,-1273,o),
(-873,-1205,o),
(-678,-1158,o),
(-466,-1123,o),
(-360,-1102,q),
(-360,-1600,ls)
);
}
);
};
layerId = m01;
shapes = (
{
closed = 1;
nodes = (
(-935,-2000,o),
(-910,-1940,o),
(-797,-1940,cs),
(-683,-1940,o),
(-620,-2000,o),
(-483,-2000,cs),
(-262,-2000,o),
(-180,-1844,o),
(-180,-1650,cs),
(-180,0,l),
(-360,0,l),
(-360,-1650,ls),
(-360,-1769,o),
(-378,-1920,o),
(-518,-1920,cs),
(-607,-1920,o),
(-670,-1860,o),
(-791,-1860,cs),
(-912,-1860,o),
(-942,-1920,o),
(-1041,-1920,cs),
(-1159,-1920,o),
(-1240,-1834,o),
(-1240,-1644,cs),
(-1240,-812,o),
(310,-1507,o),
(310,-430,cs),
(310,763,ls),
(310,838,o),
(341,860,o),
(399,860,cs),
(465,860,o),
(490,832,o),
(490,763,cs),
(490,-10,l),
(670,-10,l),
(670,763,ls),
(670,872,o),
(628,940,o),
(478,940,cs),
(396,940,ls),
(287,940,o),
(230,890,o),
(230,763,cs),
(230,-430,ls),
(230,-1343,o),
(-1320,-659,o),
(-1320,-1616,cs),
(-1320,-1884,o),
(-1199,-2000,o),
(-1045,-2000,cs)
);
},
{
closed = 1;
nodes = (
(310,-1671,o),
(310,-1502,cs),
(310,-1394,o),
(253,-1340,o),
(162,-1340,cs),
(63,-1340,o),
(30,-1404,o),
(30,-1475,cs),
(30,-1636,o),
(198,-1760,o),
(465,-1760,cs),
(767,-1760,o),
(960,-1602,o),
(960,-1353,cs),
(960,-1130,o),
(804,-967,o),
(588,-927,c),
(643,-880,o),
(670,-808,o),
(670,-710,cs),
(670,10,l),
(490,10,l),
(490,-710,ls),
(490,-843,o),
(457,-910,o),
(390,-910,c),
(390,-990,l),
(638,-990,o),
(780,-1142,o),
(780,-1357,cs),
(780,-1545,o),
(672,-1680,o),
(445,-1680,cs),
(228,-1680,o),
(110,-1557,o),
(110,-1474,cs),
(110,-1443,o),
(126,-1420,o),
(156,-1420,cs),
(185,-1420,o),
(210,-1441,o),
(210,-1497,cs),
(210,-1639,o),
(50,-1740,o),
(50,-1881,cs),
(50,-1973,o),
(118,-2020,o),
(210,-2020,cs),
(303,-2020,o),
(390,-1973,o),
(390,-1880,cs),
(390,-1865,o),
(388,-1848,o),
(383,-1830,c),
(306,-1850,l),
(309,-1859,o),
(310,-1872,o),
(310,-1880,cs),
(310,-1921,o),
(273,-1940,o),
(231,-1940,cs),
(188,-1940,o),
(170,-1920,o),
(170,-1874,cs),
(170,-1744,o)
);
}
);
width = 858;
}
);
note = uniA99A.conj;
},
{
glyphname = "jaMahapranaPas-java.short.base";
lastChange = "2022-07-24 07:10:29 +0000";
layers = (
{
anchors = (
{
name = bottom;
pos = (865,-1120);
},
{
name = top;
pos = (386,1110);
},
{
name = topright;
pos = (865,1110);
}
);
background = {
shapes = (
{
pos = (-1830,0);
ref = "jaMahaprana-java.short.base";
}
);
};
layerId = m01;
shapes = (
{
closed = 1;
nodes = (
(-1315,-542,o),
(-1111,-421,o),
(-867,-328,c),
(-905,-246,l),
(-1212,-362,o),
(-1495,-490,o),
(-1495,-772,cs),
(-1495,-1017,o),
(-1282,-1140,o),
(-1011,-1140,cs),
(-766,-1140,o),
(-652,-1040,o),
(-463,-1040,cs),
(-273,-1040,o),
(-114,-1140,o),
(91,-1140,cs),
(327,-1140,o),
(465,-1008,o),
(465,-760,c),
(385,-760,l),
(385,-948,o),
(297,-1060,o),
(90,-1060,cs),
(-106,-1060,o),
(-271,-960,o),
(-460,-960,cs),
(-650,-960,o),
(-760,-1060,o),
(-975,-1060,cs),
(-1190,-1060,o),
(-1315,-959,o),
(-1315,-776,cs)
);
},
{
closed = 1;
nodes = (
(464,-760,l),
(464,750,ls),
(464,1034,o),
(322,1120,o),
(192,1120,cs),
(79,1120,o),
(24,1056,o),
(24,969,cs),
(24,668,o),
(684,639,o),
(684,167,cs),
(685,-1120,l),
(865,-1120,l),
(865,167,ls),
(865,668,o),
(124,773,o),
(124,977,cs),
(124,1011,o),
(145,1040,o),
(203,1040,cs),
(337,1040,o),
(384,887,o),
(384,736,cs),
(384,-760,l)
);
}
);
width = 970;
}
);
note = uniA999.conj;
},
{
glyphname = "jaMahaprana-java.short.base";
lastChange = "2022-07-24 07:10:29 +0000";
layers = (
{
anchors = (
{
name = bottom;
pos = (2695,-1120);
},
{
name = top;
pos = (1070,940);
},
{
name = topright;
pos = (1728,940);
}
);
background = {
shapes = (
{
pos = (40,0);
ref = _cmpnga1;
},
{
pos = (40,0);
ref = _cmpjhashort;
}
);
};
layerId = m01;
shapes = (
{
closed = 1;
nodes = (
(280,98,o),
(260,161,o),
(260,280,cs),
(260,690,ls),
(260,813,o),
(316,860,o),
(380,860,cs),
(419,860,o),
(440,843,o),
(440,760,cs),
(440,220,ls),
(440,69,o),
(508,0,o),
(640,0,cs),
(1300,0,l),
(1300,80,l),
(1026,80,o),
(984,240,o),
(740,240,c),
(740,160,l),
(857,160,o),
(914,114,o),
(1011,80,c),
(740,80,ls),
(664,80,o),
(620,116,o),
(620,220,cs),
(620,760,ls),
(620,889,o),
(572,940,o),
(459,940,cs),
(393,940,ls),
(282,940,o),
(180,854,o),
(180,690,cs),
(180,280,ls),
(180,123,o),
(214,51,o),
(329,-18,c),
(369,49,l)
);
},
{
closed = 1;
nodes = (
(1035,-1140,o),
(1153,-1040,o),
(1347,-1040,cs),
(1541,-1040,o),
(1710,-1140,o),
(1918,-1140,cs),
(2156,-1140,o),
(2294,-1008,o),
(2294,-760,cs),
(2294,750,ls),
(2294,1034,o),
(2152,1120,o),
(2021,1120,cs),
(1907,1120,o),
(1854,1054,o),
(1854,969,cs),
(1854,673,o),
(2514,635,o),
(2514,180,c),
(2695,180,l),
(2695,661,o),
(1954,777,o),
(1954,977,cs),
(1954,1011,o),
(1975,1040,o),
(2033,1040,cs),
(2167,1040,o),
(2214,887,o),
(2214,736,cs),
(2214,-760,ls),
(2214,-948,o),
(2127,-1060,o),
(1917,-1060,cs),
(1718,-1060,o),
(1544,-960,o),
(1349,-960,cs),
(1154,-960,o),
(1044,-1060,o),
(822,-1060,cs),
(628,-1060,o),
(514,-966,o),
(514,-801,cs),
(514,-322,o),
(1774,-588,o),
(1774,-20,cs),
(1774,640,ls),
(1774,826,o),
(1704,940,o),
(1514,940,cs),
(1394,940,ls),
(1308,940,o),
(1245,917,o),
(1203,845,c),
(1162,912,o),
(1090,940,o),
(990,940,cs),
(866,940,o),
(804,897,o),
(804,819,cs),
(804,759,o),
(840,711,o),
(940,676,c),
(966,746,l),
(928,759,o),
(894,783,o),
(894,815,cs),
(894,845,o),
(923,860,o),
(977,860,cs),
(1089,860,o),
(1154,797,o),
(1154,680,c),
(1234,680,l),
(1234,795,o),
(1284,860,o),
(1384,860,cs),
(1444,860,ls),
(1547,860,o),
(1594,805,o),
(1594,640,cs),
(1594,-20,ls),
(1594,-516,o),
(334,-264,o),
(334,-785,cs),
(334,-1017,o),
(534,-1140,o),
(790,-1140,cs)
);
},
{
closed = 1;
nodes = (
(2514,180,l),
(2515,-1120,l),
(2695,-1120,l),
(2695,180,l)
);
}
);
width = 2814;
}
);
note = uniA999.short;
},
{
glyphname = "zero-java";
lastChange = "2022-07-24 07:10:29 +0000";
layers = (
{
background = {
shapes = (
{
closed = 1;
nodes = (
(222,154,o),
(327,34,o),
(464,-20,o),
(540,-20,qs),
(630,-20,o),
(765,53,o),
(855,185,o),
(900,369,o),
(900,480,qs),
(900,592,o),
(853,770,o),
(762,894,o),
(627,960,o),
(540,960,qs),
(450,960,o),
(309,882,o),
(211,750,o),
(160,576,o),
(160,480,qs),
(160,344,o)
);
},
{
closed = 1;
nodes = (
(376,720,o),
(440,824,o),
(528,880,o),
(580,880,qs),
(634,880,o),
(722,822,o),
(785,717,o),
(820,570,o),
(820,480,qs),
(820,384,o),
(783,229,o),
(718,120,o),
(631,60,o),
(580,60,qs),
(525,60,o),
(437,109,o),
(374,211,o),
(340,370,o),
(340,480,qs),
(340,572,o)
);
}
);
};
layerId = m01;
shapes = (
{
closed = 1;
nodes = (
(780,-20,o),
(900,184,o),
(900,474,cs),
(900,740,o),
(799,960,o),
(547,960,cs),
(299,960,o),
(160,746,o),
(160,466,cs),
(160,215,o),
(271,-20,o),
(534,-20,cs)
);
},
{
closed = 1;
nodes = (
(391,60,o),
(340,266,o),
(340,455,cs),
(340,716,o),
(437,880,o),
(591,880,cs),
(748,880,o),
(820,708,o),
(820,479,cs),
(820,263,o),
(756,60,o),
(574,60,cs)
);
}
);
width = 1040;
}
);
note = uniA9D0;
unicode = 43472;
},
{
glyphname = "four-java";
lastChange = "2022-07-24 07:10:29 +0000";
layers = (
{
background = {
shapes = (
{
closed = 1;
nodes = (
(700,-20,o),
(840,86,o),
(840,282,cs),
(840,409,o),
(782,495,o),
(668,533,c),
(667,508,l),
(767,544,o),
(820,615,o),
(820,720,cs),
(820,853,o),
(736,960,o),
(593,960,cs),
(446,960,o),
(380,847,o),
(380,680,c),
(460,680,l),
(460,782,o),
(488,880,o),
(559,880,cs),
(616,880,o),
(640,816,o),
(640,721,cs),
(640,589,o),
(593,557,o),
(480,557,c),
(480,477,l),
(597,477,o),
(660,407,o),
(660,275,cs),
(660,147,o),
(603,80,o),
(506,80,cs),
(302,80,o),
(260,357,o),
(260,569,cs),
(260,976,o),
(415,1384,o),
(832,1399,c),
(829,1480,l),
(357,1460,o),
(180,1015,o),
(180,566,cs),
(180,276,o),
(254,-20,o),
(533,-20,cs)
);
}
);
};
layerId = m01;
shapes = (
{
closed = 1;
nodes = (
(691,-20,o),
(840,86,o),
(840,284,cs),
(840,408,o),
(782,495,o),
(668,533,c),
(667,508,l),
(767,544,o),
(820,615,o),
(820,720,cs),
(820,853,o),
(736,960,o),
(593,960,cs),
(446,960,o),
(380,847,o),
(380,680,c),
(460,680,l),
(460,782,o),
(488,880,o),
(559,880,cs),
(616,880,o),
(640,816,o),
(640,721,cs),
(640,589,o),
(593,557,o),
(480,557,c),
(480,477,l),
(597,477,o),
(660,406,o),
(660,277,cs),
(660,147,o),
(596,80,o),
(488,80,cs),
(264,80,o),
(220,366,o),
(220,594,cs),
(220,1026,o),
(378,1385,o),
(792,1399,c),
(789,1474,l),
(317,1455,o),
(140,1057,o),
(140,591,cs),
(140,282,o),
(218,-20,o),
(515,-20,cs)
);
}
);
width = 1000;
}
);
note = uniA9D4;
unicode = 43476;
},
{
glyphname = "five-java";
lastChange = "2022-07-24 07:10:29 +0000";
layers = (
{
background = {
shapes = (
{
closed = 1;
nodes = (
(460.667,728,o),
(470.5,778.333,o),
(489.5,811,cs),
(508.5,843.667,o),
(532,860,o),
(560,860,cs),
(610.667,860,o),
(640,796,o),
(640,700,cs),
(640,571.39,o),
(592.582,540,o),
(480,540,c),
(480,460,l),
(597.333,460,o),
(660,386.667,o),
(660,260,cs),
(660,122.667,o),
(601.333,60,o),
(500,60,cs),
(429.333,60,o),
(369.667,98.167,o),
(327,177.5,cs),
(284.333,256.833,o),
(260,376,o),
(260,540,cs),
(260,744,o),
(298.833,899,o),
(363.5,1003,cs),
(428.167,1107,o),
(517.333,1160,o),
(620,1160,cs),
(724,1160,o),
(808.167,1131.833,o),
(867.5,1052.5,cs),
(926.833,973.167,o),
(960,842.667,o),
(960,640,cs),
(960,-680,ls),
(960,-833.646,o),
(1015.009,-949.154,o),
(1074,-1025,cs),
(1107.333,-1067.667,o),
(1145.667,-1103.333,o),
(1189,-1132,c),
(1259,-1073,l),
(1174.814,-973.029,o),
(1140,-862.434,o),
(1140,-680,cs),
(1140,640,ls),
(1140,1108.748,o),
(941.864,1240,o),
(660,1240,cs),
(493.333,1240,o),
(372.5,1161.833,o),
(294.5,1034.5,cs),
(216.5,907.167,o),
(180,732,o),
(180,540,cs),
(180,356,o),
(209,210.667,o),
(269,112,cs),
(329,13.333,o),
(418.667,-40,o),
(540,-40,cs),
(695.829,-40,o),
(840,65.642,o),
(840,260,cs),
(840,378,o),
(792.667,458.333,o),
(698,501,c),
(778,539.667,o),
(820,606.667,o),
(820,700,cs),
(820,833.31,o),
(732.797,940,o),
(600,940,cs),
(442.082,940,o),
(380,825.956,o),
(380,660,c),
(460,660,l),
(460,660,l)
);
}
);
};
layerId = m01;
shapes = (
{
closed = 1;
nodes = (
(611,1160,l),
(899,1160,o),
(970,858,o),
(970,567,cs),
(970,-59,o),
(640,-174,o),
(640,-632,cs),
(640,-890,o),
(745,-1013,o),
(961,-1132,c),
(996,-1093,l),
(890,-989,o),
(820,-905,o),
(820,-685,cs),
(820,-205,o),
(1150,-112,o),
(1150,538,cs),
(1150,1081,o),
(919,1241,o),
(631,1241,c)
);
},
{
closed = 1;
nodes = (
(651,-20,o),
(800,86,o),
(800,284,cs),
(800,408,o),
(742,495,o),
(628,533,c),
(627,508,l),
(727,544,o),
(780,615,o),
(780,720,cs),
(780,853,o),
(696,960,o),
(553,960,cs),
(406,960,o),
(340,847,o),
(340,680,c),
(420,680,l),
(420,782,o),
(448,880,o),
(519,880,cs),
(576,880,o),
(600,816,o),
(600,721,cs),
(600,589,o),
(553,557,o),
(440,557,c),
(440,477,l),
(557,477,o),
(620,406,o),
(620,277,cs),
(620,147,o),
(556,80,o),
(449,80,cs),
(224,80,o),
(180,376,o),
(180,568,cs),
(180,879,o),
(296,1160,o),
(611,1160,c),
(631,1241,l),
(245,1241,o),
(100,922,o),
(100,560,cs),
(100,294,o),
(178,-20,o),
(477,-20,cs)
);
}
);
width = 1320;
}
);
note = uniA9D5;
unicode = 43477;
},
{
glyphname = "eight-java";
lastChange = "2022-07-24 07:10:29 +0000";
layers = (
{
background = {
shapes = (
{
ref = "paMurda-java";
}
);
};
layerId = m01;
shapes = (
{
ref = "paMurda-java";
},
{
closed = 1;
nodes = (
(1620,0,l),
(1620,-216,o),
(1486,-349,o),
(1349,-412,c),
(1376,-458,l),
(1585,-369,o),
(1800,-223,o),
(1800,0,c)
);
}
);
width = 1920;
}
);
note = uniA9D8;
unicode = 43480;
},
{
glyphname = .notdef;
lastChange = "2022-07-24 07:10:29 +0000";
layers = (
{
background = {
shapes = (
{
closed = 1;
nodes = (
(180,0,l),
(1120,0,l),
(1120,1390,l),
(180,1390,l)
);
},
{
closed = 1;
nodes = (
(1030,1300,l),
(1030,90,l),
(270,90,l),
(270,1300,l)
);
}
);
};
layerId = m01;
shapes = (
{
closed = 1;
nodes = (
(180,0,l),
(1120,0,l),
(1120,1390,l),
(180,1390,l),
(180,1390,l)
);
},
{
closed = 1;
nodes = (
(1030,1300,l),
(1030,90,l),
(270,90,l),
(270,1300,l),
(270,1300,l)
);
}
);
width = 1300;
}
);
note = ".notdef";
},
{
glyphname = "rerengganLeft-java";
lastChange = "2022-07-24 07:10:29 +0000";
layers = (
{
background = {
shapes = (
{
closed = 1;
nodes = (
(2093,-628,o),
(1832,-648,o),
(1561,-660,o),
(1440,-660,qs),
(1258,-660,o),
(957,-621,o),
(714,-553,o),
(527,-464,o),
(391,-365,o),
(303,-261,o),
(282,-213,q),
(299,-220,o),
(320,-220,qs),
(353,-220,o),
(411,-204,o),
(455,-170,o),
(480,-117,o),
(480,-80,qs),
(480,-46,o),
(454,6,o),
(411,42,o),
(353,60,o),
(320,60,qs),
(282,60,o),
(222,32,o),
(181,-16,o),
(160,-82,o),
(160,-120,qs),
(160,-184,o),
(224,-326,o),
(357,-464,o),
(563,-589,o),
(848,-684,o),
(1213,-740,o),
(1440,-740,qs),
(1515,-740,o),
(1685,-735,o),
(1861,-726,o),
(2038,-713,o),
(2204,-696,o),
(2355,-677,o),
(2417,-666,q),
(2404,-588,l),
(2323,-602,o)
);
},
{
closed = 1;
nodes = (
(2135,-1246,o),
(1863,-1398,o),
(1622,-1480,o),
(1520,-1480,qs),
(1382,-1480,o),
(1307,-1440,q),
(1368,-1438,o),
(1440,-1366,o),
(1440,-1300,qs),
(1440,-1274,o),
(1417,-1230,o),
(1379,-1198,o),
(1328,-1180,o),
(1300,-1180,qs),
(1267,-1180,o),
(1209,-1203,o),
(1166,-1245,o),
(1140,-1304,o),
(1140,-1340,qs),
(1140,-1385,o),
(1184,-1465,o),
(1277,-1525,o),
(1420,-1560,o),
(1520,-1560,qs),
(1594,-1560,o),
(1766,-1514,o),
(1953,-1431,o),
(2151,-1317,o),
(2351,-1182,o),
(2548,-1032,o),
(2641,-954,q),
(2592,-896,l),
(2433,-1030,o)
);
},
{
closed = 1;
nodes = (
(2111,-132,o),
(1863,-42,o),
(1648,63,o),
(1488,188,o),
(1393,337,o),
(1390,426,q),
(1406,412,o),
(1451,400,o),
(1480,400,qs),
(1511,400,o),
(1563,421,o),
(1600,459,o),
(1620,510,o),
(1620,540,qs),
(1620,594,o),
(1546,660,o),
(1480,660,qs),
(1436,660,o),
(1369,623,o),
(1323,562,o),
(1300,483,o),
(1300,440,qs),
(1300,342,o),
(1379,179,o),
(1527,41,o),
(1738,-74,o),
(2004,-178,o),
(2318,-273,o),
(2494,-320,q),
(2514,-246,l),
(2380,-210,o)
);
},
{
closed = 1;
nodes = (
(2877,-1312,o),
(2834,-1500,o),
(2771,-1663,o),
(2692,-1793,o),
(2597,-1884,o),
(2543,-1904,q),
(2560,-1876,o),
(2560,-1840,qs),
(2560,-1814,o),
(2539,-1770,o),
(2502,-1738,o),
(2450,-1720,o),
(2420,-1720,qs),
(2387,-1720,o),
(2335,-1739,o),
(2299,-1772,o),
(2280,-1815,o),
(2280,-1840,qs),
(2280,-1874,o),
(2305,-1932,o),
(2354,-1975,o),
(2429,-2000,o),
(2480,-2000,qs),
(2581,-2000,o),
(2762,-1860,o),
(2899,-1600,o),
(2980,-1230,o),
(2980,-1000,q),
(2900,-1000,l),
(2900,-1107,o)
);
},
{
closed = 1;
nodes = (
(2584,266,o),
(2508,453,o),
(2480,611,o),
(2480,680,qs),
(2480,688,o),
(2480,705,o),
(2482,714,q),
(2522,680,o),
(2580,680,qs),
(2647,680,o),
(2720,757,o),
(2720,820,qs),
(2720,845,o),
(2700,889,o),
(2663,921,o),
(2611,940,o),
(2580,940,qs),
(2497,940,o),
(2400,813,o),
(2400,680,qs),
(2400,582,o),
(2439,396,o),
(2526,202,o),
(2666,-8,o),
(2767,-128,q),
(2826,-79,l),
(2719,48,o)
);
},
{
closed = 1;
nodes = (
(2956,-464,o),
(2916,-424,o),
(2861,-400,o),
(2830,-400,qs),
(2799,-400,o),
(2744,-424,o),
(2704,-464,o),
(2680,-519,o),
(2680,-550,qs),
(2680,-581,o),
(2704,-636,o),
(2744,-676,o),
(2799,-700,o),
(2830,-700,qs),
(2861,-700,o),
(2916,-676,o),
(2956,-636,o),
(2980,-581,o),
(2980,-550,qs),
(2980,-519,o)
);
}
);
};
layerId = m01;
shapes = (
{
closed = 1;
nodes = (
(1195,-900,o),
(2417,-666,c),
(2404,-588,l),
(1679,-707,o),
(519,-743,o),
(282,-213,c),
(294,-218,o),
(306,-220,o),
(324,-220,cs),
(411,-220,o),
(480,-175,o),
(480,-82,cs),
(480,14,o),
(406,60,o),
(324,60,cs),
(223,60,o),
(169,-11,o),
(169,-132,cs),
(169,-652,o)
);
},
{
closed = 1;
nodes = (
(1880,-1560,o),
(2359,-1190,o),
(2641,-954,c),
(2592,-896,l),
(2328,-1119,o),
(1869,-1480,o),
(1506,-1480,cs),
(1429,-1480,o),
(1350,-1464,o),
(1307,-1440,c),
(1385,-1439,o),
(1440,-1385,o),
(1440,-1309,cs),
(1440,-1224,o),
(1372,-1180,o),
(1300,-1180,cs),
(1212.008,-1180,o),
(1140,-1244,o),
(1140,-1338,cs),
(1140,-1479,o),
(1300,-1560,o),
(1485,-1560,cs)
);
},
{
closed = 1;
nodes = (
(2756,-2000,o),
(2980,-1612,o),
(2980,-1000,c),
(2900,-1000,l),
(2900,-1292,o),
(2809,-1805,o),
(2543,-1904,c),
(2554,-1886,o),
(2560,-1864,o),
(2560,-1841,cs),
(2560,-1770,o),
(2501,-1720,o),
(2419,-1720,cs),
(2337,-1720,o),
(2280,-1771,o),
(2280,-1851,cs),
(2280,-1944,o),
(2357,-2000,o),
(2467,-2000,cs)
);
},
{
closed = 1;
nodes = (
(2514,-246,l),
(2054,-128,o),
(1400,55,o),
(1390,426,c),
(1411,407,o),
(1445,400,o),
(1476,400,cs),
(1567,400,o),
(1620,462,o),
(1620,538,cs),
(1620,614,o),
(1566,660,o),
(1484,660,cs),
(1362,660,o),
(1300,560,o),
(1300,430,cs),
(1300,2,o),
(1974,-180,o),
(2494,-320,c)
);
},
{
closed = 1;
nodes = (
(2912,-700,o),
(2980,-632,o),
(2980,-550,cs),
(2980,-468,o),
(2912,-400,o),
(2830,-400,cs),
(2748,-400,o),
(2680,-468,o),
(2680,-550,cs),
(2680,-632,o),
(2748,-700,o),
(2830,-700,cs)
);
},
{
closed = 1;
nodes = (
(2826,-79,l),
(2643,126,o),
(2458,443,o),
(2482,714,c),
(2508,692,o),
(2540,680,o),
(2580,680,cs),
(2669,680,o),
(2720,739,o),
(2720,813,cs),
(2720,892,o),
(2663,940,o),
(2578,940,cs),
(2469,940,o),
(2400,861,o),
(2400,667,cs),
(2400,370,o),
(2563,113,o),
(2767,-128,c)
);
}
);
width = 3140;
}
);
note = uniA9C1;
unicode = 43457;
},
{
glyphname = "padaAndap-java";
lastChange = "2022-07-24 07:10:29 +0000";
layers = (
{
anchors = (
{
name = back;
pos = (986,0);
},
{
name = cerek;
pos = (1023,0);
}
);
background = {
shapes = (
{
pos = (-481,0);
ref = _cmpnga1;
},
{
pos = (-481,0);
ref = _cmpnga2;
},
{
pos = (-481,0);
ref = _cmpandap;
}
);
};
layerId = m01;
shapes = (
{
closed = 1;
nodes = (
(2677,-1928,l),
(2631,-1912,o),
(2599,-1877,o),
(2599,-1740,cs),
(2599,760,ls),
(2599,884,o),
(2548,940,o),
(2419,940,cs),
(2319,940,ls),
(2217,940,o),
(2159,891,o),
(2159,760,cs),
(2159,-1330,ls),
(2159,-1672,o),
(2003,-1880,o),
(1529,-1880,cs),
(1409,-1880,ls),
(687,-1880,o),
(368,-1371,o),
(265,-562,c),
(180,-579,l),
(285,-1457,o),
(629,-2000,o),
(1409,-2000,cs),
(1529,-2000,ls),
(2037,-2000,o),
(2239,-1822,o),
(2239,-1330,cs),
(2239,760,ls),
(2239,842,o),
(2271,860,o),
(2328,860,cs),
(2398,860,o),
(2419,832,o),
(2419,760,cs),
(2419,-1740,ls),
(2419,-1893,o),
(2488,-1980,o),
(2648,-2008,c)
);
},
{
closed = 1;
nodes = (
(300,98,o),
(280,161,o),
(280,280,cs),
(280,690,ls),
(280,813,o),
(336,860,o),
(400,860,cs),
(439,860,o),
(460,843,o),
(460,760,cs),
(460,220,ls),
(460,69,o),
(528,0,o),
(660,0,cs),
(1320,0,l),
(1320,80,l),
(1046,80,o),
(1004,240,o),
(760,240,c),
(760,160,l),
(877,160,o),
(934,114,o),
(1031,80,c),
(760,80,ls),
(684,80,o),
(640,116,o),
(640,220,cs),
(640,760,ls),
(640,889,o),
(592,940,o),
(479,940,cs),
(413,940,ls),
(302,940,o),
(200,854,o),
(200,690,cs),
(200,280,ls),
(200,123,o),
(234,51,o),
(349,-18,c),
(389,49,l)
);
},
{
closed = 1;
nodes = (
(4253,-1960,l),
(3833,-925,o),
(2264,-643,o),
(1245,-1005,c),
(1270,-1075,l),
(1350,-1046,o),
(1432,-1030,o),
(1501,-1030,cs),
(1608,-1030,o),
(1679,-1071,o),
(1679,-1136,cs),
(1679,-1245,o),
(1483,-1280,o),
(1337,-1280,cs),
(1136,-1280,o),
(1019,-1213,o),
(1019,-1057,cs),
(1019,-762,o),
(1439,-600,o),
(1759,-600,c),
(1759,-520,l),
(1421,-520,o),
(859,-741,o),
(859,-1072,cs),
(859,-1288,o),
(1100,-1360,o),
(1338,-1360,cs),
(1611,-1360,o),
(1759,-1266,o),
(1759,-1138,cs),
(1759,-1083,o),
(1732,-1030,o),
(1660,-1000,c),
(2478,-918,o),
(3498,-1046,o),
(4020,-1729,c),
(3951,-1703,o),
(3883,-1700,o),
(3799,-1700,c),
(3799,-1780,l),
(4004,-1780,o),
(4102,-1819,o),
(4164,-1992,c)
);
},
{
closed = 1;
nodes = (
(970,761,o),
(940,783,o),
(940,818,cs),
(940,852,o),
(969,870,o),
(1025,870,cs),
(1134,870,o),
(1200,803,o),
(1200,680,c),
(1280,680,l),
(1280,795,o),
(1330,860,o),
(1430,860,cs),
(1490,860,ls),
(1593,860,o),
(1640,805,o),
(1640,640,cs),
(1640,0,l),
(1820,0,l),
(1820,640,ls),
(1820,826,o),
(1750,940,o),
(1560,940,cs),
(1440,940,ls),
(1354,940,o),
(1291,917,o),
(1249,845,c),
(1208,919,o),
(1136,950,o),
(1036,950,cs),
(912,950,o),
(850,903,o),
(850,819,cs),
(850,759,o),
(886,711,o),
(986,676,c),
(1012,746,l)
);
},
{
closed = 1;
nodes = (
(3657,-1928,l),
(3611,-1912,o),
(3579,-1877,o),
(3579,-1740,cs),
(3579,760,ls),
(3579,884,o),
(3528,940,o),
(3399,940,cs),
(3299,940,ls),
(3197,940,o),
(3139,891,o),
(3139,760,cs),
(3139,-1740,ls),
(3139,-1839,o),
(3124,-1880,o),
(3079,-1880,cs),
(3016,-1880,o),
(2988,-1800,o),
(2938,-1800,cs),
(2895,-1800,o),
(2861,-1860,o),
(2817,-1860,cs),
(2792,-1860,o),
(2779,-1840,o),
(2779,-1794,cs),
(2779,-1763,o),
(2785,-1714,o),
(2817,-1628,c),
(2757,-1602,l),
(2719,-1675,o),
(2699,-1767,o),
(2699,-1838,cs),
(2699,-1946,o),
(2744,-2000,o),
(2802,-2000,cs),
(2863,-2000,o),
(2884,-1940,o),
(2930,-1940,cs),
(2975,-1940,o),
(2994,-2000,o),
(3085,-2000,cs),
(3167,-2000,o),
(3219,-1951,o),
(3219,-1780,cs),
(3219,760,ls),
(3219,842,o),
(3251,860,o),
(3308,860,cs),
(3378,860,o),
(3399,832,o),
(3399,760,cs),
(3399,-1740,ls),
(3399,-1895,o),
(3468,-1980,o),
(3628,-2008,c)
);
}
);
width = 3803;
}
);
metricLeft = "nga-java";
metricRight = "padaLuhur-java";
note = uniA9C3;
unicode = 43459;
},
{
glyphname = "padaMadya-java";
lastChange = "2022-07-24 07:10:29 +0000";
layers = (
{
anchors = (
{
name = back;
pos = (1467,0);
},
{
name = cerek;
pos = (1504,0);
}
);
background = {
shapes = (
{
pos = (460,0);
ref = _cmpnga1;
},
{
pos = (460,0);
ref = _cmpnga2;
},
{
pos = (-100,0);
ref = _cmpmadya;
}
);
};
layerId = m01;
shapes = (
{
closed = 1;
nodes = (
(3620,-1740,ls),
(3620,-1839,o),
(3605,-1880,o),
(3560,-1880,cs),
(3497,-1880,o),
(3469,-1800,o),
(3419,-1800,cs),
(3376,-1800,o),
(3342,-1860,o),
(3298,-1860,cs),
(3273,-1860,o),
(3260,-1840,o),
(3260,-1794,cs),
(3260,-1763,o),
(3266,-1714,o),
(3298,-1628,c),
(3238,-1602,l),
(3200,-1675,o),
(3180,-1767,o),
(3180,-1838,cs),
(3180,-1946,o),
(3225,-2000,o),
(3283,-2000,cs),
(3344,-2000,o),
(3365,-1940,o),
(3411,-1940,cs),
(3456,-1940,o),
(3475,-2000,o),
(3566,-2000,cs),
(3648,-2000,o),
(3700,-1951,o),
(3700,-1780,cs),
(3700,760,ls),
(3700,842,o),
(3732,860,o),
(3789,860,cs),
(3859,860,o),
(3880,832,o),
(3880,760,cs),
(3880,-1740,ls),
(3880,-1895,o),
(3949,-1980,o),
(4109,-2008,c),
(4138,-1928,l),
(4092,-1912,o),
(4060,-1877,o),
(4060,-1740,cs),
(4060,760,ls),
(4060,884,o),
(4009,940,o),
(3880,940,cs),
(3780,940,ls),
(3678,940,o),
(3620,891,o),
(3620,760,cs)
);
},
{
closed = 1;
nodes = (
(2959,-918,o),
(3979,-1046,o),
(4501,-1729,c),
(4432,-1703,o),
(4364,-1700,o),
(4280,-1700,c),
(4280,-1780,l),
(4485,-1780,o),
(4583,-1819,o),
(4645,-1992,c),
(4734,-1960,l),
(4314,-925,o),
(2745,-643,o),
(1726,-1005,c),
(1751,-1075,l),
(1831,-1046,o),
(1913,-1030,o),
(1982,-1030,cs),
(2089,-1030,o),
(2160,-1071,o),
(2160,-1136,cs),
(2160,-1245,o),
(1964,-1280,o),
(1818,-1280,cs),
(1617,-1280,o),
(1500,-1213,o),
(1500,-1057,cs),
(1500,-762,o),
(1920,-600,o),
(2240,-600,c),
(2240,-520,l),
(1902,-520,o),
(1340,-741,o),
(1340,-1072,cs),
(1340,-1288,o),
(1581,-1360,o),
(1819,-1360,cs),
(2092,-1360,o),
(2240,-1266,o),
(2240,-1138,cs),
(2240,-1083,o),
(2213,-1030,o),
(2141,-1000,c)
);
},
{
closed = 1;
nodes = (
(2640,-1330,ls),
(2640,-1672,o),
(2484,-1880,o),
(2010,-1880,cs),
(1890,-1880,ls),
(653,-1880,o),
(280,-1130,o),
(280,-275,cs),
(280,79,o),
(344,606,o),
(497,910,c),
(431,940,l),
(256,600,o),
(180,103,o),
(180,-296,cs),
(180,-1207,o),
(576,-2000,o),
(1890,-2000,cs),
(2010,-2000,ls),
(2518,-2000,o),
(2720,-1822,o),
(2720,-1330,cs),
(2720,760,ls),
(2720,842,o),
(2752,860,o),
(2809,860,cs),
(2879,860,o),
(2900,832,o),
(2900,760,cs),
(2900,-1740,ls),
(2900,-1893,o),
(2969,-1980,o),
(3129,-2008,c),
(3158,-1928,l),
(3112,-1912,o),
(3080,-1877,o),
(3080,-1740,cs),
(3080,760,ls),
(3080,884,o),
(3029,940,o),
(2900,940,cs),
(2800,940,ls),
(2698,940,o),
(2640,891,o),
(2640,760,cs)
);
},
{
closed = 1;
nodes = (
(781,98,o),
(761,161,o),
(761,280,cs),
(761,690,ls),
(761,813,o),
(817,860,o),
(881,860,cs),
(920,860,o),
(941,843,o),
(941,760,cs),
(941,220,ls),
(941,69,o),
(1009,0,o),
(1141,0,cs),
(1801,0,l),
(1801,80,l),
(1527,80,o),
(1485,240,o),
(1241,240,c),
(1241,160,l),
(1358,160,o),
(1415,114,o),
(1512,80,c),
(1241,80,ls),
(1165,80,o),
(1121,116,o),
(1121,220,cs),
(1121,760,ls),
(1121,889,o),
(1073,940,o),
(960,940,cs),
(894,940,ls),
(783,940,o),
(681,854,o),
(681,690,cs),
(681,280,ls),
(681,123,o),
(715,51,o),
(830,-18,c),
(870,49,l)
);
},
{
closed = 1;
nodes = (
(1451,761,o),
(1421,783,o),
(1421,818,cs),
(1421,852,o),
(1450,870,o),
(1506,870,cs),
(1615,870,o),
(1681,803,o),
(1681,680,c),
(1761,680,l),
(1761,795,o),
(1811,860,o),
(1911,860,cs),
(1971,860,ls),
(2074,860,o),
(2121,805,o),
(2121,640,cs),
(2121,0,l),
(2301,0,l),
(2301,640,ls),
(2301,826,o),
(2231,940,o),
(2041,940,cs),
(1921,940,ls),
(1835,940,o),
(1772,917,o),
(1730,845,c),
(1689,919,o),
(1617,950,o),
(1517,950,cs),
(1393,950,o),
(1331,903,o),
(1331,819,cs),
(1331,759,o),
(1367,711,o),
(1467,676,c),
(1493,746,l)
);
}
);
width = 4284;
}
);
metricLeft = "cakra-java";
metricRight = "padaLuhur-java";
note = uniA9C4;
unicode = 43460;
},
{
glyphname = "padaLuhur-java";
lastChange = "2022-07-24 07:10:29 +0000";
layers = (
{
anchors = (
{
name = back;
pos = (1467,0);
},
{
name = cerek;
pos = (1504,0);
}
);
background = {
shapes = (
{
pos = (1069,0);
ref = _cmpnga1;
},
{
pos = (1069,0);
ref = _cmpnga2;
},
{
pos = (509,0);
ref = _cmpluhur;
}
);
};
layerId = m01;
shapes = (
{
closed = 1;
nodes = (
(781,98,o),
(761,161,o),
(761,280,cs),
(761,690,ls),
(761,813,o),
(817,860,o),
(881,860,cs),
(920,860,o),
(941,843,o),
(941,760,cs),
(941,220,ls),
(941,69,o),
(1009,0,o),
(1141,0,cs),
(1801,0,l),
(1801,80,l),
(1527,80,o),
(1485,240,o),
(1241,240,c),
(1241,160,l),
(1358,160,o),
(1415,114,o),
(1512,80,c),
(1241,80,ls),
(1165,80,o),
(1121,116,o),
(1121,220,cs),
(1121,760,ls),
(1121,889,o),
(1073,940,o),
(960,940,cs),
(894,940,ls),
(783,940,o),
(681,854,o),
(681,690,cs),
(681,280,ls),
(681,123,o),
(715,51,o),
(830,-18,c),
(870,49,l)
);
},
{
closed = 1;
nodes = (
(1451,761,o),
(1421,783,o),
(1421,818,cs),
(1421,852,o),
(1450,870,o),
(1506,870,cs),
(1615,870,o),
(1681,803,o),
(1681,680,c),
(1761,680,l),
(1761,795,o),
(1811,860,o),
(1911,860,cs),
(1971,860,ls),
(2074,860,o),
(2121,805,o),
(2121,640,cs),
(2121,0,l),
(2301,0,l),
(2301,640,ls),
(2301,826,o),
(2231,940,o),
(2041,940,cs),
(1921,940,ls),
(1835,940,o),
(1772,917,o),
(1730,845,c),
(1689,919,o),
(1617,950,o),
(1517,950,cs),
(1393,950,o),
(1331,903,o),
(1331,819,cs),
(1331,759,o),
(1367,711,o),
(1467,676,c),
(1493,746,l)
);
},
{
closed = 1;
nodes = (
(3620,-1740,ls),
(3620,-1839,o),
(3605,-1880,o),
(3560,-1880,cs),
(3497,-1880,o),
(3469,-1800,o),
(3419,-1800,cs),
(3376,-1800,o),
(3342,-1860,o),
(3298,-1860,cs),
(3273,-1860,o),
(3260,-1840,o),
(3260,-1794,cs),
(3260,-1763,o),
(3266,-1714,o),
(3298,-1628,c),
(3238,-1602,l),
(3200,-1675,o),
(3180,-1767,o),
(3180,-1838,cs),
(3180,-1946,o),
(3225,-2000,o),
(3283,-2000,cs),
(3344,-2000,o),
(3365,-1940,o),
(3411,-1940,cs),
(3456,-1940,o),
(3475,-2000,o),
(3566,-2000,cs),
(3648,-2000,o),
(3700,-1951,o),
(3700,-1780,cs),
(3700,760,ls),
(3700,842,o),
(3732,860,o),
(3789,860,cs),
(3859,860,o),
(3880,832,o),
(3880,760,cs),
(3880,-1740,ls),
(3880,-1895,o),
(3949,-1980,o),
(4109,-2008,c),
(4138,-1928,l),
(4092,-1912,o),
(4060,-1877,o),
(4060,-1740,cs),
(4060,760,ls),
(4060,884,o),
(4009,940,o),
(3880,940,cs),
(3780,940,ls),
(3678,940,o),
(3620,891,o),
(3620,760,cs)
);
},
{
closed = 1;
nodes = (
(3979,-1046,o),
(4501,-1729,c),
(4432,-1703,o),
(4364,-1700,o),
(4280,-1700,c),
(4280,-1780,l),
(4485,-1780,o),
(4583,-1819,o),
(4645,-1992,c),
(4734,-1960,l),
(4314,-925,o),
(2745,-643,o),
(1726,-1005,c),
(1751,-1075,l),
(1831,-1046,o),
(1913,-1030,o),
(1982,-1030,cs),
(2089,-1030,o),
(2160,-1071,o),
(2160,-1136,cs),
(2160,-1245,o),
(1964,-1280,o),
(1818,-1280,cs),
(1617,-1280,o),
(1500,-1213,o),
(1500,-1057,cs),
(1500,-762,o),
(1920,-600,o),
(2240,-600,c),
(2240,-520,l),
(1902,-520,o),
(1340,-741,o),
(1340,-1072,cs),
(1340,-1288,o),
(1581,-1360,o),
(1819,-1360,cs),
(2092,-1360,o),
(2240,-1266,o),
(2240,-1138,cs),
(2240,-1083,o),
(2213,-1030,o),
(2141,-1000,c),
(2959,-918,o)
);
},
{
closed = 1;
nodes = (
(2640,-1330,ls),
(2640,-1672,o),
(2484,-1880,o),
(2010,-1880,cs),
(1890,-1880,ls),
(653,-1880,o),
(280,-806,o),
(280,261,cs),
(280,762,o),
(362,1527,o),
(557,1966,c),
(491,1996,l),
(275,1515,o),
(180,797,o),
(180,242,cs),
(180,-887,o),
(576,-2000,o),
(1890,-2000,cs),
(2010,-2000,ls),
(2518,-2000,o),
(2720,-1822,o),
(2720,-1330,cs),
(2720,760,ls),
(2720,842,o),
(2752,860,o),
(2809,860,cs),
(2879,860,o),
(2900,832,o),
(2900,760,cs),
(2900,-1740,ls),
(2900,-1893,o),
(2969,-1980,o),
(3129,-2008,c),
(3158,-1928,l),
(3112,-1912,o),
(3080,-1877,o),
(3080,-1740,cs),
(3080,760,ls),
(3080,884,o),
(3029,940,o),
(2900,940,cs),
(2800,940,ls),
(2698,940,o),
(2640,891,o),
(2640,760,cs)
);
}
);
width = 4284;
}
);
metricLeft = "cakra-java";
note = uniA9C5;
unicode = 43461;
},
{
glyphname = "padaWindu-java";
lastChange = "2022-07-24 07:10:29 +0000";
layers = (
{
background = {
shapes = (
{
closed = 1;
nodes = (
(219,200,o),
(324,103,o),
(471,60,o),
(560,60,qs),
(648,60,o),
(789,116,o),
(887,221,o),
(940,374,o),
(940,470,qs),
(940,566,o),
(891,718,o),
(795,824,o),
(653,880,o),
(560,880,qs),
(465,880,o),
(316,820,o),
(214,712,o),
(160,561,o),
(160,470,qs),
(160,356,o)
);
},
{
closed = 1;
nodes = (
(380,666,o),
(449,753,o),
(544,800,o),
(600,800,qs),
(659,800,o),
(755,751,o),
(823,663,o),
(860,542,o),
(860,470,qs),
(860,393,o),
(820,271,o),
(750,186,o),
(655,140,o),
(600,140,qs),
(545,140,o),
(450,180,o),
(380,262,o),
(340,386,o),
(340,470,qs),
(340,545,o)
);
}
);
};
layerId = m01;
shapes = (
{
closed = 1;
nodes = (
(822,60,o),
(940,213,o),
(940,469,cs),
(940,728,o),
(819,880,o),
(565,880,cs),
(307,880,o),
(160,722,o),
(160,456,cs),
(160,176,o),
(323,60,o),
(555,60,cs)
);
},
{
closed = 1;
nodes = (
(427,140,o),
(340,251,o),
(340,462,cs),
(340,673,o),
(427,800,o),
(598,800,cs),
(773,800,o),
(860,666,o),
(860,467,cs),
(860,267,o),
(773,140,o),
(594,140,cs)
);
}
);
width = 1080;
}
);
note = uniA9C6;
unicode = 43462;
},
{
glyphname = "padaTirtaTumetes-java";
lastChange = "2022-07-24 07:10:29 +0000";
layers = (
{
background = {
shapes = (
{
closed = 1;
nodes = (
(550.673,900,o),
(445.046,837.662,o),
(352.5,755,cs),
(246.473,660.296,o),
(160,531.152,o),
(160,380,cs),
(160,167.038,o),
(315.163,60,o),
(570,60,cs),
(803.111,60,o),
(940,170.536,o),
(940,380,cs),
(940,529.199,o),
(872.213,661.102,o),
(787.5,755,cs),
(707.82,843.32,o),
(623.391,900,o),
(590,900,c)
);
},
{
closed = 1;
nodes = (
(634.917,800,o),
(694.703,740.62,o),
(745.5,676.5,cs),
(807.883,597.755,o),
(860,494.373,o),
(860,380,cs),
(860,227.439,o),
(756.218,140,o),
(610,140,cs),
(455.794,140,o),
(340,215.784,o),
(340,380,cs),
(340,496.543,o),
(395.098,601.361,o),
(461.5,679,cs),
(517.825,744.857,o),
(585.428,800,o),
(610,800,c)
);
}
);
};
layerId = m01;
shapes = (
{
closed = 1;
nodes = (
(807,60,o),
(940,161,o),
(940,368,cs),
(940,636,o),
(718,840,o),
(590,900,c),
(482,850,o),
(160,676,o),
(160,371,cs),
(160,157,o),
(319,60,o),
(561,60,cs)
);
},
{
closed = 1;
nodes = (
(460,140,o),
(340,207,o),
(340,367,cs),
(340,560,o),
(513,758,o),
(610,800,c),
(682,755,o),
(860,590,o),
(860,376,cs),
(860,213,o),
(756,140,o),
(605,140,cs)
);
}
);
width = 1080;
}
);
note = uniA9DE;
unicode = 43486;
},
{
glyphname = "padaIsenIsen-java";
lastChange = "2022-07-24 07:10:29 +0000";
layers = (
{
background = {
shapes = (
{
closed = 1;
nodes = (
(313,150,o),
(270,198,o),
(247,262,o),
(240,345,o),
(240,400,qs),
(240,600,ls),
(240,655,o),
(263,731,o),
(302,779,o),
(353,800,o),
(380,800,qs),
(460,800,ls),
(525,800,o),
(600,718,o),
(600,640,qs),
(600,220,ls),
(600,148,o),
(668,80,o),
(730,80,qs),
(830,80,ls),
(854,80,o),
(901,92,o),
(937,123,o),
(960,178,o),
(960,220,qs),
(960,660,ls),
(960,736,o),
(1013,800,o),
(1080,800,qs),
(1180,800,ls),
(1245,800,o),
(1320,718,o),
(1320,640,qs),
(1320,80,l),
(1500,80,l),
(1500,640,ls),
(1500,685,o),
(1478,771,o),
(1427,838,o),
(1342,880,o),
(1280,880,qs),
(1080,880,ls),
(973,880,o),
(880,772,o),
(880,660,qs),
(880,220,ls),
(880,193,o),
(859,160,o),
(830,160,qs),
(800,160,o),
(780,188,o),
(780,220,qs),
(780,640,ls),
(780,685,o),
(758,771,o),
(707,838,o),
(622,880,o),
(560,880,qs),
(380,880,ls),
(335,880,o),
(255,845,o),
(195,774,o),
(160,669,o),
(160,600,qs),
(160,400,ls),
(160,334,o),
(171,233,o),
(203,153,o),
(261,90,o),
(309,62,q),
(349,129,l)
);
}
);
};
layerId = m01;
shapes = (
{
closed = 1;
nodes = (
(254,104,o),
(240,162,o),
(240,312,cs),
(240,710,ls),
(240,815,o),
(302,860,o),
(380,860,cs),
(460,860,ls),
(557,860,o),
(600,811,o),
(600,710,cs),
(600,140,ls),
(600,44,o),
(649,0,o),
(732,0,cs),
(832,0,ls),
(898,0,o),
(960,29,o),
(960,140,cs),
(960,710,ls),
(960,826,o),
(991,860,o),
(1080,860,cs),
(1180,860,ls),
(1277,860,o),
(1320,811,o),
(1320,710,cs),
(1320,0,l),
(1500,0,l),
(1500,710,ls),
(1500,831,o),
(1455,940,o),
(1280,940,cs),
(1080,940,ls),
(937,940,o),
(880,875,o),
(880,710,cs),
(880,140,ls),
(880,102,o),
(869,80,o),
(828,80,cs),
(790,80,o),
(780,99,o),
(780,140,cs),
(780,710,ls),
(780,831,o),
(735,940,o),
(560,940,cs),
(380,940,ls),
(254,940,o),
(160,856,o),
(160,710,cs),
(160,312,ls),
(160,135,o),
(183,56,o),
(309,-18,c),
(349,49,l)
);
}
);
width = 1680;
}
);
note = uniA9DF;
unicode = 43487;
},
{
glyphname = "padaLingsa-java";
lastChange = "2022-07-24 07:10:29 +0000";
layers = (
{
background = {
shapes = (
{
closed = 1;
nodes = (
(202,795,o),
(394,656,o),
(568,504,o),
(722,342,o),
(785,261,q),
(699,280,o),
(560,280,q),
(560,200,l),
(648,200,o),
(770,185,o),
(857,143,o),
(919,66,o),
(948,4,q),
(1030,42,l),
(981,146,o),
(824,373,o),
(603,603,o),
(319,827,o),
(144,928,q),
(101,853,l)
);
}
);
};
layerId = m01;
shapes = (
{
closed = 1;
nodes = (
(366.408,700.588,o),
(615.257,479.241,o),
(794,249,c),
(727.667,273.667,o),
(663,280,o),
(560,280,c),
(560,200,l),
(677.333,200,o),
(755.5,192,o),
(813.5,164,cs),
(871.5,136,o),
(909.333,86.667,o),
(948,4,c),
(1030,42,l),
(858,407,o),
(502,721,o),
(144,928,c),
(101,853,l)
);
}
);
width = 1120;
}
);
note = uniA9C8;
unicode = 43464;
},
{
glyphname = "padaLungsi-java";
lastChange = "2022-07-24 07:10:29 +0000";
layers = (
{
background = {
shapes = (
{
closed = 1;
nodes = (
(366.408,700.588,o),
(615.257,479.241,o),
(785,261,c),
(727.667,273.667,o),
(652.667,280,o),
(560,280,c),
(560,200,l),
(677.333,200,o),
(755.5,192,o),
(813.5,164,cs),
(871.5,136,o),
(909.333,86.667,o),
(948,4,c),
(1030,42,l),
(1006,92.667,o),
(976.667,144,o),
(942,200,c),
(1158.297,197.33,o),
(1232.831,165.076,o),
(1308,4,c),
(1390,42,l),
(1324.667,180.667,o),
(1220.833,334.667,o),
(1073.5,488,cs),
(926.167,641.333,o),
(737.333,793.333,o),
(504,928,c),
(461,853,l),
(726.408,700.588,o),
(975.257,479.241,o),
(1145,261,c),
(1087.667,273.667,o),
(1012.667,280,o),
(920,280,c),
(920,234,l),
(841.333,350,o),
(738.333,471.5,o),
(609,589.5,cs),
(479.667,707.5,o),
(325.333,822.667,o),
(144,928,c),
(101,853,l),
(101,853,l)
);
}
);
};
layerId = m01;
shapes = (
{
ref = "padaLingsa-java";
},
{
pos = (360,0);
ref = "padaLingsa-java";
}
);
width = 1480;
}
);
metricLeft = "padaLingsa-java";
metricRight = "padaLingsa-java";
note = uniA9C9;
unicode = 43465;
},
{
glyphname = "padaAdeg-java";
lastChange = "2022-07-24 07:10:29 +0000";
layers = (
{
background = {
shapes = (
{
closed = 1;
nodes = (
(100,860,ls),
(138,860,o),
(180,822,o),
(180,780,qs),
(180,-1560,ls),
(180,-1620,o),
(200,-1722,o),
(232,-1808,o),
(273,-1878,o),
(294,-1905,qs),
(344,-1969,o),
(409,-2012,q),
(479,-1953,l),
(447,-1915,o),
(402,-1835,o),
(374,-1741,o),
(360,-1629,o),
(360,-1560,qs),
(360,780,ls),
(360,862,o),
(279,940,o),
(200,940,qs),
(80,940,l),
(80,860,l)
);
}
);
};
layerId = m01;
shapes = (
{
closed = 1;
nodes = (
(110,860,ls),
(164,860,o),
(180,836,o),
(180,780,cs),
(180,-1560,ls),
(180,-1824,o),
(329,-1955,o),
(419,-2012,c),
(480,-1950,l),
(395,-1851,o),
(360,-1742,o),
(360,-1560,cs),
(360,780,ls),
(360,899,o),
(325,940,o),
(200,940,cs),
(80,940,l),
(80,860,l)
);
}
);
width = 540;
}
);
note = uniA9CA;
unicode = 43466;
},
{
glyphname = period;
lastChange = "2022-07-24 07:10:29 +0000";
layers = (
{
background = {
shapes = (
{
closed = 1;
nodes = (
(182,171,o),
(151,141,o),
(133,101,o),
(133,78,qs),
(133,55,o),
(151,14,o),
(182,-16,o),
(224,-33,o),
(248,-33,qs),
(272,-33,o),
(313,-16,o),
(344,14,o),
(362,55,o),
(362,78,qs),
(362,101,o),
(344,141,o),
(313,171,o),
(272,188,o),
(248,188,qs),
(224,188,o)
);
}
);
};
layerId = m01;
shapes = (
{
closed = 1;
nodes = (
(184.898,188,o),
(133,141.338,o),
(133,78,cs),
(133,14.139,o),
(184.576,-33,o),
(248,-33,cs),
(311.219,-33,o),
(362,15.772,o),
(362,78,cs),
(362,139.305,o),
(310.714,188,o),
(248,188,cs)
);
}
);
width = 553;
}
);
note = period;
unicode = 46;
},
{
glyphname = comma;
lastChange = "2022-07-24 07:10:29 +0000";
layers = (
{
background = {
shapes = (
{
closed = 1;
nodes = (
(199,-340,o),
(318,-286,o),
(408,-197,o),
(461,-77,o),
(461,-6,qs),
(461,39,o),
(432,119,o),
(382,179,o),
(315,213,o),
(276,213,qs),
(246,213,o),
(194,194,o),
(155,159,o),
(133,113,o),
(133,86,qs),
(133,60,o),
(149,17,o),
(178,-15,o),
(215,-33,o),
(236,-33,qs),
(256,-33,o),
(280,-23,o),
(299,-10,o),
(317,0,o),
(330,0,qs),
(344,0,o),
(362,-34,o),
(362,-57,qs),
(362,-96,o),
(326,-170,o),
(264,-233,o),
(181,-282,o),
(133,-295,q),
(133,-344,l)
);
}
);
};
layerId = m01;
shapes = (
{
closed = 1;
nodes = (
(309.085,-333.328,o),
(461,-193.81,o),
(461,-6,cs),
(461,112.849,o),
(380.88,213,o),
(276,213,cs),
(196.584,213,o),
(133,159.315,o),
(133,86,cs),
(133,19.018,o),
(178.418,-33,o),
(236,-33,cs),
(290.453,-33,o),
(292.881,0,o),
(330,0,cs),
(348.667,0,o),
(362,-26.333,o),
(362,-57,cs),
(362,-161.256,o),
(259.191,-260.823,o),
(133,-295,c),
(133,-344,l),
(133,-344,l)
);
}
);
width = 553;
}
);
note = comma;
unicode = 44;
},
{
glyphname = colon;
lastChange = "2022-07-24 07:10:29 +0000";
layers = (
{
background = {
shapes = (
{
closed = 1;
nodes = (
(182,943,o),
(151,913,o),
(133,873,o),
(133,850,qs),
(133,827,o),
(151,786,o),
(182,756,o),
(224,739,o),
(248,739,qs),
(272,739,o),
(313,756,o),
(344,786,o),
(362,827,o),
(362,850,qs),
(362,873,o),
(344,913,o),
(313,943,o),
(272,961,o),
(248,961,qs),
(224,961,o)
);
},
{
closed = 1;
nodes = (
(182,171,o),
(151,141,o),
(133,101,o),
(133,78,qs),
(133,55,o),
(151,14,o),
(182,-16,o),
(224,-33,o),
(248,-33,qs),
(272,-33,o),
(313,-16,o),
(344,14,o),
(362,55,o),
(362,78,qs),
(362,101,o),
(344,141,o),
(313,171,o),
(272,188,o),
(248,188,qs),
(224,188,o)
);
}
);
};
layerId = m01;
shapes = (
{
closed = 1;
nodes = (
(184.86,961,o),
(133,911.647,o),
(133,850,cs),
(133,786.139,o),
(184.576,739,o),
(248,739,cs),
(311.219,739,o),
(362,787.772,o),
(362,850,cs),
(362,911.319,o),
(310.69,961,o),
(248,961,cs)
);
},
{
closed = 1;
nodes = (
(184.898,188,o),
(133,141.338,o),
(133,78,cs),
(133,14.139,o),
(184.576,-33,o),
(248,-33,cs),
(311.219,-33,o),
(362,15.772,o),
(362,78,cs),
(362,139.305,o),
(310.714,188,o),
(248,188,cs)
);
}
);
width = 553;
}
);
note = colon;
unicode = 58;
},
{
glyphname = semicolon;
lastChange = "2022-07-24 07:10:29 +0000";
layers = (
{
background = {
shapes = (
{
closed = 1;
nodes = (
(223,943,o),
(192,911,o),
(174,870,o),
(174,846,qs),
(174,822,o),
(192,780,o),
(223,749,o),
(265,731,o),
(289,731,qs),
(313,731,o),
(354,749,o),
(385,780,o),
(403,822,o),
(403,846,qs),
(403,870,o),
(385,911,o),
(354,943,o),
(313,961,o),
(289,961,qs),
(265,961,o)
);
},
{
closed = 1;
nodes = (
(199,-340,o),
(318,-286,o),
(408,-197,o),
(461,-77,o),
(461,-6,qs),
(461,39,o),
(432,119,o),
(382,179,o),
(315,213,o),
(276,213,qs),
(246,213,o),
(194,194,o),
(155,159,o),
(133,113,o),
(133,86,qs),
(133,60,o),
(149,17,o),
(178,-15,o),
(215,-33,o),
(236,-33,qs),
(256,-33,o),
(280,-23,o),
(299,-10,o),
(317,0,o),
(330,0,qs),
(344,0,o),
(362,-34,o),
(362,-57,qs),
(362,-96,o),
(326,-170,o),
(264,-233,o),
(181,-282,o),
(133,-295,q),
(133,-344,l)
);
}
);
};
layerId = m01;
shapes = (
{
closed = 1;
nodes = (
(226.543,961,o),
(174,912.747,o),
(174,846,cs),
(174,782,o),
(225.333,731,o),
(289,731,cs),
(352.18,731,o),
(403,782.321,o),
(403,846,cs),
(403,910.837,o),
(351.72,961,o),
(289,961,cs)
);
},
{
closed = 1;
nodes = (
(309.085,-333.328,o),
(461,-193.81,o),
(461,-6,cs),
(461,112.849,o),
(380.88,213,o),
(276,213,cs),
(196.584,213,o),
(133,159.315,o),
(133,86,cs),
(133,19.018,o),
(178.418,-33,o),
(236,-33,cs),
(290.453,-33,o),
(292.881,0,o),
(330,0,cs),
(348.667,0,o),
(362,-26.333,o),
(362,-57,cs),
(362,-161.256,o),
(259.191,-260.823,o),
(133,-295,c),
(133,-344,l),
(133,-344,l)
);
}
);
width = 553;
}
);
note = semicolon;
unicode = 59;
},
{
glyphname = exclam;
lastChange = "2022-07-24 07:10:29 +0000";
layers = (
{
background = {
shapes = (
{
closed = 1;
nodes = (
(237,471,o),
(267,709,o),
(299,941,o),
(324,1161,o),
(324,1260,qs),
(324,1337,o),
(253,1425,o),
(201,1425,qs),
(178,1425,o),
(133,1402,o),
(99,1359,o),
(78,1298,o),
(78,1260,qs),
(78,1161,o),
(103,941,o),
(134,709,o),
(163,471,o),
(168,356,q),
(233,356,l)
);
},
{
closed = 1;
nodes = (
(135,171,o),
(104,141,o),
(86,101,o),
(86,78,qs),
(86,55,o),
(104,14,o),
(135,-16,o),
(177,-33,o),
(201,-33,qs),
(225,-33,o),
(266,-16,o),
(297,14,o),
(315,55,o),
(315,78,qs),
(315,101,o),
(297,141,o),
(266,171,o),
(225,188,o),
(201,188,qs),
(177,188,o)
);
}
);
};
layerId = m01;
shapes = (
{
closed = 1;
nodes = (
(244.476,685.944,o),
(324,980.729,o),
(324,1260,cs),
(324,1362.667,o),
(270.333,1425,o),
(201,1425,cs),
(136.811,1425,o),
(78,1359.098,o),
(78,1260,cs),
(78,1001.337,o),
(154.845,658.567,o),
(168,356,c),
(233,356,l),
(233,356,l)
);
},
{
closed = 1;
nodes = (
(137.898,188,o),
(86,141.338,o),
(86,78,cs),
(86,14.139,o),
(137.576,-33,o),
(201,-33,cs),
(264.219,-33,o),
(315,15.772,o),
(315,78,cs),
(315,139.305,o),
(263.714,188,o),
(201,188,cs)
);
}
);
width = 395;
}
);
note = exclam;
unicode = 33;
},
